<?xml version="1.0" encoding="utf-8" standalone="yes"?>
<!DOCTYPE svg PUBLIC "-//W3C//DTD SVG 1.1//EN" "http://www.w3.org/Graphics/SVG/1.1/DTD/svg11.dtd">
<svg width="590" height="512" viewBox="0 0 590 512" style="fill:none;stroke:none;fill-rule:evenodd;clip-rule:evenodd;stroke-linecap:round;stroke-linejoin:round;stroke-miterlimit:1.5;" version="1.1" xmlns="http://www.w3.org/2000/svg" xmlns:xlink="http://www.w3.org/1999/xlink"><style class="text-font-style fontImports" data-font-family="Roboto">@import url('https://fonts.googleapis.com/css2?family=Roboto:wght@400;700&amp;display=block');</style><g id="items" style="isolation: isolate"><g id="blend" style="mix-blend-mode: normal"><g id="g-root-1.shape-1_fr_8z0i9h15xqqde-fill" data-item-order="-223544" transform="translate(36.499969482421875, 104.81640625)"><g id="1.shape-1_fr_8z0i9h15xqqde-fill" stroke="none" fill="#4e88e7"><g><path d="M 214.000203 328.183594L 45.999903 328.183494C 26.117703 328.183494 10.000003 312.081294 10.000003 292.199194L 10.000003 292.183594L 250.000203 292.183594C 250.000203 312.065794 233.882203 328.183594 214.000203 328.183594ZM 254.600031 28.374594L 250.000031 28.374594L 250.000031 160.183594L 10.000031 160.183594C 10.000052 140.301594 26.117731 124.504594 45.999931 124.504594L 172.000031 124.504594C 213.070031 124.504594 238.000031 94.374494 238.000031 55.034494L 238.000031 28.374494L 233.320031 28.374494C 232.540031 28.374494 232.050031 27.524494 232.440031 26.844494L 243.163031 10.631894C 243.559031 10.032994 244.439031 10.034394 244.833031 10.634594L 255.480031 26.844494C 255.880031 27.524594 255.390031 28.374594 254.600031 28.374594ZM 250.000031 160.183594L 250.000031 292.183594L 10.000031 292.183594L 10.000059 160.183594L 250.000031 160.183594Z"></path></g></g></g><g id="g-root-2.shape-2_fr_1upaiyd15xqolg-fill" data-item-order="-223518" transform="translate(288.8775634765625, 104.81640625)"><g id="2.shape-2_fr_1upaiyd15xqolg-fill" stroke="none" fill="#92bd39"><g><path d="M 51.622433 328.183655L 219.622433 328.183555C 239.504433 328.183555 255.622433 312.081355 255.622433 292.199255L 255.622433 292.183655L 15.622433 292.183655C 15.622433 312.065855 31.740133 328.183655 51.622433 328.183655ZM 11.022416 28.374594L 15.622416 28.374594L 15.622416 160.183594L 255.622016 160.183594C 255.622016 140.301594 239.505016 124.504594 219.623016 124.504594L 93.622416 124.504594C 52.552416 124.504594 27.622416 94.374494 27.622416 55.034494L 27.622416 28.374494L 32.302416 28.374494C 33.082416 28.374494 33.572416 27.524494 33.182416 26.844494L 22.459416 10.631894C 22.063216 10.032994 21.183716 10.034394 20.789516 10.634594L 10.142416 26.844494C 9.742416 27.524594 10.232416 28.374594 11.022416 28.374594ZM 15.62233 160.183594L 15.62233 292.183594L 255.62233 292.183594L 255.62233 160.183594L 15.62233 160.183594Z"></path></g></g></g><g id="g-root-tx__1hdu0l115xqq6e-fill" data-item-order="0" transform="translate(207, 39)"><g id="tx__1hdu0l115xqq6e-fill" stroke="none" fill="#484848"><g><text style="font: bold 20px Roboto, sans-serif; white-space: pre;" font-weight="bold" font-size="20px" font-family="Roboto, sans-serif"><tspan x="13.82" y="33.5" dominant-baseline="ideographic">효율적인 코딩 도구</tspan></text></g></g></g><g id="g-root-cont_90vxit15xqpdt-fill" data-item-order="0" transform="translate(132.5, 243)"></g><g id="g-root-edit_1hbc7ed15xthqc-fill" data-item-order="0" transform="translate(390.5, 243)"></g><g id="g-root-tx_springfr_142zzat15xqolj-fill" data-item-order="0" transform="translate(72.5, 303)"><g id="tx_springfr_142zzat15xqolj-fill" stroke="none" fill="#ffffff"><g><text style="font: bold 20px Roboto, sans-serif; white-space: pre;" font-weight="bold" font-size="20px" font-family="Roboto, sans-serif"><tspan x="11.84" y="33.5" dominant-baseline="ideographic">SpringFramework </tspan><tspan x="58.84" y="57.5" dominant-baseline="ideographic">ASYNC</tspan></text></g></g></g><g id="g-root-tx_lombok_1d3mved15xs4xs-fill" data-item-order="0" transform="translate(372, 303)"><g id="tx_lombok_1d3mved15xs4xs-fill" stroke="none" fill="#ffffff"><g><text style="font: bold 20px Roboto, sans-serif; white-space: pre;" font-weight="bold" font-size="20px" font-family="Roboto, sans-serif"><tspan x="15.67" y="33.5" dominant-baseline="ideographic">Lombok</tspan></text></g></g></g><g id="g-root-tx__m7cqd115xtjia-fill" data-item-order="0" transform="translate(330, 339)"><g id="tx__m7cqd115xtjia-fill" stroke="none" fill="#ffffff"><g><text style="font: 15px Roboto, sans-serif; white-space: pre;" font-size="15px" font-family="Roboto, sans-serif"><tspan x="13.33" y="27.5" dominant-baseline="ideographic">반복 코드 감소로 개발 시간 </tspan><tspan x="81.03" y="45.5" dominant-baseline="ideographic">절약</tspan></text></g></g></g><g id="g-root-tx__mccfw515xqnsw-fill" data-item-order="0" transform="translate(78.5, 363)"><g id="tx__mccfw515xqnsw-fill" stroke="none" fill="#ffffff"><g><text style="font: 15px Roboto, sans-serif; white-space: pre;" font-size="15px" font-family="Roboto, sans-serif"><tspan x="15.68" y="27.5" dominant-baseline="ideographic">비동기 작업 구현을 통한 </tspan><tspan x="53.7" y="45.5" dominant-baseline="ideographic">효율성 증대</tspan></text></g></g></g><g id="g-root-1.shape-1_fr_8z0i9h15xqqde-stroke" data-item-order="-223544" transform="translate(36.499969482421875, 104.81640625)"><g id="1.shape-1_fr_8z0i9h15xqqde-stroke" fill="none" stroke-linecap="round" stroke-linejoin="round" stroke-miterlimit="4" stroke="#ffffff" stroke-width="2"><g><path d="M 10.000031 160.1836C 10.000031 140.3014 26.117731 124.3209 45.999931 124.3209L 172.000031 124.3209C 213.070031 124.3209 238.000031 94.1909 238.000031 54.8509L 238.000031 28.1909L 233.320031 28.1909C 232.540031 28.1909 232.050031 27.3409 232.440031 26.6609L 243.163131 10.4483C 243.559231 9.8494 244.438731 9.8508 244.833031 10.451L 255.480031 26.6609C 255.880031 27.341 255.390031 28.191 254.600031 28.191L 250.000031 28.191L 250.000031 160.1836M 250.000131 292.183594C 250.000131 312.065794 233.882331 328.191394 214.000131 328.191394L 45.999931 328.191294C 26.117731 328.191294 10.000031 312.081294 10.000031 292.199194L 10.000031 292.183594M 250.000138 292.183594L 250.000138 160.183594M 10.000031 160.183594L 10.000031 292.183594"></path></g></g></g><g id="g-root-2.shape-2_fr_1upaiyd15xqolg-stroke" data-item-order="-223518" transform="translate(288.8775634765625, 104.81640625)"><g id="2.shape-2_fr_1upaiyd15xqolg-stroke" fill="none" stroke-linecap="round" stroke-linejoin="round" stroke-miterlimit="4" stroke="#ffffff" stroke-width="2"><g><path d="M 255.622416 160.1836C 255.622416 140.3014 239.504716 124.3209 219.622616 124.3209L 93.622416 124.3209C 52.552416 124.3209 27.622416 94.1909 27.622416 54.8509L 27.622416 28.1909L 32.302416 28.1909C 33.082416 28.1909 33.572416 27.3409 33.182416 26.6609L 22.459416 10.4483C 22.063216 9.8494 21.183716 9.8508 20.789516 10.451L 10.142416 26.6609C 9.742416 27.341 10.232416 28.191 11.022416 28.191L 15.622416 28.191L 15.622416 160.1836M 15.622437 292.183594C 15.622437 312.065794 31.740137 328.183594 51.622437 328.183594L 219.622637 328.183494C 239.504737 328.183494 255.622437 312.081294 255.622437 292.199194L 255.622437 292.183594M 15.62233 292.183594L 15.62233 160.183594M 255.62233 160.183594L 255.62233 292.183594"></path></g></g></g><g id="g-root-tx__1hdu0l115xqq6e-stroke" data-item-order="0" transform="translate(207, 39)"></g><g id="g-root-cont_90vxit15xqpdt-stroke" data-item-order="0" transform="translate(132.5, 243)"><g id="cont_90vxit15xqpdt-stroke" fill="none" stroke-linecap="round" stroke-linejoin="round" stroke-miterlimit="4" stroke="#ffffff" stroke-width="2"><g><path d="M 11.5 52.099998C 11.5 39.700001 21.5446 29.699961 34 29.699961C 46.455399 29.699961 56.5 39.700001 56.5 52.099998M 34 55.700001C 35.656799 55.700001 37 54.3568 37 52.700001C 37 51.042999 35.656799 49.700001 34 49.700001C 32.343201 49.700001 31 51.042999 31 52.700001C 31 54.3568 32.343201 55.700001 34 55.700001ZM 10 10M 28.300039 37.099998L 32.900002 49.900002M 10 10M 39.700001 37.099998L 38.700001 39.900002M 10 10M 48.400002 44.5L 45.400002 46.299999M 10 10M 19.599979 44.5L 22.599979 46.299999M 10 10M 50.400002 55.5L 47.400002 55.099998M 10 10M 17.599979 55.5L 20.599979 55.099998M 10 10M 19.599979 12.30004L 24.123959 23.729099M 10 10M 18 21.90004L 24 23.90004L 27.20002 18.300041"></path></g></g></g><g id="g-root-edit_1hbc7ed15xthqc-stroke" data-item-order="0" transform="translate(390.5, 243)"><g id="edit_1hbc7ed15xthqc-stroke" fill="none" stroke-linecap="round" stroke-linejoin="round" stroke-miterlimit="4" stroke="#ffffff" stroke-width="2"><g><path d="M 55.799999 40.246002L 40.540001 55.507999L 33.040001 57.007999L 34.540001 49.507999L 49.799999 34.246002C 51.451904 32.594166 54.130096 32.594166 55.782001 34.246002L 55.799999 34.264C 57.451836 35.915905 57.451836 38.594097 55.800003 40.246002ZM 27.032 57L 13.032 57C 11.92743 57 11.032 56.104568 11.032 55L 11.032 13C 11.032 11.895431 11.92743 11 13.032 11L 39.618 11C 40.150406 11.003817 40.659317 11.219762 41.031998 11.6L 48.445999 19C 48.821098 19.374985 49.031887 19.88361 49.032001 20.414L 49.032001 27M 17.032 21.007999L 17.032 29.007999M 35.031998 21.007999L 35.031998 29.007999M 29.032 35.007999L 29.032 43.007999M 41.031998 21.007999L 41.031998 29.007999M 26.032 21C 27.688854 21 29.032001 22.343147 29.032001 24L 29.032 26C 29.032 27.656855 27.688854 29 26.032 29C 24.375145 29 23.032001 27.656855 23.032001 26L 23.032 24C 23.032001 22.343147 24.375145 21 26.032 21ZM 20.032 35C 21.688854 35 23.032001 36.343147 23.032001 38L 23.032 40C 23.032001 41.656853 21.688854 43 20.032001 43C 18.375145 43 17.032 41.656853 17.032 40L 17.032 38C 17.032 36.343147 18.375145 35 20.032001 35Z"></path></g></g></g><g id="g-root-tx_springfr_142zzat15xqolj-stroke" data-item-order="0" transform="translate(72.5, 303)"></g><g id="g-root-tx_lombok_1d3mved15xs4xs-stroke" data-item-order="0" transform="translate(372, 303)"></g><g id="g-root-tx__m7cqd115xtjia-stroke" data-item-order="0" transform="translate(330, 339)"></g><g id="g-root-tx__mccfw515xqnsw-stroke" data-item-order="0" transform="translate(78.5, 363)"></g></g></g></svg>