<?xml version="1.0" encoding="utf-8" standalone="yes"?>
<!DOCTYPE svg PUBLIC "-//W3C//DTD SVG 1.1//EN" "http://www.w3.org/Graphics/SVG/1.1/DTD/svg11.dtd">
<svg width="728" height="410" viewBox="0 0 728 410" style="fill:none;stroke:none;fill-rule:evenodd;clip-rule:evenodd;stroke-linecap:round;stroke-linejoin:round;stroke-miterlimit:1.5;" version="1.1" xmlns="http://www.w3.org/2000/svg" xmlns:xlink="http://www.w3.org/1999/xlink"><style class="text-font-style fontImports" data-font-family="Roboto">@import url('https://fonts.googleapis.com/css2?family=Roboto:wght@400;700&amp;display=block');</style><g id="items" style="isolation: isolate"><g id="blend" style="mix-blend-mode: normal"><g id="g-root-1.bubble-1_fr_1umssxv11hzz7u-fill" data-item-order="-136790" transform="translate(149.66665649414062, 87)"><g id="1.bubble-1_fr_1umssxv11hzz7u-fill" stroke="none" fill="#e0cb15"><g><path d="M 34 22C 27.3726 22 22 27.3726 22 34L 10 34C 10 20.7452 20.7452 10 34 10L 34 22ZM 178 22L 178 10L 34 10.000001L 34.000003 22L 178 22ZM 178.000003 10C 191.2548 10 202 20.7452 202 34L 190 34C 190 27.3726 184.6274 22 178 22L 178.000003 10ZM 202 34L 202 118L 190 118L 190 34L 202 34ZM 10.000004 118L 10 34.00001L 22 34.00001L 22 118L 10.000004 118ZM 22 118C 22 124.6274 27.3726 130 34 130L 34 142L 10 142L 10 118L 22 118ZM 190 118C 190 124.6274 184.6274 130 178 130L 178 142L 202 142L 202 118L 190 118ZM 94 130L 34 130L 34 142L 178 142L 178 130L 118 130L 108.8284 139.1716C 107.2663 140.7337 104.7337 140.7337 103.1716 139.1716L 94 130Z"></path></g></g></g><g id="g-root-1.bubble-1_1_fr_1hbcakj11i00ss-fill" data-item-order="-136740" transform="translate(149.66665649414062, 219)"><g id="1.bubble-1_1_fr_1hbcakj11i00ss-fill" stroke="none" fill="#e0cb15"><g><path d="M 202 10.000005L 202 58L 10 58L 10.000004 10L 202 10.000005ZM 34 82C 20.7452 82 9.999999 71.2548 10 58L 34 58.000002L 34 82ZM 202 58L 178 58L 178 82C 191.2548 82 202 71.2548 202 58ZM 34 82L 34 58L 178 58L 178 82L 34 82Z"></path></g></g></g><g id="g-root-2.bubble-2_fr_zkor5v11i0006-fill" data-item-order="-136714" transform="translate(365.6666564941406, 87)"><g id="2.bubble-2_fr_zkor5v11i0006-fill" stroke="none" fill="#92bd39"><g><path d="M 34 22C 27.3726 22 22 27.3726 22 34L 10 34C 10 20.7452 20.7452 10 34 10L 34 22ZM 178 22L 178 10L 34 10.000001L 34.000003 22L 178 22ZM 178.000003 10C 191.2548 10 202 20.7452 202 34L 190 34C 190 27.3726 184.6274 22 178 22L 178.000003 10ZM 202 34L 202 118L 190 118L 190 34L 202 34ZM 10.000004 118L 10 34.00001L 22 34.00001L 22 118L 10.000004 118ZM 22 118C 22 124.6274 27.3726 130 34 130L 34 142L 10 142L 10 118L 22 118ZM 190 118C 190 124.6274 184.6274 130 178 130L 178 142L 202 142L 202 118L 190 118ZM 94 130L 34 130L 34 142L 178 142L 178 130L 118 130L 108.8284 139.1716C 107.2663 140.7337 104.7337 140.7337 103.1716 139.1716L 94 130Z"></path></g></g></g><g id="g-root-2.bubble-2_1_fr_v4v91f11i00sg-fill" data-item-order="-136662" transform="translate(365.6666564941406, 219)"><g id="2.bubble-2_1_fr_v4v91f11i00sg-fill" stroke="none" fill="#92bd39"><g><path d="M 202 10.000005L 202 58L 10 58L 10.000004 10L 202 10.000005ZM 34 82C 20.7452 82 9.999999 71.2548 10 58L 34 58.000002L 34 82ZM 202 58L 178 58L 178 82C 191.2548 82 202 71.2548 202 58ZM 34 82L 34 58L 178 58L 178 82L 34 82Z"></path></g></g></g><g id="g-root-tx_database_hu17r711hzz7m-fill" data-item-order="0" transform="translate(191.66665649414062, 15)"><g id="tx_database_hu17r711hzz7m-fill" stroke="none" fill="#484848"><g><text style="font: bold 20px Roboto, sans-serif; white-space: pre;" font-weight="bold" font-size="20px" font-family="Roboto, sans-serif"><tspan x="14.98" y="33.5" dominant-baseline="ideographic">Database and Mobile Technologies</tspan></text></g></g></g><g id="g-root-2_1uo1r4311i01e3-fill" data-item-order="0" transform="translate(221.66665649414062, 111)"></g><g id="g-root-code_1cuwhoj11hrl72-fill" data-item-order="0" transform="translate(437.6666564941406, 111)"></g><g id="g-root-tx_database_1usf91f11hq70h-fill" data-item-order="0" transform="translate(197.66665649414062, 171)"><g id="tx_database_1usf91f11hq70h-fill" stroke="none" fill="#e0cb15"><g><text style="font: bold 20px Roboto, sans-serif; white-space: pre;" font-weight="bold" font-size="20px" font-family="Roboto, sans-serif"><tspan x="15.89" y="33.5" dominant-baseline="ideographic">Database</tspan></text></g></g></g><g id="g-root-tx_mobilela_1qf3n9f11hymte-fill" data-item-order="0" transform="translate(425.6666564941406, 171)"><g id="tx_mobilela_1qf3n9f11hymte-fill" stroke="none" fill="#92bd39"><g><text style="font: bold 20px Roboto, sans-serif; white-space: pre;" font-weight="bold" font-size="20px" font-family="Roboto, sans-serif"><tspan x="15.28" y="33.5" dominant-baseline="ideographic">Mobile</tspan></text></g></g></g><g id="g-root-tx_differen_4g2zcz11hrle4-fill" data-item-order="0" transform="translate(215.66665649414062, 231)"><g id="tx_differen_4g2zcz11hrle4-fill" stroke="none" fill="#ffffff"><g><text style="font: 15px Roboto, sans-serif; white-space: pre;" font-size="15px" font-family="Roboto, sans-serif"><tspan x="16.97" y="27.5" dominant-baseline="ideographic">Ms-Sql</tspan><tspan x="17.29" y="45.5" dominant-baseline="ideographic">My-Sql</tspan></text></g></g></g><g id="g-root-tx_programm_v4vfcz11i1ekt-fill" data-item-order="0" transform="translate(431.6666564941406, 231)"><g id="tx_programm_v4vfcz11i1ekt-fill" stroke="none" fill="#ffffff"><g><text style="font: 15px Roboto, sans-serif; white-space: pre;" font-size="15px" font-family="Roboto, sans-serif"><tspan x="14.26" y="27.5" dominant-baseline="ideographic">Swift UI</tspan></text></g></g></g><g id="g-root-1.bubble-1_fr_1umssxv11hzz7u-stroke" data-item-order="-136790" transform="translate(149.66665649414062, 87)"><g id="1.bubble-1_fr_1umssxv11hzz7u-stroke" fill="none" stroke-linecap="round" stroke-linejoin="round" stroke-miterlimit="4" stroke="#ffffff" stroke-width="2"><g><path d="M 10 34C 10 20.7452 20.7452 10 34 10M 178 10L 34 10M 202 34C 202 20.7452 191.2548 10 178 10M 202 142L 202 34M 10 142L 10 34M 22 34C 22 27.3726 27.3726 22 34 22M 178 22L 34 22M 190 34C 190 27.3726 184.6274 22 178 22M 190 117.9998L 190 34M 178 130C 184.6274 130 190 124.6274 190 118M 34 130L 94 130L 103.1716 139.1716C 104.7337 140.7337 107.2663 140.7337 108.8284 139.1716L 118 130L 178 130M 34 130C 27.3726 130 22 124.6274 22 118M 22 117.9998L 22 34"></path></g></g></g><g id="g-root-1.bubble-1_1_fr_1hbcakj11i00ss-stroke" data-item-order="-136740" transform="translate(149.66665649414062, 219)"><g id="1.bubble-1_1_fr_1hbcakj11i00ss-stroke" fill="none" stroke-linecap="round" stroke-linejoin="round" stroke-miterlimit="4" stroke="#ffffff" stroke-width="2"><g><path d="M 202 58L 202 10M 178 82C 191.2548 82 202 71.2548 202 58M 34 82L 178 82M 34 82C 20.7452 82 10 71.2548 10 58M 10 58L 10 10"></path></g></g></g><g id="g-root-2.bubble-2_fr_zkor5v11i0006-stroke" data-item-order="-136714" transform="translate(365.6666564941406, 87)"><g id="2.bubble-2_fr_zkor5v11i0006-stroke" fill="none" stroke-linecap="round" stroke-linejoin="round" stroke-miterlimit="4" stroke="#ffffff" stroke-width="2"><g><path d="M 10 34C 10 20.7452 20.7452 10 34 10M 178 10L 34 10M 202 34C 202 20.7452 191.2548 10 178 10M 202 142L 202 34M 10 142L 10 34M 22 34C 22 27.3726 27.3726 22 34 22M 178 22L 34 22M 190 34C 190 27.3726 184.6274 22 178 22M 190 117.9998L 190 34M 178 130C 184.6274 130 190 124.6274 190 118M 34 130L 94 130L 103.1716 139.1716C 104.7337 140.7337 107.2663 140.7337 108.8284 139.1716L 118 130L 178 130M 34 130C 27.3726 130 22 124.6274 22 118M 22 117.9998L 22 34"></path></g></g></g><g id="g-root-2.bubble-2_1_fr_v4v91f11i00sg-stroke" data-item-order="-136662" transform="translate(365.6666564941406, 219)"><g id="2.bubble-2_1_fr_v4v91f11i00sg-stroke" fill="none" stroke-linecap="round" stroke-linejoin="round" stroke-miterlimit="4" stroke="#ffffff" stroke-width="2"><g><path d="M 202 58L 202 10M 178 82C 191.2548 82 202 71.2548 202 58M 34 82L 178 82M 34 82C 20.7452 82 10 71.2548 10 58M 10 58L 10 10"></path></g></g></g><g id="g-root-tx_database_hu17r711hzz7m-stroke" data-item-order="0" transform="translate(191.66665649414062, 15)"></g><g id="g-root-2_1uo1r4311i01e3-stroke" data-item-order="0" transform="translate(221.66665649414062, 111)"><g id="2_1uo1r4311i01e3-stroke" fill="none" stroke-linecap="round" stroke-linejoin="round" stroke-miterlimit="4" stroke="#e0cb15" stroke-width="2"><g><path d="M 15.002 21.001999C 15.002001 25.420277 23.508591 29.002001 34.001999 29.002001C 44.495411 29.002001 53.001999 25.420277 53.001999 21.001999C 53.001999 16.583721 44.495411 13.002 34.001999 13.002C 23.508591 13.002 15.002001 16.583721 15.002001 21.001999ZM 53 29C 53 33.419998 44.492001 37 34 37C 23.507999 37 15 33.419998 15 29M 53 38C 53 42.419998 44.492001 46 34 46C 23.507999 46 15 42.419998 15 38M 15 21L 15 47C 15 51.419998 23.507999 55 34 55C 44.492001 55 53 51.419998 53 47L 53 21"></path></g></g></g><g id="g-root-code_1cuwhoj11hrl72-stroke" data-item-order="0" transform="translate(437.6666564941406, 111)"><g id="code_1cuwhoj11hrl72-stroke" fill="none" stroke-linecap="round" stroke-linejoin="round" stroke-miterlimit="4" stroke="#92bd39" stroke-width="2"><g><path d="M 31 30L 27 34L 31 38M 37 30L 41 34L 37 38M 34 52.5L 34 52.5C 34.276142 52.5 34.5 52.723858 34.5 53L 34.5 53C 34.5 53.276142 34.276142 53.5 34 53.5L 34 53.5C 33.723858 53.5 33.5 53.276142 33.5 53L 33.5 53C 33.5 52.723858 33.723858 52.5 34 52.5M 25 11L 43 11C 43 11 47 11 47 15L 47 53C 47 53 47 57 43 57L 25 57C 25 57 21 57 21 53L 21 15C 21 15 21 11 25 11M 47 49L 21 49M 47 19L 21 19M 31 15L 37 15"></path></g></g></g><g id="g-root-tx_database_1usf91f11hq70h-stroke" data-item-order="0" transform="translate(197.66665649414062, 171)"></g><g id="g-root-tx_mobilela_1qf3n9f11hymte-stroke" data-item-order="0" transform="translate(425.6666564941406, 171)"></g><g id="g-root-tx_differen_4g2zcz11hrle4-stroke" data-item-order="0" transform="translate(215.66665649414062, 231)"></g><g id="g-root-tx_programm_v4vfcz11i1ekt-stroke" data-item-order="0" transform="translate(431.6666564941406, 231)"></g></g></g></svg>