<?xml version="1.0" encoding="utf-8" standalone="yes"?>
<!DOCTYPE svg PUBLIC "-//W3C//DTD SVG 1.1//EN" "http://www.w3.org/Graphics/SVG/1.1/DTD/svg11.dtd">
<svg width="710" height="739" viewBox="0 0 710 739" style="fill:none;stroke:none;fill-rule:evenodd;clip-rule:evenodd;stroke-linecap:round;stroke-linejoin:round;stroke-miterlimit:1.5;" version="1.1" xmlns="http://www.w3.org/2000/svg" xmlns:xlink="http://www.w3.org/1999/xlink"><style class="text-font-style fontImports" data-font-family="Roboto">@import url('https://fonts.googleapis.com/css2?family=Roboto:wght@400;700&amp;display=block');</style><g id="items" style="isolation: isolate"><g id="blend" style="mix-blend-mode: normal"><g id="g-root-1.g-1_fr_18f2mv611rtzwh-fill" data-item-order="-225026" transform="translate(363, 202.625)"><g id="1.g-1_fr_18f2mv611rtzwh-fill" stroke="none" fill="#4e88e7"><g><path d="M 58 70L 10 70L 10 130L 58 130L 58 70ZM 106 10L 136 46L 106 82L 106 70L 10 70L 58 22L 106 22L 106 10Z"></path></g></g></g><g id="g-root-2.g-2_fr_zjfmma11ru0p7-fill" data-item-order="-225022" transform="translate(213, 136.625)"><g id="2.g-2_fr_zjfmma11ru0p7-fill" stroke="none" fill="#3cc583"><g><path d="M 100 70L 148 70L 148 196L 100 196L 100 70ZM 40 10L 10 46L 40 82L 40 70L 148 70L 100 22L 40 22L 40 10Z"></path></g></g></g><g id="g-root-1.g-1_fr_vbq4ci13fq5mx-fill" data-item-order="-208610" transform="translate(363, 585)"><g id="1.g-1_fr_vbq4ci13fq5mx-fill" stroke="none" fill="#4e88e7"><g><path d="M 58 70L 10 70L 10 130L 58 130L 58 70ZM 106 10L 136 46L 106 82L 106 70L 10 70L 58 22L 106 22L 106 10Z"></path></g></g></g><g id="g-root-2.g-2_fr_vbq4ci13fq5mv-fill" data-item-order="-208606" transform="translate(213, 519)"><g id="2.g-2_fr_vbq4ci13fq5mv-fill" stroke="none" fill="#3cc583"><g><path d="M 100 70L 148 70L 148 196L 100 196L 100 70ZM 40 10L 10 46L 40 82L 40 70L 148 70L 100 22L 40 22L 40 10Z"></path></g></g></g><g id="g-root-tx_whichbac_m8llc211rtz4d-fill" data-item-order="0" transform="translate(159, 16.625)"><g id="tx_whichbac_m8llc211rtz4d-fill" stroke="none" fill="#484848"><g><text style="font: 20px Roboto, sans-serif; white-space: pre;" font-size="20px" font-family="Roboto, sans-serif"><tspan x="16.09" y="33.5" dominant-baseline="ideographic">My Back End Development Technologies</tspan></text></g></g></g><g id="g-root-tx_javaspri_4hy1xe11rtybq-fill" data-item-order="0" transform="translate(27, 106.625)"><g id="tx_javaspri_4hy1xe11rtybq-fill" stroke="none" fill="#3cc583"><g><text style="font: bold 20px Roboto, sans-serif; white-space: pre;" font-weight="bold" font-size="20px" font-family="Roboto, sans-serif"><tspan x="30.53" y="33.5" dominant-baseline="ideographic">C# - ASP.NET</tspan></text></g></g></g><g id="g-root-tx_idealfor_1q7llj611rtzpj-fill" data-item-order="0" transform="translate(27, 142.625)"><g id="tx_idealfor_1q7llj611rtzpj-fill" stroke="none" fill="#374840"><g><text style="font: 15px Roboto, sans-serif; white-space: pre;" font-size="15px" font-family="Roboto, sans-serif"><tspan x="29.02" y="30.5" dominant-baseline="ideographic">개발 능력: ⭐️⭐️⭐️⭐️</tspan><tspan x="52.47" y="48.5" dominant-baseline="ideographic">Window Server</tspan><tspan x="134.93" y="66.5" dominant-baseline="ideographic">IIS</tspan><tspan x="105.94" y="84.5" dominant-baseline="ideographic">Ms-Sql</tspan><tspan x="106.66" y="102.5" dominant-baseline="ideographic">Jquery</tspan></text></g></g></g><g id="g-root-tx_caspnet_zlb1vm11rtzpk-fill" data-item-order="0" transform="translate(519, 160.625)"><g id="tx_caspnet_zlb1vm11rtzpk-fill" stroke="none" fill="#4e88e7"><g><text style="font: bold 20px Roboto, sans-serif; white-space: pre;" font-weight="bold" font-size="20px" font-family="Roboto, sans-serif"><tspan x="12" y="33.5" dominant-baseline="ideographic">         JAVA - </tspan><tspan x="12" y="57.5" dominant-baseline="ideographic">Spring Boot</tspan></text></g></g></g><g id="g-root-tx_suitable_mah0le11rty4p-fill" data-item-order="0" transform="translate(519, 220.625)"><g id="tx_suitable_mah0le11rty4p-fill" stroke="none" fill="#3a4455"><g><text style="font: 15px Roboto, sans-serif; white-space: pre;" font-size="15px" font-family="Roboto, sans-serif"><tspan x="12" y="30.5" dominant-baseline="ideographic">개발 능력: ⭐️⭐️</tspan><tspan x="12" y="48.5" dominant-baseline="ideographic">Ubutu Server</tspan><tspan x="12" y="66.5" dominant-baseline="ideographic">Nginx</tspan><tspan x="12" y="84.5" dominant-baseline="ideographic">My-Sql</tspan><tspan x="12" y="102.5" dominant-baseline="ideographic">React</tspan></text></g></g></g><g id="g-root-tx_whichbac_vbq4ci13fq5ms-fill" data-item-order="0" transform="translate(159, 423)"><g id="tx_whichbac_vbq4ci13fq5ms-fill" stroke="none" fill="#484848"><g><text style="font: 20px Roboto, sans-serif; white-space: pre;" font-size="20px" font-family="Roboto, sans-serif"><tspan x="14.88" y="33.5" dominant-baseline="ideographic">My Front End Development Technologies</tspan></text></g></g></g><g id="g-root-tx_javaspri_vbq4ci13fq5mt-fill" data-item-order="0" transform="translate(27, 513)"><g id="tx_javaspri_vbq4ci13fq5mt-fill" stroke="none" fill="#3cc583"><g><text style="font: bold 20px Roboto, sans-serif; white-space: pre;" font-weight="bold" font-size="20px" font-family="Roboto, sans-serif"><tspan x="43.36" y="33.5" dominant-baseline="ideographic">JavaScript - </tspan><tspan x="89.97" y="57.5" dominant-baseline="ideographic">Jquery</tspan></text></g></g></g><g id="g-root-tx_idealfor_vbq4ci13fq5mu-fill" data-item-order="0" transform="translate(27, 573)"><g id="tx_idealfor_vbq4ci13fq5mu-fill" stroke="none" fill="#374840"><g><text style="font: 15px Roboto, sans-serif; white-space: pre;" font-size="15px" font-family="Roboto, sans-serif"><tspan x="29.02" y="30.5" dominant-baseline="ideographic">개발 능력: ⭐️⭐️⭐️⭐️</tspan></text></g></g></g><g id="g-root-tx_caspnet_vbq4ci13fq5mw-fill" data-item-order="0" transform="translate(519, 579)"><g id="tx_caspnet_vbq4ci13fq5mw-fill" stroke="none" fill="#4e88e7"><g><text style="font: bold 20px Roboto, sans-serif; white-space: pre;" font-weight="bold" font-size="20px" font-family="Roboto, sans-serif"><tspan x="12" y="33.5" dominant-baseline="ideographic">          React - </tspan><tspan x="12" y="57.5" dominant-baseline="ideographic">    TypeScript</tspan></text></g></g></g><g id="g-root-tx_suitable_vbq4ci13fq5my-fill" data-item-order="0" transform="translate(519, 639)"><g id="tx_suitable_vbq4ci13fq5my-fill" stroke="none" fill="#3a4455"><g><text style="font: 15px Roboto, sans-serif; white-space: pre;" font-size="15px" font-family="Roboto, sans-serif"><tspan x="12" y="30.5" dominant-baseline="ideographic">개발 능력: ⭐️⭐️</tspan></text></g></g></g><g id="g-root-1.g-1_fr_18f2mv611rtzwh-stroke" data-item-order="-225026" transform="translate(363, 202.625)"><g id="1.g-1_fr_18f2mv611rtzwh-stroke" fill="none" stroke-linecap="round" stroke-linejoin="round" stroke-miterlimit="4" stroke="#ffffff" stroke-width="2"><g><path d="M 58 70L 10 70L 10 130L 58 130L 58 70ZM 106 10L 136 46L 106 82L 106 70L 10 70L 58 22L 106 22L 106 10Z"></path></g></g></g><g id="g-root-2.g-2_fr_zjfmma11ru0p7-stroke" data-item-order="-225022" transform="translate(213, 136.625)"><g id="2.g-2_fr_zjfmma11ru0p7-stroke" fill="none" stroke-linecap="round" stroke-linejoin="round" stroke-miterlimit="4" stroke="#ffffff" stroke-width="2"><g><path d="M 100 70L 148 70L 148 196L 100 196L 100 70ZM 40 10L 10 46L 40 82L 40 70L 148 70L 100 22L 40 22L 40 10Z"></path></g></g></g><g id="g-root-1.g-1_fr_vbq4ci13fq5mx-stroke" data-item-order="-208610" transform="translate(363, 585)"><g id="1.g-1_fr_vbq4ci13fq5mx-stroke" fill="none" stroke-linecap="round" stroke-linejoin="round" stroke-miterlimit="4" stroke="#ffffff" stroke-width="2"><g><path d="M 58 70L 10 70L 10 130L 58 130L 58 70ZM 106 10L 136 46L 106 82L 106 70L 10 70L 58 22L 106 22L 106 10Z"></path></g></g></g><g id="g-root-2.g-2_fr_vbq4ci13fq5mv-stroke" data-item-order="-208606" transform="translate(213, 519)"><g id="2.g-2_fr_vbq4ci13fq5mv-stroke" fill="none" stroke-linecap="round" stroke-linejoin="round" stroke-miterlimit="4" stroke="#ffffff" stroke-width="2"><g><path d="M 100 70L 148 70L 148 196L 100 196L 100 70ZM 40 10L 10 46L 40 82L 40 70L 148 70L 100 22L 40 22L 40 10Z"></path></g></g></g><g id="g-root-tx_whichbac_m8llc211rtz4d-stroke" data-item-order="0" transform="translate(159, 16.625)"></g><g id="g-root-tx_javaspri_4hy1xe11rtybq-stroke" data-item-order="0" transform="translate(27, 106.625)"></g><g id="g-root-tx_idealfor_1q7llj611rtzpj-stroke" data-item-order="0" transform="translate(27, 142.625)"></g><g id="g-root-tx_caspnet_zlb1vm11rtzpk-stroke" data-item-order="0" transform="translate(519, 160.625)"></g><g id="g-root-tx_suitable_mah0le11rty4p-stroke" data-item-order="0" transform="translate(519, 220.625)"></g><g id="g-root-tx_whichbac_vbq4ci13fq5ms-stroke" data-item-order="0" transform="translate(159, 423)"></g><g id="g-root-tx_javaspri_vbq4ci13fq5mt-stroke" data-item-order="0" transform="translate(27, 513)"></g><g id="g-root-tx_idealfor_vbq4ci13fq5mu-stroke" data-item-order="0" transform="translate(27, 573)"></g><g id="g-root-tx_caspnet_vbq4ci13fq5mw-stroke" data-item-order="0" transform="translate(519, 579)"></g><g id="g-root-tx_suitable_vbq4ci13fq5my-stroke" data-item-order="0" transform="translate(519, 639)"></g></g></g></svg>