<?xml version="1.0" encoding="utf-8" standalone="yes"?>
<!DOCTYPE svg PUBLIC "-//W3C//DTD SVG 1.1//EN" "http://www.w3.org/Graphics/SVG/1.1/DTD/svg11.dtd">
<svg width="813" height="458" viewBox="0 0 813 458" style="fill:none;stroke:none;fill-rule:evenodd;clip-rule:evenodd;stroke-linecap:round;stroke-linejoin:round;stroke-miterlimit:1.5;" version="1.1" xmlns="http://www.w3.org/2000/svg" xmlns:xlink="http://www.w3.org/1999/xlink"><style class="text-font-style fontImports" data-font-family="Roboto">@import url('https://fonts.googleapis.com/css2?family=Roboto:wght@400;700&amp;display=block');</style><g id="items" style="isolation: isolate"><g id="blend" style="mix-blend-mode: normal"><g id="g-root-2.g-2_fr_18lbtmq12lrc3o-fill" data-item-order="-156662" transform="translate(366.4943542480469, 194)"><g id="2.g-2_fr_18lbtmq12lrc3o-fill" stroke="none" fill="#e8f9ff"><g><path d="M 21.8788 122.969C 11.7859 118.481 7.2423 106.6605 11.7303 96.5677L 34.0916 46.2804C 34.4231 47.0362 34.7429 47.764 35.0509 48.4568L 48.8909 79.581L 43.3781 91.9785C 41.1341 97.0249 43.4059 102.9349 48.4523 105.1789L 166.136 157.509C 170.668 159.525 175.898 157.897 178.541 153.888L 193.418 120.766L 198.69 108.9106C 200.932 103.8694 199.1 97.7737 194.065 95.5245C 193.918 95.4503 193.768 95.3794 193.616 95.3117L 161.813 81.1701C 161.712 81.2572 161.611 81.3453 161.511 81.4343L 75.9326 43.3799C 71.564 41.4373 66.5481 42.8789 63.8237 46.5751L 52.8423 21.8795C 51.8508 19.6498 50.5015 17.6909 48.8919 16.0404C 54.5678 10.2193 63.4798 8.2337 71.3432 11.7303L 220.191 77.9185C 230.284 82.4065 234.827 94.2266 230.339 104.3195L 208.284 153.92C 208.284 153.92 194.633 183.313 193.381 184.635C 187.716 190.619 178.685 192.696 170.727 189.157L 21.8788 122.969Z"></path></g></g></g><g id="g-root-1.g-1_fr_zpotdu12lrcwe-fill" data-item-order="-156658" transform="translate(222.72933959960938, 194.55517578125)"><g id="1.g-1_fr_zpotdu12lrcwe-fill" stroke="none" fill="#e3fff2"><g><path d="M 11.7303 104.3195C 7.2423 94.2266 11.7859 82.4065 21.8788 77.9186L 170.727 11.7303C 180.819 7.2423 192.639 11.7859 197.127 21.8788L 230.339 96.5677C 233.973 104.7383 231.687 114.041 225.33 119.669L 193.182 105.3738L 193.616 105.1809C 198.662 102.9369 200.934 97.0269 198.69 91.9805L 179.336 48.4561C 177.092 43.4097 171.182 41.1378 166.136 43.3818L 48.4524 95.7121C 43.4059 97.9561 41.1341 103.8662 43.3781 108.9126L 62.7321 152.437C 64.9761 157.483 70.8862 159.755 75.9326 157.511L 161.03 119.671C 162.525 120.993 164.244 122.112 166.164 122.966L 193.181 134.979L 71.3432 189.157C 61.2504 193.645 49.4303 189.101 44.9423 179.008L 11.7303 104.3195Z"></path></g></g></g><g id="g-root-tx_database_7r9he12lregx-fill" data-item-order="0" transform="translate(240.33334350585938, 63)"><g id="tx_database_7r9he12lregx-fill" stroke="none" fill="#3cc583"><g><text style="font: bold 20px Roboto, sans-serif; white-space: pre;" font-weight="bold" font-size="20px" font-family="Roboto, sans-serif"><tspan x="39.13" y="33.5" dominant-baseline="ideographic">DataBase</tspan></text></g></g></g><g id="g-root-tx_mobile_i0a85e12lre9v-fill" data-item-order="0" transform="translate(408.3333435058594, 63)"><g id="tx_mobile_i0a85e12lre9v-fill" stroke="none" fill="#1eabda"><g><text style="font: bold 20px Roboto, sans-serif; white-space: pre;" font-weight="bold" font-size="20px" font-family="Roboto, sans-serif"><tspan x="51.28" y="33.5" dominant-baseline="ideographic">Mobile</tspan></text></g></g></g><g id="g-root-tx_proficie_1d2e9xe12lrdhm-fill" data-item-order="0" transform="translate(240.33334350585938, 99)"><g id="tx_proficie_1d2e9xe12lrdhm-fill" stroke="none" fill="#484848"><g><text style="font: 15px Roboto, sans-serif; white-space: pre;" font-size="15px" font-family="Roboto, sans-serif"><tspan x="59.18" y="27.5" dominant-baseline="ideographic">Ms Sql</tspan><tspan x="59.5" y="45.5" dominant-baseline="ideographic">My Sql</tspan></text></g></g></g><g id="g-root-tx_experien_1uux8le12lrdak-fill" data-item-order="0" transform="translate(408.3333435058594, 99)"><g id="tx_experien_1uux8le12lrdak-fill" stroke="none" fill="#484848"><g><text style="font: 15px Roboto, sans-serif; white-space: pre;" font-size="15px" font-family="Roboto, sans-serif"><tspan x="58.87" y="27.5" dominant-baseline="ideographic">Swit UI</tspan></text></g></g></g><g id="g-root-2.g-2_fr_18lbtmq12lrc3o-stroke" data-item-order="-156662" transform="translate(366.4943542480469, 194)"><g id="2.g-2_fr_18lbtmq12lrc3o-stroke" fill="none" stroke-linecap="round" stroke-linejoin="round" stroke-miterlimit="4" stroke="#1eabda" stroke-width="2"><g><path d="M 21.8788 122.9686C 11.7859 118.4806 7.2423 106.6605 11.7303 96.5677L 34.0916 46.2804C 34.4231 47.0362 34.7429 47.764 35.0509 48.4568L 48.8909 79.581L 43.3781 91.9785C 41.1341 97.0249 43.4059 102.9349 48.4523 105.1789L 166.1356 157.5092C 170.6682 159.5248 175.8976 157.8972 178.5414 153.8882L 193.4184 120.7659L 198.6901 108.9106C 200.9318 103.8694 199.1 97.7737 194.0645 95.5245C 193.9175 95.4503 193.7679 95.3794 193.6158 95.3117L 161.8133 81.1701C 161.7117 81.2572 161.6111 81.3453 161.5115 81.4343L 75.9326 43.3799C 71.564 41.4373 66.5481 42.8789 63.8237 46.5751L 52.8423 21.8795C 51.8508 19.6498 50.5015 17.6909 48.8919 16.0404C 54.5678 10.2193 63.4798 8.2337 71.3432 11.7303L 220.191 77.9185C 230.2838 82.4065 234.8274 94.2266 230.3394 104.3195L 208.2836 153.92C 208.2836 153.92 194.633 183.3127 193.3811 184.6351C 187.7164 190.6193 178.6845 192.6955 170.7265 189.1569L 21.8788 122.9686Z"></path></g></g></g><g id="g-root-1.g-1_fr_zpotdu12lrcwe-stroke" data-item-order="-156658" transform="translate(222.72933959960938, 194.55517578125)"><g id="1.g-1_fr_zpotdu12lrcwe-stroke" fill="none" stroke-linecap="round" stroke-linejoin="round" stroke-miterlimit="4" stroke="#3cc583" stroke-width="2"><g><path d="M 11.7303 104.3195C 7.2423 94.2266 11.7859 82.4065 21.8788 77.9186L 170.7266 11.7303C 180.8194 7.2423 192.6395 11.7859 197.1275 21.8788L 230.3394 96.5677C 233.9727 104.7383 231.6869 114.0409 225.3298 119.669L 193.182 105.3738L 193.6158 105.1809C 198.6622 102.9369 200.9341 97.0269 198.6901 91.9805L 179.3361 48.4561C 177.0921 43.4097 171.182 41.1378 166.1356 43.3818L 48.4524 95.7121C 43.4059 97.9561 41.1341 103.8662 43.3781 108.9126L 62.7321 152.437C 64.9761 157.4834 70.8862 159.7552 75.9326 157.5112L 161.0303 119.6707C 162.5248 120.993 164.2442 122.1122 166.1644 122.9661L 193.1805 134.9794L 71.3432 189.1569C 61.2504 193.6449 49.4303 189.1012 44.9423 179.0084L 11.7303 104.3195Z"></path></g></g></g><g id="g-root-tx_database_7r9he12lregx-stroke" data-item-order="0" transform="translate(240.33334350585938, 63)"></g><g id="g-root-tx_mobile_i0a85e12lre9v-stroke" data-item-order="0" transform="translate(408.3333435058594, 63)"></g><g id="g-root-tx_proficie_1d2e9xe12lrdhm-stroke" data-item-order="0" transform="translate(240.33334350585938, 99)"></g><g id="g-root-tx_experien_1uux8le12lrdak-stroke" data-item-order="0" transform="translate(408.3333435058594, 99)"></g></g></g></svg>