<?xml version="1.0" encoding="utf-8" standalone="yes"?>
<!DOCTYPE svg PUBLIC "-//W3C//DTD SVG 1.1//EN" "http://www.w3.org/Graphics/SVG/1.1/DTD/svg11.dtd">
<svg width="710" height="401" viewBox="0 0 710 401" style="fill:none;stroke:none;fill-rule:evenodd;clip-rule:evenodd;stroke-linecap:round;stroke-linejoin:round;stroke-miterlimit:1.5;" version="1.1" xmlns="http://www.w3.org/2000/svg" xmlns:xlink="http://www.w3.org/1999/xlink"><style class="text-font-style fontImports" data-font-family="Roboto">@import url('https://fonts.googleapis.com/css2?family=Roboto:wght@400;700&amp;display=block');</style><g id="items" style="isolation: isolate"><g id="blend" style="mix-blend-mode: normal"><g id="g-root-1.g-1_fr_1hf3eir11i6znz-fill" data-item-order="-225026" transform="translate(363, 202.625)"><g id="1.g-1_fr_1hf3eir11i6znz-fill" stroke="none" fill="#edf4ff"><g><path d="M 58 70L 10 70L 10 130L 58 130L 58 70ZM 106 10L 136 46L 106 82L 106 70L 10 70L 58 22L 106 22L 106 10Z"></path></g></g></g><g id="g-root-2.g-2_fr_1cz9web11i70g9-fill" data-item-order="-225022" transform="translate(213, 136.625)"><g id="2.g-2_fr_1cz9web11i70g9-fill" stroke="none" fill="#e3fff2"><g><path d="M 100 70L 148 70L 148 196L 100 196L 100 70ZM 40 10L 10 46L 40 82L 40 70L 148 70L 100 22L 40 22L 40 10Z"></path></g></g></g><g id="g-root-tx_whichbac_znte0z11i7217-fill" data-item-order="0" transform="translate(159, 16.625)"><g id="tx_whichbac_znte0z11i7217-fill" stroke="none" fill="#484848"><g><text style="font: bold 20px Roboto, sans-serif; white-space: pre;" font-weight="bold" font-size="20px" font-family="Roboto, sans-serif"><tspan x="13.76" y="33.5" dominant-baseline="ideographic">My Back End Development Technologies</tspan></text></g></g></g><g id="g-root-tx_javaspri_hx5umb11i718k-fill" data-item-order="0" transform="translate(27, 106.625)"><g id="tx_javaspri_hx5umb11i718k-fill" stroke="none" fill="#3cc583"><g><text style="font: bold 20px Roboto, sans-serif; white-space: pre;" font-weight="bold" font-size="20px" font-family="Roboto, sans-serif"><tspan x="30.53" y="33.5" dominant-baseline="ideographic">C# - ASP.NET</tspan></text></g></g></g><g id="g-root-tx_idealfor_4mbtc311i6znp-fill" data-item-order="0" transform="translate(27, 142.625)"><g id="tx_idealfor_4mbtc311i6znp-fill" stroke="none" fill="#484848"><g><text style="font: 15px Roboto, sans-serif; white-space: pre;" font-size="15px" font-family="Roboto, sans-serif"><tspan x="29.02" y="30.5" dominant-baseline="ideographic">개발 능력: ⭐️⭐️⭐️⭐️</tspan><tspan x="52.47" y="48.5" dominant-baseline="ideographic">Window Server</tspan><tspan x="134.93" y="66.5" dominant-baseline="ideographic">IIS</tspan><tspan x="105.94" y="84.5" dominant-baseline="ideographic">Ms-Sql</tspan><tspan x="106.66" y="102.5" dominant-baseline="ideographic">Jquery</tspan></text></g></g></g><g id="g-root-tx_caspnet_1hgccoz11i71u6-fill" data-item-order="0" transform="translate(519, 160.625)"><g id="tx_caspnet_1hgccoz11i71u6-fill" stroke="none" fill="#4e88e7"><g><text style="font: bold 20px Roboto, sans-serif; white-space: pre;" font-weight="bold" font-size="20px" font-family="Roboto, sans-serif"><tspan x="84.79" y="33.5" dominant-baseline="ideographic">JAVA - </tspan><tspan x="23.3" y="57.5" dominant-baseline="ideographic">SPRING BOOT</tspan></text></g></g></g><g id="g-root-tx_suitable_145iber11i709b-fill" data-item-order="0" transform="translate(519, 220.625)"><g id="tx_suitable_145iber11i709b-fill" stroke="none" fill="#484848"><g><text style="font: 15px Roboto, sans-serif; white-space: pre;" font-size="15px" font-family="Roboto, sans-serif"><tspan x="12" y="30.5" dominant-baseline="ideographic">개발 능력: ⭐️⭐️</tspan><tspan x="12" y="48.5" dominant-baseline="ideographic">Ubutu Server</tspan><tspan x="12" y="66.5" dominant-baseline="ideographic">Nginx</tspan><tspan x="12" y="84.5" dominant-baseline="ideographic">My-Sql</tspan><tspan x="12" y="102.5" dominant-baseline="ideographic">React</tspan></text></g></g></g><g id="g-root-1.g-1_fr_1hf3eir11i6znz-stroke" data-item-order="-225026" transform="translate(363, 202.625)"><g id="1.g-1_fr_1hf3eir11i6znz-stroke" fill="none" stroke-linecap="round" stroke-linejoin="round" stroke-miterlimit="4" stroke="#4e88e7" stroke-width="2"><g><path d="M 58 70L 10 70L 10 130L 58 130L 58 70ZM 106 10L 136 46L 106 82L 106 70L 10 70L 58 22L 106 22L 106 10Z"></path></g></g></g><g id="g-root-2.g-2_fr_1cz9web11i70g9-stroke" data-item-order="-225022" transform="translate(213, 136.625)"><g id="2.g-2_fr_1cz9web11i70g9-stroke" fill="none" stroke-linecap="round" stroke-linejoin="round" stroke-miterlimit="4" stroke="#3cc583" stroke-width="2"><g><path d="M 100 70L 148 70L 148 196L 100 196L 100 70ZM 40 10L 10 46L 40 82L 40 70L 148 70L 100 22L 40 22L 40 10Z"></path></g></g></g><g id="g-root-tx_whichbac_znte0z11i7217-stroke" data-item-order="0" transform="translate(159, 16.625)"></g><g id="g-root-tx_javaspri_hx5umb11i718k-stroke" data-item-order="0" transform="translate(27, 106.625)"></g><g id="g-root-tx_idealfor_4mbtc311i6znp-stroke" data-item-order="0" transform="translate(27, 142.625)"></g><g id="g-root-tx_caspnet_1hgccoz11i71u6-stroke" data-item-order="0" transform="translate(519, 160.625)"></g><g id="g-root-tx_suitable_145iber11i709b-stroke" data-item-order="0" transform="translate(519, 220.625)"></g></g></g></svg>