<?xml version="1.0" encoding="utf-8" standalone="yes"?>
<!DOCTYPE svg PUBLIC "-//W3C//DTD SVG 1.1//EN" "http://www.w3.org/Graphics/SVG/1.1/DTD/svg11.dtd">
<svg width="772" height="638" viewBox="0 0 772 638" style="fill:none;stroke:none;fill-rule:evenodd;clip-rule:evenodd;stroke-linecap:round;stroke-linejoin:round;stroke-miterlimit:1.5;" version="1.1" xmlns="http://www.w3.org/2000/svg" xmlns:xlink="http://www.w3.org/1999/xlink"><style class="text-font-style fontImports" data-font-family="Roboto">@import url('https://fonts.googleapis.com/css2?family=Roboto:wght@400;700&amp;display=block');</style><g id="items" style="isolation: isolate"><g id="blend" style="mix-blend-mode: normal"><g id="g-root-3.cu_sy_zk1nw718pz9jd-fill" data-item-order="-342895" transform="translate(15, 111)"></g><g id="g-root-3.cu_1_sy_m8l5iv18pzb4a-fill" data-item-order="-342894" transform="translate(315, 105)"><g id="3.cu_1_sy_m8l5iv18pzb4a-fill" stroke="none" fill="#4e88e7"><g><path d="M 14.247 209.743985C 8.5843 215.405985 8.5844 224.586985 14.2471 230.249985L 86.1468 302.147985C 80.5845 296.476985 80.6179 287.371985 86.247 281.742985L 209.743 158.246985C 215.405 152.583985 224.586 152.583985 230.249 158.246985L 353.741 281.742985C 359.404 287.404985 359.403 296.585985 353.741 302.248985L 425.741 230.249985C 431.403 224.586985 431.403 215.405985 425.741 209.743985L 230.25 14.247085C 224.587 8.584385 215.406 8.584285 209.744 14.246885L 14.247 209.743985Z"></path></g></g></g><g id="g-root-2.cu_sy_hte4hj18pz8qr-fill" data-item-order="-342889" transform="translate(15, 255)"></g><g id="g-root-2.cu_1_sy_8xr48n18pz9jg-fill" data-item-order="-342888" transform="translate(387, 249)"><g id="2.cu_1_sy_8xr48n18pz9jg-fill" stroke="none" fill="#1eabda"><g><path d="M 14.247 137.742969C 8.5843 143.404969 8.5843 152.585969 14.2471 158.248969L 86.2359 230.235969C 80.5844 224.571969 80.588 215.399969 86.247 209.740969L 137.741 158.246969C 143.403 152.583969 152.584 152.583969 158.247 158.246969L 209.739 209.740969C 215.402 215.402969 215.401 224.583969 209.739 230.246969C 100.0757 339.909969 237.619 202.369969 281.741 158.248969C 287.403 152.585969 287.404 143.404969 281.741 137.742969L 158.249 14.247069C 152.586 8.584369 143.405 8.584269 137.743 14.246969L 14.247 137.742969Z"></path></g></g></g><g id="g-root-1.cu_sy_4hxm4718pzabp-fill" data-item-order="-342883" transform="translate(15, 399)"></g><g id="g-root-1.cu_1_sy_1unenuf18pzaxa-fill" data-item-order="-342882" transform="translate(459.00006103515625, 393)"><g id="1.cu_1_sy_1unenuf18pzaxa-fill" stroke="none" fill="#3cc583"><g><path d="M 14.247069 86.2468C 8.584369 80.5842 8.584269 71.4032 14.246969 65.7406L 65.740569 14.247C 71.403169 8.5843 80.584169 8.5844 86.246769 14.2471L 137.738969 65.7407C 143.401969 71.4033 143.400969 80.5841 137.738969 86.2467L 86.246669 137.739C 80.584069 143.401 71.403269 143.402 65.740669 137.739L 14.247069 86.2468Z"></path></g></g></g><g id="g-root-tx_githubgi_djtd8718pzb4b-fill" data-item-order="0" transform="translate(147, 27)"><g id="tx_githubgi_djtd8718pzb4b-fill" stroke="none" fill="#484848"><g><text style="font: bold 25px Roboto, sans-serif; white-space: pre;" font-weight="bold" font-size="25px" font-family="Roboto, sans-serif"><tspan x="14.84" y="42.5" dominant-baseline="ideographic">GitHub 및 GitHub Actions 내에서의 CI/CD</tspan></text></g></g></g><g id="g-root-tx_github_4l1zjr18pzbi8-fill" data-item-order="0" transform="translate(39, 135)"><g id="tx_github_4l1zjr18pzbi8-fill" stroke="none" fill="#3a4455"><g><text style="font: bold 20px Roboto, sans-serif; white-space: pre;" font-weight="bold" font-size="20px" font-family="Roboto, sans-serif"><tspan x="12" y="33.5" dominant-baseline="ideographic">GitHub</tspan></text></g></g></g><g id="g-root-tx__qrj12v18pzbim-fill" data-item-order="0" transform="translate(39, 171)"><g id="tx__qrj12v18pzbim-fill" stroke="none" fill="#3a4455"><g><text style="font: 15px Roboto, sans-serif; white-space: pre;" font-size="15px" font-family="Roboto, sans-serif"><tspan x="12" y="30.5" dominant-baseline="ideographic">코드 저장소 관리 및 협업 지원</tspan></text></g></g></g><g id="g-root-tx_githubac_mdky7r18pzbb8-fill" data-item-order="0" transform="translate(39, 279)"><g id="tx_githubac_mdky7r18pzbb8-fill" stroke="none" fill="#32444a"><g><text style="font: bold 20px Roboto, sans-serif; white-space: pre;" font-weight="bold" font-size="20px" font-family="Roboto, sans-serif"><tspan x="12" y="33.5" dominant-baseline="ideographic">GitHub Actions</tspan></text></g></g></g><g id="g-root-tx__1czvhvb18pzbb6-fill" data-item-order="0" transform="translate(39, 315)"><g id="tx__1czvhvb18pzbb6-fill" stroke="none" fill="#32444a"><g><text style="font: 15px Roboto, sans-serif; white-space: pre;" font-size="15px" font-family="Roboto, sans-serif"><tspan x="12" y="30.5" dominant-baseline="ideographic">자동화된 워크플로우 생성</tspan></text></g></g></g><g id="g-root-tx_cicd_1d1qx4n18pzabk-fill" data-item-order="0" transform="translate(39, 423)"><g id="tx_cicd_1d1qx4n18pzabk-fill" stroke="none" fill="#374840"><g><text style="font: bold 20px Roboto, sans-serif; white-space: pre;" font-weight="bold" font-size="20px" font-family="Roboto, sans-serif"><tspan x="12" y="33.5" dominant-baseline="ideographic">CI/CD</tspan></text></g></g></g><g id="g-root-tx__73won18pzaj2-fill" data-item-order="0" transform="translate(39, 459)"><g id="tx__73won18pzaj2-fill" stroke="none" fill="#374840"><g><text style="font: 15px Roboto, sans-serif; white-space: pre;" font-size="15px" font-family="Roboto, sans-serif"><tspan x="12" y="30.5" dominant-baseline="ideographic">코드 변경 사항의 테스트 및 배포</tspan></text></g></g></g><g id="g-root-3.cu_sy_zk1nw718pz9jd-stroke" data-item-order="-342895" transform="translate(15, 111)"><g id="3.cu_sy_zk1nw718pz9jd-stroke" fill="none" stroke-linecap="round" stroke-linejoin="round" stroke-miterlimit="4" stroke="#4e88e7" stroke-width="2"><g><path d="M 388 130L 24.5 130C 16.4919 130 10 123.5081 10 115.5L 10 24.5C 10 16.4919 16.4919 10 24.5 10L 508 10"></path></g></g></g><g id="g-root-3.cu_1_sy_m8l5iv18pzb4a-stroke" data-item-order="-342894" transform="translate(315, 105)"><g id="3.cu_1_sy_m8l5iv18pzb4a-stroke" fill="none" stroke-linecap="round" stroke-linejoin="round" stroke-miterlimit="4" stroke="#ffffff" stroke-width="2"><g><path d="M 14.2469 209.743485C 8.5843 215.406185 8.5844 224.587185 14.2471 230.249785L 86.1468 302.147585C 80.5845 296.477285 80.6179 287.371585 86.247 281.742485L 209.7425 158.246885C 215.4052 152.584285 224.5862 152.584385 230.2488 158.247085L 353.741 281.742685C 359.4035 287.405285 359.4034 296.586085 353.7409 302.248585L 425.7409 230.249585C 431.4034 224.587085 431.4034 215.406285 425.741 209.743585L 230.2497 14.247085C 224.5872 8.584385 215.4062 8.584285 209.7435 14.246885L 14.2469 209.743485Z"></path></g></g></g><g id="g-root-2.cu_sy_hte4hj18pz8qr-stroke" data-item-order="-342889" transform="translate(15, 255)"><g id="2.cu_sy_hte4hj18pz8qr-stroke" fill="none" stroke-linecap="round" stroke-linejoin="round" stroke-miterlimit="4" stroke="#1eabda" stroke-width="2"><g><path d="M 363.5 10L 24.5 10C 16.4919 10 10 16.4919 10 24.5L 10 115.5C 10 123.5081 16.4919 130 24.5 130L 363.5 130"></path></g></g></g><g id="g-root-2.cu_1_sy_8xr48n18pz9jg-stroke" data-item-order="-342888" transform="translate(387, 249)"><g id="2.cu_1_sy_8xr48n18pz9jg-stroke" fill="none" stroke-linecap="round" stroke-linejoin="round" stroke-miterlimit="4" stroke="#ffffff" stroke-width="2"><g><path d="M 14.247 137.742469C 8.5843 143.405169 8.5844 152.586169 14.2471 158.248769L 86.2359 230.235569C 80.5844 224.572069 80.588 215.399469 86.247 209.740569L 137.7406 158.246869C 143.4032 152.584269 152.5842 152.584369 158.2468 158.247069L 209.739 209.740669C 215.4015 215.403369 215.4015 224.584069 209.7389 230.246669C 100.0757 339.909869 237.6193 202.370169 281.7409 158.248569C 287.4034 152.586069 287.4035 143.405269 281.741 137.742669L 158.2488 14.247069C 152.5862 8.584369 143.4052 8.584269 137.7425 14.246969L 14.247 137.742469Z"></path></g></g></g><g id="g-root-1.cu_sy_4hxm4718pzabp-stroke" data-item-order="-342883" transform="translate(15, 399)"><g id="1.cu_sy_4hxm4718pzabp-stroke" fill="none" stroke-linecap="round" stroke-linejoin="round" stroke-miterlimit="4" stroke="#3cc583" stroke-width="2"><g><path d="M 508.0016 130L 24.5 130C 16.4919 130 10 123.5081 10 115.5L 10 24.5C 10 16.4919 16.4919 10 24.5 10L 388 10"></path></g></g></g><g id="g-root-1.cu_1_sy_1unenuf18pzaxa-stroke" data-item-order="-342882" transform="translate(459.00006103515625, 393)"><g id="1.cu_1_sy_1unenuf18pzaxa-stroke" fill="none" stroke-linecap="round" stroke-linejoin="round" stroke-miterlimit="4" stroke="#ffffff" stroke-width="2"><g><path d="M 14.247069 86.2468C 8.584369 80.5842 8.584269 71.4032 14.246969 65.7406L 65.740569 14.2469C 71.403169 8.5843 80.584169 8.5844 86.246769 14.2471L 137.738969 65.7407C 143.401469 71.4033 143.401469 80.5841 137.738869 86.2467L 86.246669 137.7389C 80.584069 143.4014 71.403269 143.4015 65.740669 137.739L 14.247069 86.2468Z"></path></g></g></g><g id="g-root-tx_githubgi_djtd8718pzb4b-stroke" data-item-order="0" transform="translate(147, 27)"></g><g id="g-root-tx_github_4l1zjr18pzbi8-stroke" data-item-order="0" transform="translate(39, 135)"></g><g id="g-root-tx__qrj12v18pzbim-stroke" data-item-order="0" transform="translate(39, 171)"></g><g id="g-root-tx_githubac_mdky7r18pzbb8-stroke" data-item-order="0" transform="translate(39, 279)"></g><g id="g-root-tx__1czvhvb18pzbb6-stroke" data-item-order="0" transform="translate(39, 315)"></g><g id="g-root-tx_cicd_1d1qx4n18pzabk-stroke" data-item-order="0" transform="translate(39, 423)"></g><g id="g-root-tx__73won18pzaj2-stroke" data-item-order="0" transform="translate(39, 459)"></g></g></g></svg>