<?xml version="1.0" encoding="utf-8" standalone="yes"?>
<!DOCTYPE svg PUBLIC "-//W3C//DTD SVG 1.1//EN" "http://www.w3.org/Graphics/SVG/1.1/DTD/svg11.dtd">
<svg width="722" height="398" viewBox="0 0 722 398" style="fill:none;stroke:none;fill-rule:evenodd;clip-rule:evenodd;stroke-linecap:round;stroke-linejoin:round;stroke-miterlimit:1.5;" version="1.1" xmlns="http://www.w3.org/2000/svg" xmlns:xlink="http://www.w3.org/1999/xlink"><style class="text-font-style fontImports" data-font-family="Arial"></style><style class="text-font-style fontImports" data-font-family="Shantell Sans">@import url('https://fonts.googleapis.com/css2?family=Shantell+Sans:wght@300..800&amp;display=block');</style><g id="items" style="isolation: isolate"><g id="blend" style="mix-blend-mode: normal"><g id="g-root-1.bubble-1_fr_940txu17vqmtf-fill" data-item-order="-225782" transform="translate(39, 147)"><g id="1.bubble-1_fr_940txu17vqmtf-fill" stroke="none" fill="#fff8b6"><g><path d="M 34 22C 27.3726 22 22 27.3726 22 34L 10 34C 10 20.7452 20.7452 10 34 10L 34 22ZM 178 22L 178 10L 34 10.000001L 34.000003 22L 178 22ZM 178.000003 10C 191.2548 10 202 20.7452 202 34L 190 34C 190 27.3726 184.6274 22 178 22L 178.000003 10ZM 202 34L 202 118L 190 118L 190 34L 202 34ZM 10.000004 118L 10 34.00001L 22 34.00001L 22 118L 10.000004 118ZM 22 118C 22 124.6274 27.3726 130 34 130L 34 142L 10 142L 10 118L 22 118ZM 190 118C 190 124.6274 184.6274 130 178 130L 178 142L 202 142L 202 118L 190 118ZM 94 130L 34 130L 34 142L 178 142L 178 130L 118 130L 108.8284 139.1716C 107.2663 140.7337 104.7337 140.7337 103.1716 139.1716L 94 130Z"></path></g></g></g><g id="g-root-1.bubble-1_1_fr_1utodjm17vqo79-fill" data-item-order="-225730" transform="translate(39, 279)"><g id="1.bubble-1_1_fr_1utodjm17vqo79-fill" stroke="none" fill="#fff8b6"><g><path d="M 202 10.000005L 202 58L 10 58L 10.000004 10L 202 10.000005ZM 34 82C 20.7452 82 9.999999 71.2548 10 58L 34 58.000002L 34 82ZM 202 58L 178 58L 178 82C 191.2548 82 202 71.2548 202 58ZM 34 82L 34 58L 178 58L 178 82L 34 82Z"></path></g></g></g><g id="g-root-2.bubble-2_fr_1hiuc9e17vqmmf-fill" data-item-order="-225704" transform="translate(255, 147)"><g id="2.bubble-2_fr_1hiuc9e17vqmmf-fill" stroke="none" fill="#e9ffb9"><g><path d="M 34 22C 27.3726 22 22 27.3726 22 34L 10 34C 10 20.7452 20.7452 10 34 10L 34 22ZM 178 22L 178 10L 34 10.000001L 34.000003 22L 178 22ZM 178.000003 10C 191.2548 10 202 20.7452 202 34L 190 34C 190 27.3726 184.6274 22 178 22L 178.000003 10ZM 202 34L 202 118L 190 118L 190 34L 202 34ZM 10.000004 118L 10 34.00001L 22 34.00001L 22 118L 10.000004 118ZM 22 118C 22 124.6274 27.3726 130 34 130L 34 142L 10 142L 10 118L 22 118ZM 190 118C 190 124.6274 184.6274 130 178 130L 178 142L 202 142L 202 118L 190 118ZM 94 130L 34 130L 34 142L 178 142L 178 130L 118 130L 108.8284 139.1716C 107.2663 140.7337 104.7337 140.7337 103.1716 139.1716L 94 130Z"></path></g></g></g><g id="g-root-2.bubble-2_1_fr_zrkbrm17vqozl-fill" data-item-order="-225652" transform="translate(255, 279)"><g id="2.bubble-2_1_fr_zrkbrm17vqozl-fill" stroke="none" fill="#e9ffb9"><g><path d="M 202 10.000005L 202 58L 10 58L 10.000004 10L 202 10.000005ZM 34 82C 20.7452 82 9.999999 71.2548 10 58L 34 58.000002L 34 82ZM 202 58L 178 58L 178 82C 191.2548 82 202 71.2548 202 58ZM 34 82L 34 58L 178 58L 178 82L 34 82Z"></path></g></g></g><g id="g-root-3.bubble-3_fr_mgqahe17vqner-fill" data-item-order="-225626" transform="translate(471, 147)"><g id="3.bubble-3_fr_mgqahe17vqner-fill" stroke="none" fill="#c8ffe5"><g><path d="M 34 22C 27.3726 22 22 27.3726 22 34L 10 34C 10 20.7452 20.7452 10 34 10L 34 22ZM 178 22L 178 10L 34 10.000001L 34.000003 22L 178 22ZM 178.000003 10C 191.2548 10 202 20.7452 202 34L 190 34C 190 27.3726 184.6274 22 178 22L 178.000003 10ZM 202 34L 202 118L 190 118L 190 34L 202 34ZM 10.000004 118L 10 34.00001L 22 34.00001L 22 118L 10.000004 118ZM 22 118C 22 124.6274 27.3726 130 34 130L 34 142L 10 142L 10 118L 22 118ZM 190 118C 190 124.6274 184.6274 130 178 130L 178 142L 202 142L 202 118L 190 118ZM 94 130L 34 130L 34 142L 178 142L 178 130L 118 130L 108.8284 139.1716C 107.2663 140.7337 104.7337 140.7337 103.1716 139.1716L 94 130Z"></path></g></g></g><g id="g-root-3.bubble-3_1_fr_9nki17vs171-fill" data-item-order="-225572" transform="translate(471, 279)"><g id="3.bubble-3_1_fr_9nki17vs171-fill" stroke="none" fill="#c8ffe5"><g><path d="M 202 10.000005L 202 58L 10 58L 10.000004 10L 202 10.000005ZM 34 82C 20.7452 82 9.999999 71.2548 10 58L 34 58.000002L 34 82ZM 202 58L 178 58L 178 82C 191.2548 82 202 71.2548 202 58ZM 34 82L 34 58L 178 58L 178 82L 34 82Z"></path></g></g></g><g id="g-root-tx__1lpx76a17vs2kv-fill" data-item-order="0" transform="translate(231, 39)"><g id="tx__1lpx76a17vs2kv-fill" stroke="none" fill="#484848"><g><text style="font: bold 25px &quot;Shantell Sans&quot;, cursive; white-space: pre;" font-weight="bold" font-size="25px" font-family="'Shantell Sans', cursive"><tspan x="24.09" y="56.5" dominant-baseline="ideographic">포트폴리오 주요 기능</tspan></text></g></g></g><g id="g-root-edit_13z9nrm17vs1s8-fill" data-item-order="0" transform="translate(111, 171)"></g><g id="g-root-1_dcctci17vthc1-fill" data-item-order="0" transform="translate(327, 171)"></g><g id="g-root-1_hxr9ua185ggsp-fill" data-item-order="0" transform="translate(543, 171)"></g><g id="g-root-tx__1hgcm8i17vs35t-fill" data-item-order="0" transform="translate(111, 231)"><g id="tx__1hgcm8i17vs35t-fill" stroke="none" fill="#e0cb15"><g><text style="font: bold 20px &quot;Shantell Sans&quot;, cursive; white-space: pre;" font-weight="bold" font-size="20px" font-family="'Shantell Sans', cursive"><tspan x="13.26" y="35.5" dominant-baseline="ideographic">할 일</tspan></text></g></g></g><g id="g-root-tx__deteaa185ggef-fill" data-item-order="0" transform="translate(309, 231)"><g id="tx__deteaa185ggef-fill" stroke="none" fill="#92bd39"><g><text style="font: bold 20px &quot;Shantell Sans&quot;, cursive; white-space: pre;" font-weight="bold" font-size="20px" font-family="'Shantell Sans', cursive"><tspan x="13.96" y="35.5" dominant-baseline="ideographic">회원 인증</tspan></text></g></g></g><g id="g-root-tx__hzmp3m185gft0-fill" data-item-order="0" transform="translate(513, 231)"><g id="tx__hzmp3m185gft0-fill" stroke="none" fill="#3cc583"><g><text style="font: bold 20px &quot;Shantell Sans&quot;, cursive; white-space: pre;" font-weight="bold" font-size="20px" font-family="'Shantell Sans', cursive"><tspan x="17.31" y="35.5" dominant-baseline="ideographic">자유 게시판</tspan></text></g></g></g><g id="g-root-tx__zituvm17vthcf-fill" data-item-order="0" transform="translate(69, 291)"><g id="tx__zituvm17vthcf-fill" stroke="none" fill="#e0cb15"><g><text style="font: 15px Arial, Helvetica, sans-serif; white-space: pre;" font-size="15px" font-family="Arial, Helvetica, sans-serif"><tspan x="13.44" y="27" dominant-baseline="ideographic">리액트의 다양한 특성</tspan><tspan x="63.03" y="45" dominant-baseline="ideographic">구현</tspan></text></g></g></g><g id="g-root-tx__1czvbma185gg0f-fill" data-item-order="0" transform="translate(291, 291)"><g id="tx__1czvbma185gg0f-fill" stroke="none" fill="#92bd39"><g><text style="font: 15px Arial, Helvetica, sans-serif; white-space: pre;" font-size="15px" font-family="Arial, Helvetica, sans-serif"><tspan x="12.05" y="27" dominant-baseline="ideographic">Spring Security &amp;</tspan><tspan x="39.66" y="45" dominant-baseline="ideographic">JWT 구현</tspan></text></g></g></g><g id="g-root-tx__147z5w2185hszy-fill" data-item-order="0" transform="translate(525, 291)"><g id="tx__147z5w2185hszy-fill" stroke="none" fill="#3cc583"><g><text style="font: 15px Arial, Helvetica, sans-serif; white-space: pre;" font-size="15px" font-family="Arial, Helvetica, sans-serif"><tspan x="15.27" y="27" dominant-baseline="ideographic">표준 CRUD</tspan><tspan x="39.02" y="45" dominant-baseline="ideographic">구현</tspan></text></g></g></g><g id="g-root-1.bubble-1_fr_940txu17vqmtf-stroke" data-item-order="-225782" transform="translate(39, 147)"><g id="1.bubble-1_fr_940txu17vqmtf-stroke" fill="none" stroke-linecap="round" stroke-linejoin="round" stroke-miterlimit="4" stroke="#ffffff" stroke-width="2"><g><path d="M 10 34C 10 20.7452 20.7452 10 34 10M 178 10L 34 10M 202 34C 202 20.7452 191.2548 10 178 10M 202 142L 202 34M 10 142L 10 34M 22 34C 22 27.3726 27.3726 22 34 22M 178 22L 34 22M 190 34C 190 27.3726 184.6274 22 178 22M 190 117.9998L 190 34M 178 130C 184.6274 130 190 124.6274 190 118M 34 130L 94 130L 103.1716 139.1716C 104.7337 140.7337 107.2663 140.7337 108.8284 139.1716L 118 130L 178 130M 34 130C 27.3726 130 22 124.6274 22 118M 22 117.9998L 22 34"></path></g></g></g><g id="g-root-1.bubble-1_1_fr_1utodjm17vqo79-stroke" data-item-order="-225730" transform="translate(39, 279)"><g id="1.bubble-1_1_fr_1utodjm17vqo79-stroke" fill="none" stroke-linecap="round" stroke-linejoin="round" stroke-miterlimit="4" stroke="#ffffff" stroke-width="2"><g><path d="M 202 58L 202 10M 178 82C 191.2548 82 202 71.2548 202 58M 34 82L 178 82M 34 82C 20.7452 82 10 71.2548 10 58M 10 58L 10 10"></path></g></g></g><g id="g-root-2.bubble-2_fr_1hiuc9e17vqmmf-stroke" data-item-order="-225704" transform="translate(255, 147)"><g id="2.bubble-2_fr_1hiuc9e17vqmmf-stroke" fill="none" stroke-linecap="round" stroke-linejoin="round" stroke-miterlimit="4" stroke="#ffffff" stroke-width="2"><g><path d="M 10 34C 10 20.7452 20.7452 10 34 10M 178 10L 34 10M 202 34C 202 20.7452 191.2548 10 178 10M 202 142L 202 34M 10 142L 10 34M 22 34C 22 27.3726 27.3726 22 34 22M 178 22L 34 22M 190 34C 190 27.3726 184.6274 22 178 22M 190 117.9998L 190 34M 178 130C 184.6274 130 190 124.6274 190 118M 34 130L 94 130L 103.1716 139.1716C 104.7337 140.7337 107.2663 140.7337 108.8284 139.1716L 118 130L 178 130M 34 130C 27.3726 130 22 124.6274 22 118M 22 117.9998L 22 34"></path></g></g></g><g id="g-root-2.bubble-2_1_fr_zrkbrm17vqozl-stroke" data-item-order="-225652" transform="translate(255, 279)"><g id="2.bubble-2_1_fr_zrkbrm17vqozl-stroke" fill="none" stroke-linecap="round" stroke-linejoin="round" stroke-miterlimit="4" stroke="#ffffff" stroke-width="2"><g><path d="M 202 58L 202 10M 178 82C 191.2548 82 202 71.2548 202 58M 34 82L 178 82M 34 82C 20.7452 82 10 71.2548 10 58M 10 58L 10 10"></path></g></g></g><g id="g-root-3.bubble-3_fr_mgqahe17vqner-stroke" data-item-order="-225626" transform="translate(471, 147)"><g id="3.bubble-3_fr_mgqahe17vqner-stroke" fill="none" stroke-linecap="round" stroke-linejoin="round" stroke-miterlimit="4" stroke="#ffffff" stroke-width="2"><g><path d="M 10 34C 10 20.7452 20.7452 10 34 10M 178 10L 34 10M 202 34C 202 20.7452 191.2548 10 178 10M 202 142L 202 34M 10 142L 10 34M 22 34C 22 27.3726 27.3726 22 34 22M 178 22L 34 22M 190 34C 190 27.3726 184.6274 22 178 22M 190 117.9998L 190 34M 178 130C 184.6274 130 190 124.6274 190 118M 34 130L 94 130L 103.1716 139.1716C 104.7337 140.7337 107.2663 140.7337 108.8284 139.1716L 118 130L 178 130M 34 130C 27.3726 130 22 124.6274 22 118M 22 117.9998L 22 34"></path></g></g></g><g id="g-root-3.bubble-3_1_fr_9nki17vs171-stroke" data-item-order="-225572" transform="translate(471, 279)"><g id="3.bubble-3_1_fr_9nki17vs171-stroke" fill="none" stroke-linecap="round" stroke-linejoin="round" stroke-miterlimit="4" stroke="#ffffff" stroke-width="2"><g><path d="M 202 58L 202 10M 178 82C 191.2548 82 202 71.2548 202 58M 34 82L 178 82M 34 82C 20.7452 82 10 71.2548 10 58M 10 58L 10 10"></path></g></g></g><g id="g-root-tx__1lpx76a17vs2kv-stroke" data-item-order="0" transform="translate(231, 39)"></g><g id="g-root-edit_13z9nrm17vs1s8-stroke" data-item-order="0" transform="translate(111, 171)"><g id="edit_13z9nrm17vs1s8-stroke" fill="none" stroke-linecap="round" stroke-linejoin="round" stroke-miterlimit="4" stroke="#e0cb15" stroke-width="2"><g><path d="M 47 37L 47 53C 47 55.209141 45.209141 57 43 57L 15 57C 12.790861 57 11 55.209141 11 53L 11 15C 11 12.790861 12.790861 11 15 11L 43 11C 45.209141 11 47 12.790861 47 15L 47 17M 43 41L 43 51C 43 52.104568 42.104568 53 41 53L 17 53C 15.895431 53 15 52.104568 15 51L 15 17C 15 15.895431 15.895431 15 17 15L 21 15M 37 15L 41 15C 42.104568 15 43 15.895431 43 17L 43 21M 31.372 46.464001L 27.129999 42.222L 51.877998 17.472C 53.04987 16.299606 54.950336 16.299393 56.122471 17.471527C 57.294605 18.64366 57.294392 20.544128 56.121998 21.716ZM 49.757999 19.594L 54 23.836M 27.129999 42.222L 24.594 49L 31.372 46.464001L 27.129999 42.222ZM 19 33L 19.732 34.464001C 19.870932 34.743011 20.135715 34.938057 20.443375 34.98801C 20.751034 35.037964 21.063927 34.936722 21.284 34.716L 25 31M 29 33L 31 33M 21 11L 37 11L 37 11L 37 15C 37 16.104568 36.104568 17 35 17L 23 17C 21.895432 17 21 16.104568 21 15L 21 11L 21 11ZM 19 25L 19.732 26.464001C 19.870932 26.743011 20.135715 26.938055 20.443375 26.98801C 20.751034 27.037966 21.063927 26.93672 21.284 26.716L 25 23M 29 25L 37 25"></path></g></g></g><g id="g-root-1_dcctci17vthc1-stroke" data-item-order="0" transform="translate(327, 171)"><g id="1_dcctci17vthc1-stroke" fill="none" stroke-linecap="round" stroke-linejoin="round" stroke-miterlimit="4" stroke="#92bd39" stroke-width="2"><g><path d="M 31.5 45L 11.5 45C 11.499674 39.785828 14.397075 35.003494 19.018871 32.589653C 23.640669 30.175816 29.22098 30.530472 33.5 33.510002M 40.5 41.5L 53.5 41.5C 53.5 41.5 56.5 41.5 56.5 44.5L 56.5 53.5C 56.5 53.5 56.5 56.5 53.5 56.5L 40.5 56.5C 40.5 56.5 37.5 56.5 37.5 53.5L 37.5 44.5C 37.5 44.5 37.5 41.5 40.5 41.5M 40 41.542L 40 38.5C 40 34.63401 43.134007 31.500002 47 31.500002C 50.865993 31.500002 54 34.63401 54 38.5L 54 41.542M 44 49L 46 51L 50 47M 18.139999 15.562C 20.721893 18.238579 24.281097 19.750338 28 19.75C 29.865784 19.751305 31.712177 19.371546 33.425999 18.633999M 17 19.75C 17 24.306351 20.693651 28 25.25 28C 29.806349 28 33.5 24.306351 33.5 19.75C 33.5 15.193651 29.806349 11.5 25.25 11.5C 20.693651 11.5 17 15.193651 17 19.75"></path></g></g></g><g id="g-root-1_hxr9ua185ggsp-stroke" data-item-order="0" transform="translate(543, 171)"><g id="1_hxr9ua185ggsp-stroke" fill="none" stroke-linecap="round" stroke-linejoin="round" stroke-miterlimit="4" stroke="#3cc583" stroke-width="2"><g><path d="M 34 12C 21.298 12 11 20.506001 11 31C 11.108053 36.291878 13.608634 41.249649 17.799999 44.481998L 13 56L 25.743999 48.717999C 28.413612 49.567719 31.19842 50.000145 34 50C 46.702 50 57 41.493999 57 31C 57 20.506001 46.702 12 34 12ZM 23 24L 39 24M 23 30L 45 30M 23 36L 45 36"></path></g></g></g><g id="g-root-tx__1hgcm8i17vs35t-stroke" data-item-order="0" transform="translate(111, 231)"></g><g id="g-root-tx__deteaa185ggef-stroke" data-item-order="0" transform="translate(309, 231)"></g><g id="g-root-tx__hzmp3m185gft0-stroke" data-item-order="0" transform="translate(513, 231)"></g><g id="g-root-tx__zituvm17vthcf-stroke" data-item-order="0" transform="translate(69, 291)"></g><g id="g-root-tx__1czvbma185gg0f-stroke" data-item-order="0" transform="translate(291, 291)"></g><g id="g-root-tx__147z5w2185hszy-stroke" data-item-order="0" transform="translate(525, 291)"></g></g></g></svg>