<?xml version="1.0" encoding="utf-8" standalone="yes"?>
<!DOCTYPE svg PUBLIC "-//W3C//DTD SVG 1.1//EN" "http://www.w3.org/Graphics/SVG/1.1/DTD/svg11.dtd">
<svg width="848" height="860" viewBox="0 0 848 860" style="fill:none;stroke:none;fill-rule:evenodd;clip-rule:evenodd;stroke-linecap:round;stroke-linejoin:round;stroke-miterlimit:1.5;" version="1.1" xmlns="http://www.w3.org/2000/svg" xmlns:xlink="http://www.w3.org/1999/xlink"><style class="text-font-style fontImports" data-font-family="Roboto">@import url('https://fonts.googleapis.com/css2?family=Roboto:wght@400;700&amp;display=block');</style><g id="items" style="isolation: isolate"><g id="blend" style="mix-blend-mode: normal"><g id="g-root-5.shape-5_fr_4kflrzyqdxxc-fill" data-item-order="-554028" transform="translate(402.302734375, 129)"><g id="5.shape-5_fr_4kflrzyqdxxc-fill" stroke="none" fill="#de8431"><g><path d="M 27.697266 268L 15.697266 268L 15.697266 160L 27.697266 160L 27.697266 268ZM 32.2969 28.191L 27.6969 28.191L 27.6969 160L 15.6969 160L 15.6969 28.1909L 11.0169 28.1909C 10.2369 28.1909 9.7469 27.3409 10.1369 26.6609L 20.8599 10.4483C 21.2561 9.8494 22.1356 9.8508 22.5298 10.451L 33.1769 26.6609C 33.5769 27.341 33.0869 28.191 32.2969 28.191Z"></path></g></g></g><g id="g-root-1.shape-1_fr_1qapmgvyqdw5e-fill" data-item-order="-554014" transform="translate(120.49996948242188, 128.81640625)"><g id="1.shape-1_fr_1qapmgvyqdw5e-fill" stroke="none" fill="#4e88e7"><g><path d="M 214.000203 304.183594L 45.999903 304.183494C 26.117703 304.183494 10.000003 288.081294 10.000003 268.199194L 10.000003 268.183594L 250.000203 268.183594C 250.000203 288.065794 233.882203 304.183594 214.000203 304.183594ZM 254.600031 28.374594L 250.000031 28.374594L 250.000031 160.183594L 10.000031 160.183594C 10.000052 140.301594 26.117731 124.504594 45.999931 124.504594L 172.000031 124.504594C 213.070031 124.504594 238.000031 94.374494 238.000031 55.034494L 238.000031 28.374494L 233.320031 28.374494C 232.540031 28.374494 232.050031 27.524494 232.440031 26.844494L 243.163031 10.631894C 243.559031 10.032994 244.439031 10.034394 244.833031 10.634594L 255.480031 26.844494C 255.880031 27.524594 255.390031 28.374594 254.600031 28.374594ZM 250.000031 160.183594L 250.000031 268.183594L 10.000031 268.183594L 10.000059 160.183594L 250.000031 160.183594Z"></path></g></g></g><g id="g-root-3.shape-3_fr_1hf2m7zyqdwy4-fill" data-item-order="-553992" transform="translate(120, 387)"><g id="3.shape-3_fr_1hf2m7zyqdwy4-fill" stroke="none" fill="#92bd39"><g><path d="M 214 64.3209C 244 64.3209 268 46 268 10L 280 10L 280 100.3055L 10 100.3055C 10.000022 80.4233 26.1177 64.3209 45.9999 64.3209L 214 64.3209Z"></path></g></g></g><g id="g-root-3.shape-3_1_fr_1cz943jyqdxqe-fill" data-item-order="-553986" transform="translate(372.302734375, 129)"><g id="3.shape-3_1_fr_1cz943jyqdxqe-fill" stroke="none" fill="#92bd39"><g><path d="M 27.697266 268L 15.697266 268L 15.697266 160L 27.697266 160L 27.697266 268ZM 32.2969 28.191L 27.6969 28.191L 27.6969 160L 15.6969 160L 15.6969 28.1909L 11.0169 28.1909C 10.2369 28.1909 9.7469 27.3409 10.1369 26.6609L 20.8599 10.4483C 21.2561 9.8494 22.1356 9.8508 22.5298 10.451L 33.1769 26.6609C 33.5769 27.341 33.0869 28.191 32.2969 28.191Z"></path></g></g></g><g id="g-root-2.shape-2_fr_18k2327yqdvcw-fill" data-item-order="-553972" transform="translate(462.876953125, 128.81640625)"><g id="2.shape-2_fr_18k2327yqdvcw-fill" stroke="none" fill="#1eabda"><g><path d="M 51.623043 304.183655L 219.623043 304.183555C 239.505043 304.183555 255.623043 288.081355 255.623043 268.199255L 255.623043 268.183655L 15.623043 268.183655C 15.623043 288.065855 31.740743 304.183655 51.623043 304.183655ZM 11.0224 28.374594L 15.6224 28.374594L 15.6224 160.183594L 255.622 160.183594C 255.622 140.301594 239.505 124.504594 219.623 124.504594L 93.6224 124.504594C 52.5524 124.504594 27.6224 94.374494 27.6224 55.034494L 27.6224 28.374494L 32.3024 28.374494C 33.0824 28.374494 33.5724 27.524494 33.1824 26.844494L 22.4594 10.631894C 22.0632 10.032994 21.1837 10.034394 20.7895 10.634594L 10.1424 26.844494C 9.7424 27.524594 10.2324 28.374594 11.0224 28.374594ZM 15.62294 160.183594L 15.62294 268.183594L 255.62294 268.183594L 255.62294 160.183594L 15.62294 160.183594Z"></path></g></g></g><g id="g-root-4.shape-4_fr_zof2tbyqdw5m-fill" data-item-order="-553952" transform="translate(438, 387)"><g id="4.shape-4_fr_zof2tbyqdw5m-fill" stroke="none" fill="#e0cb15"><g><path d="M 76 64.3209C 46 64.3209 22 46 22 10L 10 10L 10 100.3055L 280 100.3055C 280 80.4233 263.882 64.3209 244 64.3209L 76 64.3209Z"></path></g></g></g><g id="g-root-4.shape-4_1_fr_v8lkovyqdwxw-fill" data-item-order="-553946" transform="translate(432.3828125, 129)"><g id="4.shape-4_1_fr_v8lkovyqdwxw-fill" stroke="none" fill="#e0cb15"><g><path d="M 15.623047 268L 27.623047 268L 27.623047 160L 15.623047 160L 15.623047 268ZM 11.022399 28.191L 15.6224 28.191L 15.6224 160L 27.6224 160L 27.6224 28.1909L 32.3024 28.1909C 33.0824 28.1909 33.572401 27.3409 33.182401 26.6609L 22.459401 10.4483C 22.063201 9.8494 21.1837 9.8508 20.7895 10.451L 10.1424 26.6609C 9.7424 27.341 10.2324 28.191 11.022399 28.191Z"></path></g></g></g><g id="g-root-5.shape-5_1_fr_mcykfzyqdxqm-fill" data-item-order="-553930" transform="translate(408, 387)"><g id="5.shape-5_1_fr_mcykfzyqdxqm-fill" stroke="none" fill="#de8431"><g><path d="M 22 208L 10 208L 10 10.000004L 22 10.000004L 22 208Z"></path></g></g></g><g id="g-root-5.shape-5_2_fr_hxrjenyqdvd4-fill" data-item-order="-553924" transform="translate(120, 585)"><g id="5.shape-5_2_fr_hxrjenyqdvd4-fill" stroke="none" fill="#de8431"><g><path d="M 298 10.0994C 297.956 46.0337 273.972 64.3209 244 64.3209L 45.9999 64.3209C 26.1177 64.3209 10.000022 80.4233 10 100.3055L 598 100.3055C 598 80.4233 581.882 64.3209 562 64.3209L 365 64.3209C 335.027 64.3209 310.045 46.033 310 10.0974M 310 10L 298 10Z"></path></g></g></g><g id="g-root-3.shape-3_2_fr_dhy1a7yqdw5e-fill" data-item-order="-553914" transform="translate(120, 477)"><g id="3.shape-3_2_fr_dhy1a7yqdw5e-fill" stroke="none" fill="#92bd39"><g><path d="M 280 10L 280 117.982445L 10 117.982445L 10.000031 10L 280 10ZM 244 154.007813L 45.9999 154.007713C 26.1177 154.007713 10.000032 137.905513 10 118.023413L 10 118.007813L 280 118.007813C 280 137.890013 263.882 154.007813 244 154.007813Z"></path></g></g></g><g id="g-root-4.shape-4_2_fr_4mb11byqdwy4-fill" data-item-order="-553892" transform="translate(438, 477)"><g id="4.shape-4_2_fr_4mb11byqdwy4-fill" stroke="none" fill="#e0cb15"><g><path d="M 10 10L 10 118L 280 118L 280 10L 10 10ZM 46 154L 244 153.9999C 263.882 153.9999 280 137.8977 280 118.0156L 280 118L 10 118C 10 137.8822 26.1177 154 46 154Z"></path></g></g></g><g id="g-root-5.shape-5_3_fr_1qcl1q7yqdv66-fill" data-item-order="-553870" transform="translate(120, 675)"><g id="5.shape-5_3_fr_1qcl1q7yqdv66-fill" stroke="none" fill="#de8431"><g><path d="M 598 10L 598 105.9844L 10 105.9844L 10.000067 10L 598 10ZM 562 142.007813L 45.9999 142.007713C 26.1177 142.007713 10.000032 125.905513 10 106.023413L 10 106.007813L 598 106.007813C 598 125.890013 581.882 142.007813 562 142.007813Z"></path></g></g></g><g id="g-root-tx__1utnl6nypztac-fill" data-item-order="0" transform="translate(498, 363)"><g id="tx__1utnl6nypztac-fill" stroke="none" fill="#ffffff"><g><text style="font: 15px Roboto, sans-serif; white-space: pre;" font-size="15px" font-family="Roboto, sans-serif"><tspan x="12.85" y="27.5" dominant-baseline="ideographic">제품 출고 신속성 및 정확성 증</tspan><tspan x="93.51" y="45.5" dominant-baseline="ideographic">대</tspan></text></g></g></g><g id="g-root-tx__1464073yqdv5u-fill" data-item-order="0" transform="translate(144.5, 363)"><g id="tx__1464073yqdv5u-fill" stroke="none" fill="#ffffff"><g><text style="font: 15px Roboto, sans-serif; white-space: pre;" font-size="15px" font-family="Roboto, sans-serif"><tspan x="17.67" y="27.5" dominant-baseline="ideographic">제품 입고 효율성 향상 및 오류 </tspan><tspan x="91.85" y="45.5" dominant-baseline="ideographic">감소</tspan></text></g></g></g><g id="g-root-tx__dj72m7ypzua3-fill" data-item-order="0" transform="translate(516, 327)"><g id="tx__dj72m7ypzua3-fill" stroke="none" fill="#ffffff"><g><text style="font: bold 20px Roboto, sans-serif; white-space: pre;" font-weight="bold" font-size="20px" font-family="Roboto, sans-serif"><tspan x="16.47" y="33.5" dominant-baseline="ideographic">제품 출고 시스템</tspan></text></g></g></g><g id="g-root-tx__18lb18fyqdxjd-fill" data-item-order="0" transform="translate(168.5, 327)"><g id="tx__18lb18fyqdxjd-fill" stroke="none" fill="#ffffff"><g><text style="font: bold 20px Roboto, sans-serif; white-space: pre;" font-weight="bold" font-size="20px" font-family="Roboto, sans-serif"><tspan x="16.47" y="33.5" dominant-baseline="ideographic">제품 입고 시스템</tspan></text></g></g></g><g id="g-root-shel_1qa3bpbyq5gci-fill" data-item-order="0" transform="translate(231, 465)"></g><g id="g-root-plan_1hi72tbypzuv9-fill" data-item-order="0" transform="translate(564, 267)"></g><g id="g-root-pers_18n6mtbyqb4ed-fill" data-item-order="0" transform="translate(549, 465)"></g><g id="g-root-tx__mb3bi7yq5frc-fill" data-item-order="0" transform="translate(183, 525)"><g id="tx__mb3bi7yq5frc-fill" stroke="none" fill="#ffffff"><g><text style="font: bold 20px Roboto, sans-serif; white-space: pre;" font-weight="bold" font-size="20px" font-family="Roboto, sans-serif"><tspan x="16.47" y="33.5" dominant-baseline="ideographic">공간 관리 시스템</tspan></text></g></g></g><g id="g-root-tx__djtmv3yqb30j-fill" data-item-order="0" transform="translate(501, 525)"><g id="tx__djtmv3yqb30j-fill" stroke="none" fill="#ffffff"><g><text style="font: bold 20px Roboto, sans-serif; white-space: pre;" font-weight="bold" font-size="20px" font-family="Roboto, sans-serif"><tspan x="16.47" y="33.5" dominant-baseline="ideographic">회원 관리 시스템</tspan></text></g></g></g><g id="g-root-tx__8zmt4vyq5hc9-fill" data-item-order="0" transform="translate(147, 561)"><g id="tx__8zmt4vyq5hc9-fill" stroke="none" fill="#ffffff"><g><text style="font: 15px Roboto, sans-serif; white-space: pre;" font-size="15px" font-family="Roboto, sans-serif"><tspan x="15" y="27.5" dominant-baseline="ideographic">공간 활용 최적화 및 공간 부족 문제 </tspan><tspan x="104.02" y="45.5" dominant-baseline="ideographic">해결</tspan></text></g></g></g><g id="g-root-tx__1qegnb3yqb218-fill" data-item-order="0" transform="translate(465, 561)"><g id="tx__1qegnb3yqb218-fill" stroke="none" fill="#ffffff"><g><text style="font: 15px Roboto, sans-serif; white-space: pre;" font-size="15px" font-family="Roboto, sans-serif"><tspan x="16.01" y="27.5" dominant-baseline="ideographic">회원 관리 효율성 증대 및 접근성 향</tspan><tspan x="111.51" y="45.5" dominant-baseline="ideographic">상</tspan></text></g></g></g><g id="g-root-1_qunhtryqdwqr-fill" data-item-order="0" transform="translate(217, 267)"></g><g id="g-root-tx__1lwrjlryqdvyg-fill" data-item-order="0" transform="translate(222, 27)"><g id="tx__1lwrjlryqdvyg-fill" stroke="none" fill="#484848"><g><text style="font: 20px Roboto, sans-serif; white-space: pre;" font-size="20px" font-family="Roboto, sans-serif"><tspan x="116.71" y="39.5" dominant-baseline="ideographic">창고 관리 시스템 통합</tspan><tspan x="24.48" y="63.5" dominant-baseline="ideographic">WMS(Warehouse Management System)</tspan></text></g></g></g><g id="g-root-moni_v6qewvypvocl-fill" data-item-order="0" transform="translate(390, 663)"></g><g id="g-root-tx__1lt0ykfypvocj-fill" data-item-order="0" transform="translate(342, 723)"><g id="tx__1lt0ykfypvocj-fill" stroke="none" fill="#ffffff"><g><text style="font: bold 20px Roboto, sans-serif; white-space: pre;" font-weight="bold" font-size="20px" font-family="Roboto, sans-serif"><tspan x="16.47" y="33.5" dominant-baseline="ideographic">재고 관리 시스템</tspan></text></g></g></g><g id="g-root-tx__18i6xa7ypvmro-fill" data-item-order="0" transform="translate(306, 759)"><g id="tx__18i6xa7ypvmro-fill" stroke="none" fill="#ffffff"><g><text style="font: 15px Roboto, sans-serif; white-space: pre;" font-size="15px" font-family="Roboto, sans-serif"><tspan x="16.01" y="30.5" dominant-baseline="ideographic">재고 정확성 향상 및 재고 부족 방지</tspan></text></g></g></g><g id="g-root-5.shape-5_fr_4kflrzyqdxxc-stroke" data-item-order="-554028" transform="translate(402.302734375, 129)"><g id="5.shape-5_fr_4kflrzyqdxxc-stroke" fill="none" stroke-linecap="round" stroke-linejoin="round" stroke-miterlimit="4" stroke="#ffffff" stroke-width="2"><g><path d="M 15.697266 160L 15.697266 268M 27.697266 268L 27.697266 160M 15.6969 160L 15.6969 28.1909L 11.0169 28.1909C 10.2369 28.1909 9.7469 27.3409 10.1369 26.6609L 20.8599 10.4483C 21.2561 9.8494 22.1356 9.8508 22.5298 10.451L 33.1769 26.6609C 33.5769 27.341 33.0869 28.191 32.2969 28.191L 27.6969 28.191L 27.6969 160"></path></g></g></g><g id="g-root-1.shape-1_fr_1qapmgvyqdw5e-stroke" data-item-order="-554014" transform="translate(120.49996948242188, 128.81640625)"><g id="1.shape-1_fr_1qapmgvyqdw5e-stroke" fill="none" stroke-linecap="round" stroke-linejoin="round" stroke-miterlimit="4" stroke="#ffffff" stroke-width="2"><g><path d="M 10.000031 160.1836C 10.000031 140.3014 26.117731 124.3209 45.999931 124.3209L 172.000031 124.3209C 213.070031 124.3209 238.000031 94.1909 238.000031 54.8509L 238.000031 28.1909L 233.320031 28.1909C 232.540031 28.1909 232.050031 27.3409 232.440031 26.6609L 243.163131 10.4483C 243.559231 9.8494 244.438731 9.8508 244.833031 10.451L 255.480031 26.6609C 255.880031 27.341 255.390031 28.191 254.600031 28.191L 250.000031 28.191L 250.000031 160.1836M 250.000131 268.183594C 250.000131 288.065794 233.882331 304.191394 214.000131 304.191394L 45.999931 304.191294C 26.117731 304.191294 10.000031 288.081294 10.000031 268.199194L 10.000031 268.183594M 250.000138 268.183594L 250.000138 160.183594M 10.000031 160.183594L 10.000031 268.183594"></path></g></g></g><g id="g-root-3.shape-3_fr_1hf2m7zyqdwy4-stroke" data-item-order="-553992" transform="translate(120, 387)"><g id="3.shape-3_fr_1hf2m7zyqdwy4-stroke" fill="none" stroke-linecap="round" stroke-linejoin="round" stroke-miterlimit="4" stroke="#ffffff" stroke-width="2"><g><path d="M 268 10C 268 46 244 64.3209 214 64.3209L 45.9999 64.3209C 26.1177 64.3209 10 80.4233 10 100.3055M 280 100.3055L 280 10"></path></g></g></g><g id="g-root-3.shape-3_1_fr_1cz943jyqdxqe-stroke" data-item-order="-553986" transform="translate(372.302734375, 129)"><g id="3.shape-3_1_fr_1cz943jyqdxqe-stroke" fill="none" stroke-linecap="round" stroke-linejoin="round" stroke-miterlimit="4" stroke="#ffffff" stroke-width="2"><g><path d="M 15.697266 160L 15.697266 268M 27.697266 268L 27.697266 160M 15.6969 160L 15.6969 28.1909L 11.0169 28.1909C 10.2369 28.1909 9.7469 27.3409 10.1369 26.6609L 20.8599 10.4483C 21.2561 9.8494 22.1356 9.8508 22.5298 10.451L 33.1769 26.6609C 33.5769 27.341 33.0869 28.191 32.2969 28.191L 27.6969 28.191L 27.6969 160"></path></g></g></g><g id="g-root-2.shape-2_fr_18k2327yqdvcw-stroke" data-item-order="-553972" transform="translate(462.876953125, 128.81640625)"><g id="2.shape-2_fr_18k2327yqdvcw-stroke" fill="none" stroke-linecap="round" stroke-linejoin="round" stroke-miterlimit="4" stroke="#ffffff" stroke-width="2"><g><path d="M 255.6224 160.1836C 255.6224 140.3014 239.5047 124.3209 219.6226 124.3209L 93.6224 124.3209C 52.5524 124.3209 27.6224 94.1909 27.6224 54.8509L 27.6224 28.1909L 32.3024 28.1909C 33.0824 28.1909 33.5724 27.3409 33.1824 26.6609L 22.4594 10.4483C 22.0632 9.8494 21.1837 9.8508 20.7895 10.451L 10.1424 26.6609C 9.7424 27.341 10.2324 28.191 11.0224 28.191L 15.6224 28.191L 15.6224 160.1836M 15.623047 268.183594C 15.623047 288.065794 31.740747 304.183594 51.623047 304.183594L 219.623247 304.183494C 239.505347 304.183494 255.623047 288.081294 255.623047 268.199194L 255.623047 268.183594M 15.62294 268.183594L 15.62294 160.183594M 255.62294 160.183594L 255.62294 268.183594"></path></g></g></g><g id="g-root-4.shape-4_fr_zof2tbyqdw5m-stroke" data-item-order="-553952" transform="translate(438, 387)"><g id="4.shape-4_fr_zof2tbyqdw5m-stroke" fill="none" stroke-linecap="round" stroke-linejoin="round" stroke-miterlimit="4" stroke="#ffffff" stroke-width="2"><g><path d="M 22 10C 22 46 46 64.3209 76 64.3209L 244.0002 64.3209C 263.8824 64.3209 280 80.4233 280 100.3055M 10 100.3055L 10 10"></path></g></g></g><g id="g-root-4.shape-4_1_fr_v8lkovyqdwxw-stroke" data-item-order="-553946" transform="translate(432.3828125, 129)"><g id="4.shape-4_1_fr_v8lkovyqdwxw-stroke" fill="none" stroke-linecap="round" stroke-linejoin="round" stroke-miterlimit="4" stroke="#ffffff" stroke-width="2"><g><path d="M 27.621094 160L 27.621094 268M 15.621094 268L 15.621094 160M 27.6224 160L 27.6224 28.1909L 32.3024 28.1909C 33.0824 28.1909 33.572401 27.3409 33.182401 26.6609L 22.459401 10.4483C 22.063201 9.8494 21.1837 9.8508 20.7895 10.451L 10.1424 26.6609C 9.7424 27.341 10.2324 28.191 11.022399 28.191L 15.6224 28.191L 15.6224 160"></path></g></g></g><g id="g-root-5.shape-5_1_fr_mcykfzyqdxqm-stroke" data-item-order="-553930" transform="translate(408, 387)"><g id="5.shape-5_1_fr_mcykfzyqdxqm-stroke" fill="none" stroke-linecap="round" stroke-linejoin="round" stroke-miterlimit="4" stroke="#ffffff" stroke-width="2"><g><path d="M 10 10.000004L 10 208M 22 208L 22 10.000004"></path></g></g></g><g id="g-root-5.shape-5_2_fr_hxrjenyqdvd4-stroke" data-item-order="-553924" transform="translate(120, 585)"><g id="5.shape-5_2_fr_hxrjenyqdvd4-stroke" fill="none" stroke-linecap="round" stroke-linejoin="round" stroke-miterlimit="4" stroke="#ffffff" stroke-width="2"><g><path d="M 298 10C 298 46 274 64.3209 244 64.3209L 45.9999 64.3209C 26.1177 64.3209 10 80.4233 10 100.3055M 310 10C 310 46 334 64.3209 364 64.3209L 562.0001 64.3209C 581.8823 64.3209 598 80.4233 598 100.3055"></path></g></g></g><g id="g-root-3.shape-3_2_fr_dhy1a7yqdw5e-stroke" data-item-order="-553914" transform="translate(120, 477)"><g id="3.shape-3_2_fr_dhy1a7yqdw5e-stroke" fill="none" stroke-linecap="round" stroke-linejoin="round" stroke-miterlimit="4" stroke="#ffffff" stroke-width="2"><g><path d="M 280 117.982445L 280 10M 10 10L 10 118M 280.0001 118.007813C 280.0001 137.890013 263.8823 154.007813 244.0001 154.007813L 45.9999 154.007713C 26.1177 154.007713 10 137.905513 10 118.023413L 10 118.007813"></path></g></g></g><g id="g-root-4.shape-4_2_fr_4mb11byqdwy4-stroke" data-item-order="-553892" transform="translate(438, 477)"><g id="4.shape-4_2_fr_4mb11byqdwy4-stroke" fill="none" stroke-linecap="round" stroke-linejoin="round" stroke-miterlimit="4" stroke="#ffffff" stroke-width="2"><g><path d="M 10 118L 10 10M 280 10L 280 118M 10 118C 10 137.8822 26.1177 154.0078 45.9999 154.0078L 244.0001 154.0077C 263.8823 154.0077 280 137.8977 280.0001 118.0156L 280.0001 118"></path></g></g></g><g id="g-root-5.shape-5_3_fr_1qcl1q7yqdv66-stroke" data-item-order="-553870" transform="translate(120, 675)"><g id="5.shape-5_3_fr_1qcl1q7yqdv66-stroke" fill="none" stroke-linecap="round" stroke-linejoin="round" stroke-miterlimit="4" stroke="#ffffff" stroke-width="2"><g><path d="M 598 105.9844L 598 10M 10.0001 10L 10 106M 598.0001 106.007813C 598.0001 125.890013 581.8823 142.007813 562.0001 142.007813L 45.9999 142.007713C 26.1177 142.007713 10 125.905513 10 106.023413L 10 106.007813"></path></g></g></g><g id="g-root-tx__1utnl6nypztac-stroke" data-item-order="0" transform="translate(498, 363)"></g><g id="g-root-tx__1464073yqdv5u-stroke" data-item-order="0" transform="translate(144.5, 363)"></g><g id="g-root-tx__dj72m7ypzua3-stroke" data-item-order="0" transform="translate(516, 327)"></g><g id="g-root-tx__18lb18fyqdxjd-stroke" data-item-order="0" transform="translate(168.5, 327)"></g><g id="g-root-shel_1qa3bpbyq5gci-stroke" data-item-order="0" transform="translate(231, 465)"><g id="shel_1qa3bpbyq5gci-stroke" fill="none" stroke-linecap="round" stroke-linejoin="round" stroke-miterlimit="4" stroke="#ffffff" stroke-width="2"><g><path d="M 11 15C 11 12.790861 12.790861 11 15 11L 53 11C 55.209141 11 57 12.790861 57 15L 57 55C 57 56.104568 56.104568 57 55 57L 54.032001 57C 52.853485 56.945271 51.816463 56.204876 51.382 55.108002L 50.618 52.889999C 50.182922 51.793911 49.14603 51.05439 47.968002 51L 20 51C 18.824352 51.054272 17.791828 51.798065 17.368 52.896L 16.632 55.096001C 16.210247 56.196743 15.177438 56.943886 14 57.000004L 13 57C 11.895431 57 11 56.104568 11 55ZM 15 14.998L 53 14.998L 53 28.997999L 15 28.997999ZM 15 32.998001L 53 32.998001L 53 46.998001L 15 46.998001ZM 25 20C 25 19.447716 24.552284 19 24 19L 20 19C 19.447716 19 19 19.447716 19 20L 19 29L 25 29ZM 31 20C 31 19.447716 30.552284 19 30 19L 26 19C 25.447716 19 25 19.447716 25 20L 25 29L 31 29ZM 37 20C 37 19.447716 36.552284 19 36 19L 32 19C 31.447716 19 31 19.447716 31 20L 31 29L 37 29ZM 37 38C 37 37.447716 36.552284 37 36 37L 32 37C 31.447716 37 31 37.447716 31 38L 31 47L 37 47ZM 43 38C 43 37.447716 42.552284 37 42 37L 38 37C 37.447716 37 37 37.447716 37 38L 37 47L 43 47ZM 49 38C 49 37.447716 48.552284 37 48 37L 44 37C 43.447716 37 43 37.447716 43 38L 43 47L 49 47ZM 36.79126 21.838926L 41.119331 18.09289L 47.300777 25.235514L 42.97271 28.98155Z"></path></g></g></g><g id="g-root-plan_1hi72tbypzuv9-stroke" data-item-order="0" transform="translate(564, 267)"><g id="plan_1hi72tbypzuv9-stroke" fill="none" stroke-linecap="round" stroke-linejoin="round" stroke-miterlimit="4" stroke="#ffffff" stroke-width="2"><g><path d="M 55.599998 34.299999C 48.400002 34.299999 42.400002 40.299999 42.400002 47.5C 49.799999 47.5 55.599998 41.5 55.599998 34.299999ZM 29.3999 34.299999C 36.599998 34.299999 42.599998 40.299999 42.599998 47.5C 35.200001 47.5 29.3999 41.5 29.3999 34.299999ZM 42.5 51.900002L 42.5 47.5M 28.5 56.500198C 32.299999 53.500198 37.299999 51.9002 42.5 51.9002C 47.700001 51.9002 52.5 53.700199 56.5 56.500198M 24.9 47.5L 14.5 47.5C 12.9 47.5 11.5 46.099998 11.5 44.5L 11.5 23.5C 11.5 21.9 12.9 20.5 14.5 20.5L 44.5 20.5C 46.099998 20.5 47.5 21.9 47.5 23.5L 47.5 27.299999M 46.5 21.30002L 40.900002 12.9C 40.299999 12.1 39.5 11.5 38.5 11.5L 20.700001 11.5C 19.700001 11.5 18.700001 12.1 18.299999 12.9L 12.5 21.30002M 29.5 11.5L 29.5 20.5"></path></g></g></g><g id="g-root-pers_18n6mtbyqb4ed-stroke" data-item-order="0" transform="translate(549, 465)"><g id="pers_18n6mtbyqb4ed-stroke" fill="none" stroke-linecap="round" stroke-linejoin="round" stroke-miterlimit="4" stroke="#ffffff" stroke-width="2"><g><path d="M 35.234287 56.045715L 35.234287 56.045715C 34.439972 56.352219 33.560028 56.352219 32.765713 56.045715L 32.765713 56.045715C 20.070606 51.067886 11.718046 38.824718 11.714286 25.188572L 11.714286 15.142858C 11.714286 13.24931 13.24931 11.714286 15.142858 11.714286L 52.857143 11.714286C 54.750694 11.714286 56.285713 13.24931 56.285713 15.142858L 56.285713 25.154285C 56.296062 38.802948 47.941048 51.063316 35.234283 56.045712ZM 25.428572 28.857143C 25.428572 33.591011 29.266132 37.428574 34 37.428574C 38.733868 37.428574 42.57143 33.591011 42.57143 28.857143C 42.57143 24.123276 38.733868 20.285715 34 20.285715C 29.266132 20.285715 25.428572 24.123276 25.428572 28.857143M 21.142857 48.365715C 24.397139 44.675705 29.07999 42.561794 34 42.561794C 38.920013 42.561794 43.602863 44.675705 46.857143 48.365715"></path></g></g></g><g id="g-root-tx__mb3bi7yq5frc-stroke" data-item-order="0" transform="translate(183, 525)"></g><g id="g-root-tx__djtmv3yqb30j-stroke" data-item-order="0" transform="translate(501, 525)"></g><g id="g-root-tx__8zmt4vyq5hc9-stroke" data-item-order="0" transform="translate(147, 561)"></g><g id="g-root-tx__1qegnb3yqb218-stroke" data-item-order="0" transform="translate(465, 561)"></g><g id="g-root-1_qunhtryqdwqr-stroke" data-item-order="0" transform="translate(217, 267)"><g id="1_qunhtryqdwqr-stroke" fill="none" stroke-linecap="round" stroke-linejoin="round" stroke-miterlimit="4" stroke="#ffffff" stroke-width="2"><g><path d="M 11.5 52.015999C 11.5 54.777424 13.738576 57.015999 16.5 57.015999L 51.5 57.015999C 54.261425 57.015999 56.5 54.777424 56.5 52.015999C 56.5 49.254578 54.261425 47.015999 51.5 47.015999L 16.5 47.015999C 13.738576 47.015999 11.5 49.254578 11.5 52.015999ZM 49.335999 47.016003L 31.336002 47.016003L 31.336002 32.066002L 49.335999 32.066002ZM 37.335999 32.080002L 43.335999 32.080002L 43.335999 38.080002L 37.335999 38.080002ZM 48 52.015999C 48 52.568283 48.447716 53.015999 49 53.015999C 49.552284 53.015999 50 52.568283 50 52.015999C 50 51.463715 49.552284 51.015999 49 51.015999C 48.447716 51.015999 48 51.463715 48 52.015999M 38 52.015999C 38 52.568283 38.447716 53.015999 39 53.015999C 39.552284 53.015999 40 52.568283 40 52.015999C 40 51.463715 39.552284 51.015999 39 51.015999C 38.447716 51.015999 38 51.463715 38 52.015999M 27.916 52.015999C 27.916 52.568283 28.363716 53.015999 28.916 53.015999C 29.468285 53.015999 29.916 52.568283 29.916 52.015999C 29.916 51.463715 29.468285 51.015999 28.916 51.015999C 28.363716 51.015999 27.916 51.463715 27.916 52.015999M 17.916 52.015999C 17.916 52.568283 18.363716 53.015999 18.916 53.015999C 19.468285 53.015999 19.916 52.568283 19.916 52.015999C 19.916 51.463715 19.468285 51.015999 18.916 51.015999C 18.363716 51.015999 17.916 51.463715 17.916 52.015999M 14.096001 19.695999L 52.034 19.695999M 24.136 10.984L 14.096001 19.695999L 24.136 28.406"></path></g></g></g><g id="g-root-tx__1lwrjlryqdvyg-stroke" data-item-order="0" transform="translate(222, 27)"></g><g id="g-root-moni_v6qewvypvocl-stroke" data-item-order="0" transform="translate(390, 663)"><g id="moni_v6qewvypvocl-stroke" fill="none" stroke-linecap="round" stroke-linejoin="round" stroke-miterlimit="4" stroke="#ffffff" stroke-width="2"><g><path d="M 40 55L 28 55C 29.717556 52.660442 30.755709 49.892033 31 47L 37 47C 37.256348 49.889305 38.293324 52.654568 40 55ZM 24 55L 44 55M 11 41L 57 41M 57 44.919998C 57 46.02457 56.104568 46.919998 55 46.919998L 13 46.919998C 11.895431 46.919998 11 46.02457 11 44.919998L 11 15C 11 13.895431 11.895431 13 13 13L 55 13C 56.104568 13 57 13.895431 57 15ZM 28 25L 30.540001 19M 37.459999 19L 40 25M 42 25L 26 25L 27.52 32C 27.612257 32.626236 28.16814 33.077888 28.799999 33.040001L 39.200001 33.040001C 39.831856 33.077888 40.387741 32.626236 40.48 32Z"></path></g></g></g><g id="g-root-tx__1lt0ykfypvocj-stroke" data-item-order="0" transform="translate(342, 723)"></g><g id="g-root-tx__18i6xa7ypvmro-stroke" data-item-order="0" transform="translate(306, 759)"></g></g></g></svg>