<?xml version="1.0" encoding="utf-8" standalone="yes"?>
<!DOCTYPE svg PUBLIC "-//W3C//DTD SVG 1.1//EN" "http://www.w3.org/Graphics/SVG/1.1/DTD/svg11.dtd">
<svg width="878" height="881" viewBox="0 0 878 881" style="fill:none;stroke:none;fill-rule:evenodd;clip-rule:evenodd;stroke-linecap:round;stroke-linejoin:round;stroke-miterlimit:1.5;" version="1.1" xmlns="http://www.w3.org/2000/svg" xmlns:xlink="http://www.w3.org/1999/xlink"><style class="text-font-style fontImports" data-font-family="Roboto">@import url('https://fonts.googleapis.com/css2?family=Roboto:wght@400;700&amp;display=block');</style><g id="items" style="isolation: isolate"><g id="blend" style="mix-blend-mode: normal"><g id="g-root-0.g-0_fr_dcbobzx2c3r5-fill" data-item-order="-628766" transform="translate(345, 390)"><g id="0.g-0_fr_dcbobzx2c3r5-fill" stroke="none" fill="#666666"><g><path d="M 54.3525 19.9268C 66.1619 13.5926 79.6614 10 94 10C 111.195 10 127.183 15.1663 140.496 24.0313L 141.5 32.5L 149.859 31.2632C 167.126 46.648 178 69.0541 178 94C 178 100.7292 177.209 107.2735 175.714 113.545L 168 117.5L 172.063 125.08C 160.387 154.379 132.695 175.559 99.8026 177.803L 93.9999 172L 88.1972 177.803C 54.9051 175.531 26.9404 153.861 15.5189 124.009L 19.5 116.5L 12.0549 112.549C 10.7099 106.5818 10 100.3738 10 94C 10 65.5024 24.191 40.3193 45.8918 25.1319L 52.9999 26.5L 54.3525 19.9268Z"></path></g></g></g><g id="g-root-5.g-5_fr_4goo33x2c4jv-fill" data-item-order="-628762" transform="translate(199.24099731445312, 234)"><g id="5.g-5_fr_4goo33x2c4jv-fill" stroke="none" fill="#e0cb15"><g><path d="M 96.662 57.3257C 138.041 26.5938 188.215 10 239.758 10L 239.758 93.8849C 218.089 93.8849 196.791 98.3939 177.169 106.9806L 199.031 139.483L 208.988 132.786L 198.758 182.5L 149.246 172.97L 159.203 166.273L 136.665 132.766C 114.849 151.95 98.7504 176.907 90.3052 204.882L 10 180.638C 24.8964 131.295 55.2826 88.0575 96.662 57.3257Z"></path></g></g></g><g id="g-root-4.g-4_fr_v5ynx2c5c5-fill" data-item-order="-628754" transform="translate(188.99996948242188, 403.8990478515625)"><g id="4.g-4_fr_v5ynx2c5c5-fill" stroke="none" fill="#de8431"><g><path d="M 22.075031 155.269C 37.606131 202.363 67.343731 243.489 107.199431 272.995L 157.111031 205.575C 136.671031 190.443 120.322031 170.612 109.367931 147.885L 147.840031 137.106L 151.077031 148.662L 175.500031 102.601L 131.654031 79.3309L 134.891031 90.886L 95.420431 101.9439C 92.243131 79.4581 93.994631 56.4338 100.692831 34.5017L 20.466031 10C 5.981731 57.4263 6.543831 108.1749 22.075031 155.269Z"></path></g></g></g><g id="g-root-3.g-3_fr_1q6c7ovx2c5xr-fill" data-item-order="-628746" transform="translate(285.87200927734375, 552)"><g id="3.g-3_fr_1q6c7ovx2c5xr-fill" stroke="none" fill="#92bd39"><g><path d="M 177.128 86.2594C 198.336 82.9597 218.745 75.3046 237.024 63.6562L 282.104 134.399C 241.1 160.528 193.127 173.587 144.536 171.846C 95.9453 170.106 49.0293 153.647 10 124.651L 60.0261 57.3156C 80.4428 72.4839 104.1772 82.3776 129.128 86.2595L 129.128 46L 117.128 46L 153.128 10L 189.128 46L 177.128 46L 177.128 86.2594Z"></path></g></g></g><g id="g-root-2.g-2_fr_1lr56njx2c3k9-fill" data-item-order="-628738" transform="translate(503, 407.0050048828125)"><g id="2.g-2_fr_1lr56njx2c3k9-fill" stroke="none" fill="#3cc583"><g><path d="M 160.614 161.543C 178.891 112.988 180.942 59.8184 166.46 10L 85.9094 33.416C 92.2752 55.314 93.7302 78.2075 90.336 100.4974L 52.632 88.1246L 56.3735 76.7228L 10 100.4947L 33.9241 145.133L 37.6657 133.732L 75.8992 146.278C 63.323 171.673 44.0199 193.261 19.9645 208.607L 65.081 279.326C 108.8189 251.423 142.337 210.098 160.614 161.543Z"></path></g></g></g><g id="g-root-1.g-1_fr_1hbboj3x2c4cj-fill" data-item-order="-628730" transform="translate(429, 234)"><g id="1.g-1_fr_1hbboj3x2c4cj-fill" stroke="none" fill="#1eabda"><g><path d="M 153.887 57.9156C 112.365 26.8115 61.8807 10 10 10L 10 93.8849C 36.273 93.8849 61.9952 100.5128 84.8451 112.996L 61.3533 145.743L 51.6028 138.748L 57.5 188.5L 110.106 180.716L 100.3556 173.722L 122.948 142.228C 140.079 160.182 152.773 182.059 159.819 206.112L 240.321 182.53C 225.736 132.741 195.41 89.0197 153.887 57.9156Z"></path></g></g></g><g id="g-root-tx__hye6svx20w7b-fill" data-item-order="0" transform="translate(603, 252)"><g id="tx__hye6svx20w7b-fill" stroke="none" fill="#32444a"><g><text style="font: 15px Roboto, sans-serif; white-space: pre;" font-size="15px" font-family="Roboto, sans-serif"><tspan x="12" y="27.5" dominant-baseline="ideographic">제품 수신 프로세스를 </tspan><tspan x="12" y="45.5" dominant-baseline="ideographic">유지 및 개선</tspan></text></g></g></g><g id="g-root-box_qp14vjx2c4cm-fill" data-item-order="0" transform="translate(303, 288)"></g><g id="g-root-deli_dj72lrx2hq8d-fill" data-item-order="0" transform="translate(525, 294)"></g><g id="g-root-tx__i09m27x20v7p-fill" data-item-order="0" transform="translate(357, 822)"><g id="tx__i09m27x20v7p-fill" stroke="none" fill="#424736"><g><text style="font: 15px Roboto, sans-serif; white-space: pre;" font-size="15px" font-family="Roboto, sans-serif"><tspan x="14.3" y="27.5" dominant-baseline="ideographic">추가 요금 관리 유지 및 </tspan><tspan x="67.16" y="45.5" dominant-baseline="ideographic">개선</tspan></text></g></g></g><g id="g-root-tx__v9up67x20ume-fill" data-item-order="0" transform="translate(603, 168)"><g id="tx__v9up67x20ume-fill" stroke="none" fill="#1eabda"><g><text style="font: bold 30px Roboto, sans-serif; white-space: pre;" font-weight="bold" font-size="30px" font-family="Roboto, sans-serif"><tspan x="12" y="45.5" dominant-baseline="ideographic">수신 서비스 </tspan><tspan x="12" y="81.5" dominant-baseline="ideographic">시스템</tspan></text></g></g></g><g id="g-root-tx__dhbqi7x20utc-fill" data-item-order="0" transform="translate(111, 168)"><g id="tx__dhbqi7x20utc-fill" stroke="none" fill="#e0cb15"><g><text style="font: bold 30px Roboto, sans-serif; white-space: pre;" font-weight="bold" font-size="30px" font-family="Roboto, sans-serif"><tspan x="14.78" y="45.5" dominant-baseline="ideographic">팩킹 서비스 </tspan><tspan x="74.15" y="81.5" dominant-baseline="ideographic">시스템</tspan></text></g></g></g><g id="g-root-tx__mcc9nzx20wen-fill" data-item-order="0" transform="translate(357, 462)"><g id="tx__mcc9nzx20wen-fill" stroke="none" fill="#ffffff"><g><text style="font: bold 20px Roboto, sans-serif; white-space: pre;" font-weight="bold" font-size="20px" font-family="Roboto, sans-serif"><tspan x="16.47" y="33.5" dominant-baseline="ideographic">운영 효율성 향상</tspan></text></g></g></g><g id="g-root-tx__1qbc9v3x20wzu-fill" data-item-order="0" transform="translate(27, 480)"><g id="tx__1qbc9v3x20wzu-fill" stroke="none" fill="#de8431"><g><text style="font: bold 30px Roboto, sans-serif; white-space: pre;" font-weight="bold" font-size="30px" font-family="Roboto, sans-serif"><tspan x="14.78" y="45.5" dominant-baseline="ideographic">픽킹 서비스 </tspan><tspan x="74.15" y="81.5" dominant-baseline="ideographic">시스템</tspan></text></g></g></g><g id="g-root-tx__4nk5inx20umg-fill" data-item-order="0" transform="translate(687, 480)"><g id="tx__4nk5inx20umg-fill" stroke="none" fill="#3cc583"><g><text style="font: bold 30px Roboto, sans-serif; white-space: pre;" font-weight="bold" font-size="30px" font-family="Roboto, sans-serif"><tspan x="12" y="45.5" dominant-baseline="ideographic">반출 서비스 </tspan><tspan x="12" y="81.5" dominant-baseline="ideographic">시스템</tspan></text></g></g></g><g id="g-root-serv_dl2epbx22bcz-fill" data-item-order="0" transform="translate(219, 511)"></g><g id="g-root-truc_1hjg0z3x27vnr-fill" data-item-order="0" transform="translate(591, 516)"></g><g id="g-root-tx__1lw58trx20umb-fill" data-item-order="0" transform="translate(27, 564)"><g id="tx__1lw58trx20umb-fill" stroke="none" fill="#4c4034"><g><text style="font: 15px Roboto, sans-serif; white-space: pre;" font-size="15px" font-family="Roboto, sans-serif"><tspan x="27.78" y="27.5" dominant-baseline="ideographic">제품 픽킹 프로세스를 </tspan><tspan x="79.68" y="45.5" dominant-baseline="ideographic">유지 및 개선</tspan></text></g></g></g><g id="g-root-tx__13zv65rx2c5xh-fill" data-item-order="0" transform="translate(327, 84)"><g id="tx__13zv65rx2c5xh-fill" stroke="none" fill="#484848"><g><text style="font: bold 20px Roboto, sans-serif; white-space: pre;" font-weight="bold" font-size="20px" font-family="Roboto, sans-serif"><tspan x="15.55" y="33.5" dominant-baseline="ideographic">물류 시스템 유지 및 개선</tspan></text></g></g></g><g id="g-root-tx__1d2dnu7x20ufe-fill" data-item-order="0" transform="translate(687, 564)"><g id="tx__1d2dnu7x20ufe-fill" stroke="none" fill="#374840"><g><text style="font: 15px Roboto, sans-serif; white-space: pre;" font-size="15px" font-family="Roboto, sans-serif"><tspan x="12" y="27.5" dominant-baseline="ideographic">제품 반출 프로세스를 </tspan><tspan x="12" y="45.5" dominant-baseline="ideographic">유지 및 개선</tspan></text></g></g></g><g id="g-root-2_mbpm9bx2gdfs-fill" data-item-order="0" transform="translate(405, 642)"></g><g id="g-root-tx__vb3ncfx20wsk-fill" data-item-order="0" transform="translate(357, 738)"><g id="tx__vb3ncfx20wsk-fill" stroke="none" fill="#92bd39"><g><text style="font: bold 30px Roboto, sans-serif; white-space: pre;" font-weight="bold" font-size="30px" font-family="Roboto, sans-serif"><tspan x="22.63" y="45.5" dominant-baseline="ideographic">추가 요금 </tspan><tspan x="39.34" y="81.5" dominant-baseline="ideographic">시스템</tspan></text></g></g></g><g id="g-root-tx__4loq9bx20vm1-fill" data-item-order="0" transform="translate(111, 252)"><g id="tx__4loq9bx20vm1-fill" stroke="none" fill="#46432d"><g><text style="font: 15px Roboto, sans-serif; white-space: pre;" font-size="15px" font-family="Roboto, sans-serif"><tspan x="27.78" y="27.5" dominant-baseline="ideographic">제품 팩킹 프로세스를 </tspan><tspan x="79.68" y="45.5" dominant-baseline="ideographic">유지 및 개선</tspan></text></g></g></g><g id="g-root-0.g-0_fr_dcbobzx2c3r5-stroke" data-item-order="-628766" transform="translate(345, 390)"><g id="0.g-0_fr_dcbobzx2c3r5-stroke" fill="none" stroke-linecap="round" stroke-linejoin="round" stroke-miterlimit="4" stroke="#ffffff" stroke-width="2"><g><path d="M 54.3525 19.9268C 66.1619 13.5926 79.6614 10 94 10C 111.1946 10 127.1825 15.1663 140.4962 24.0313L 141.5 32.5L 149.8591 31.2632C 167.1259 46.648 178 69.0541 178 94C 178 100.7292 177.2088 107.2735 175.7142 113.5451L 168 117.4995L 172.0628 125.08C 160.3875 154.3788 132.6953 175.5585 99.8026 177.8027L 93.9999 172L 88.1972 177.8027C 54.9051 175.5312 26.9404 153.8613 15.5189 124.0087L 19.5 116.5005L 12.0549 112.5492C 10.7099 106.5818 10 100.3738 10 94C 10 65.5024 24.191 40.3193 45.8918 25.1319L 52.9999 26.5L 54.3525 19.9268Z"></path></g></g></g><g id="g-root-5.g-5_fr_4goo33x2c4jv-stroke" data-item-order="-628762" transform="translate(199.24099731445312, 234)"><g id="5.g-5_fr_4goo33x2c4jv-stroke" fill="none" stroke-linecap="round" stroke-linejoin="round" stroke-miterlimit="4" stroke="#ffffff" stroke-width="2"><g><path d="M 96.662 57.3257C 138.0414 26.5938 188.2153 10 239.7585 10L 239.7585 93.8849C 218.0886 93.8849 196.7909 98.3939 177.1693 106.9806L 199.0313 139.483L 208.9884 132.7856L 198.7585 182.5L 149.2457 172.9702L 159.2028 166.2728L 136.6653 132.7661C 114.8493 151.9503 98.7504 176.9073 90.3052 204.8816L 10 180.6383C 24.8964 131.2946 55.2826 88.0575 96.662 57.3257Z"></path></g></g></g><g id="g-root-4.g-4_fr_v5ynx2c5c5-stroke" data-item-order="-628754" transform="translate(188.99996948242188, 403.8990478515625)"><g id="4.g-4_fr_v5ynx2c5c5-stroke" fill="none" stroke-linecap="round" stroke-linejoin="round" stroke-miterlimit="4" stroke="#ffffff" stroke-width="2"><g><path d="M 22.075031 155.2687C 37.606131 202.3626 67.343731 243.4893 107.199431 272.9948L 157.111131 205.5745C 136.671131 190.4427 120.322331 170.6118 109.367931 147.8846L 147.839831 137.1064L 151.077031 148.6616L 175.500031 102.601L 131.653731 79.3309L 134.890931 90.886L 95.420431 101.9439C 92.243131 79.4581 93.994631 56.4338 100.692831 34.5017L 20.466031 10C 5.981831 57.4263 6.543831 108.1749 22.075031 155.2687Z"></path></g></g></g><g id="g-root-3.g-3_fr_1q6c7ovx2c5xr-stroke" data-item-order="-628746" transform="translate(285.87200927734375, 552)"><g id="3.g-3_fr_1q6c7ovx2c5xr-stroke" fill="none" stroke-linecap="round" stroke-linejoin="round" stroke-miterlimit="4" stroke="#ffffff" stroke-width="2"><g><path d="M 177.1278 86.2594C 198.3358 82.9597 218.7447 75.3046 237.0242 63.6562L 282.1039 134.3986C 241.0999 160.5279 193.1266 173.5868 144.5359 171.8461C 95.9453 170.1055 49.0293 153.6474 10 124.6511L 60.0261 57.3156C 80.4428 72.4839 104.1772 82.3776 129.1278 86.2595L 129.1278 46L 117.1278 46L 153.1278 10L 189.1278 46L 177.1278 46L 177.1278 86.2594Z"></path></g></g></g><g id="g-root-2.g-2_fr_1lr56njx2c3k9-stroke" data-item-order="-628738" transform="translate(503, 407.0050048828125)"><g id="2.g-2_fr_1lr56njx2c3k9-stroke" fill="none" stroke-linecap="round" stroke-linejoin="round" stroke-miterlimit="4" stroke="#ffffff" stroke-width="2"><g><path d="M 160.6143 161.5431C 178.8911 112.9883 180.942 59.8184 166.4598 10L 85.9094 33.416C 92.2752 55.314 93.7302 78.2075 90.336 100.4974L 52.632 88.1246L 56.3735 76.7228L 10 100.4947L 33.9241 145.1335L 37.6657 133.7317L 75.8992 146.2783C 63.323 171.6729 44.0199 193.2608 19.9645 208.6073L 65.081 279.3263C 108.8189 251.4229 142.3375 210.0979 160.6143 161.5431Z"></path></g></g></g><g id="g-root-1.g-1_fr_1hbboj3x2c4cj-stroke" data-item-order="-628730" transform="translate(429, 234)"><g id="1.g-1_fr_1hbboj3x2c4cj-stroke" fill="none" stroke-linecap="round" stroke-linejoin="round" stroke-miterlimit="4" stroke="#ffffff" stroke-width="2"><g><path d="M 153.8874 57.9156C 112.3646 26.8115 61.8807 10 10 10L 10 93.8849C 36.273 93.8849 61.9952 100.5128 84.8451 112.9956L 61.3533 145.7427L 51.6028 138.7479L 57.5 188.5L 110.1062 180.7164L 100.3556 173.7217L 122.948 142.2283C 140.079 160.1823 152.773 182.0588 159.8192 206.112L 240.321 182.5299C 225.736 132.7415 195.4102 89.0197 153.8874 57.9156Z"></path></g></g></g><g id="g-root-tx__hye6svx20w7b-stroke" data-item-order="0" transform="translate(603, 252)"></g><g id="g-root-box_qp14vjx2c4cm-stroke" data-item-order="0" transform="translate(303, 288)"><g id="box_qp14vjx2c4cm-stroke" fill="none" stroke-linecap="round" stroke-linejoin="round" stroke-miterlimit="4" stroke="#ffffff" stroke-width="2"><g><path d="M 34.035999 34.514L 22 39.5L 22 45M 40 38.334C 40.000069 37.52684 39.514938 36.798756 38.77 36.487999L 28.77 32.32C 28.276936 32.11599 27.723064 32.11599 27.23 32.32L 17.23 36.487999C 16.48506 36.798756 15.999933 37.52684 16 38.334L 16 49.666C 15.999933 50.47316 16.48506 51.201244 17.23 51.512001L 27.23 55.68C 27.723064 55.884007 28.276936 55.884007 28.77 55.68L 38.77 51.512001C 39.514938 51.201244 40.000069 50.47316 40 49.666ZM 16.382 37.158001L 28 42L 39.618 37.158001M 28 42L 28 55.834M 36 22L 48 27M 36 27L 48 32M 40 11L 36.585999 14.414C 36.210899 14.788985 36.000114 15.29761 36 15.828L 36 31M 36.152 15.064L 48.152 20.063999M 38 57L 45.521999 53.902C 47.022305 53.284702 48.001167 51.822338 48 50.200001L 48 20.827999C 48.000114 20.297611 48.210899 19.788986 48.585999 19.414L 52 16"></path></g></g></g><g id="g-root-deli_dj72lrx2hq8d-stroke" data-item-order="0" transform="translate(525, 294)"><g id="deli_dj72lrx2hq8d-stroke" fill="none" stroke-linecap="round" stroke-linejoin="round" stroke-miterlimit="4" stroke="#ffffff" stroke-width="2"><g><path d="M 25 38L 25 40M 25 32L 25 34M 25 44L 25 46M 25 51C 25 52.104568 25.895432 53 27 53M 34 39L 50 39C 50.552284 39 51 39.447716 51 40L 51 53L 51 53L 34 53C 33.447716 53 33 52.552284 33 52L 33 40C 33 39.447716 33.447716 39 34 39ZM 57 52C 57 52.552284 56.552284 53 56 53L 51 53L 51 42.094002L 54.242001 43.174C 55.889549 43.722038 57.00087 45.263699 57.000004 47.000004ZM 33 31L 33 22C 33 21.447716 32.552284 21 32 21L 20 21C 19.447716 21 19 21.447716 19 22L 19 31M 11 20L 26 11L 41 20M 37 31L 37 17.6M 15 17.6L 15.004 31M 35 53L 35 54C 35 55.656857 36.343147 57 38 57C 39.656853 57 41 55.656857 41 54L 41 53M 48 53L 48 54C 48 55.656857 49.343147 57 51 57C 52.656857 57 54 55.656857 54 54L 54 53"></path></g></g></g><g id="g-root-tx__i09m27x20v7p-stroke" data-item-order="0" transform="translate(357, 822)"></g><g id="g-root-tx__v9up67x20ume-stroke" data-item-order="0" transform="translate(603, 168)"></g><g id="g-root-tx__dhbqi7x20utc-stroke" data-item-order="0" transform="translate(111, 168)"></g><g id="g-root-tx__mcc9nzx20wen-stroke" data-item-order="0" transform="translate(357, 462)"></g><g id="g-root-tx__1qbc9v3x20wzu-stroke" data-item-order="0" transform="translate(27, 480)"></g><g id="g-root-tx__4nk5inx20umg-stroke" data-item-order="0" transform="translate(687, 480)"></g><g id="g-root-serv_dl2epbx22bcz-stroke" data-item-order="0" transform="translate(219, 511)"><g id="serv_dl2epbx22bcz-stroke" fill="none" stroke-linecap="round" stroke-linejoin="round" stroke-miterlimit="4" stroke="#ffffff" stroke-width="2"><g><path d="M 39.879997 16.112C 39.879753 18.935455 42.168545 21.224445 44.992001 21.224445C 47.815453 21.224445 50.104248 18.935455 50.104 16.112C 50.104248 13.288546 47.815453 10.999554 44.992001 10.999554C 42.168545 10.999554 39.879753 13.288546 39.879997 16.112M 53.169998 57C 51.476372 57 50.103104 55.627628 50.102001 53.933998L 50.102001 40.599998L 47.799999 33.110001C 44.489311 36.096504 40.252541 37.854057 35.799999 38.087997C 34.106979 38.093666 32.729809 36.726013 32.723732 35.032997C 32.717659 33.339981 34.084984 31.962479 35.778 31.955999C 40.229652 31.588133 44.222992 29.074663 46.480003 25.220001C 47.116604 24.202778 48.28783 23.65008 49.477741 23.805378C 50.667652 23.960678 51.657795 24.795464 52.012001 25.941999L 56.099998 39.23C 56.189964 39.522911 56.235798 39.827587 56.236 40.134003L 56.236 53.933998C 56.234898 55.626846 54.862846 56.998898 53.169998 57ZM 29.142 57L 11.764 57L 11.764 23.265999L 17.691999 23.265999L 24.029999 43.712002L 33.23 43.712002L 29.142 57Z"></path></g></g></g><g id="g-root-truc_1hjg0z3x27vnr-stroke" data-item-order="0" transform="translate(591, 516)"><g id="truc_1hjg0z3x27vnr-stroke" fill="none" stroke-linecap="round" stroke-linejoin="round" stroke-miterlimit="4" stroke="#ffffff" stroke-width="2"><g><path d="M 34.571999 54.858002C 34.570896 56.041317 33.61132 57 32.428001 57L 13.142 57C 11.959463 56.998898 11.001102 56.040539 11 54.858002L 11 49.5C 11 42.990772 16.276772 37.714001 22.785999 37.714001C 29.295229 37.714001 34.571999 42.990772 34.571999 49.5ZM 18.285999 45C 18.285999 45.276142 18.509857 45.5 18.785999 45.5C 19.062141 45.5 19.285999 45.276142 19.285999 45C 19.285999 44.723858 19.062141 44.5 18.785999 44.5C 18.509857 44.5 18.285999 44.723858 18.285999 45M 26.285999 44.987999C 26.285999 45.264141 26.509857 45.487999 26.785999 45.487999C 27.062143 45.487999 27.285999 45.264141 27.285999 44.987999C 27.285999 44.711857 27.062143 44.487999 26.785999 44.487999C 26.509857 44.487999 26.285999 44.711857 26.285999 44.987999M 22.785999 37.714001L 22.785999 33.428001M 19.571999 30.214001C 19.572001 31.989044 21.010956 33.428001 22.785999 33.428001C 24.561043 33.428001 26 31.989044 26 30.214001C 26 28.438957 24.561043 27 22.785999 27C 21.010956 27 19.572001 28.438957 19.572001 30.214001M 11 51.630001L 34.571999 51.630001M 38 21L 38 13C 38 11.895431 38.895432 11 40 11L 55 11C 56.104568 11 57 11.895431 57 13L 57 27L 53 27M 38 25L 38 14L 34 14C 30.686293 14 28 16.686291 28 20L 28 25C 28 26.10457 28.89543 27 30 27L 35 27M 28 21L 36 21C 37.104568 21 38 20.104568 38 19M 35 28C 35 29.656855 36.343147 31 38 31C 39.656853 31 41 29.656855 41 28C 41 26.343145 39.656853 25 38 25C 36.343147 25 35 26.343145 35 28M 47 28C 47 29.656855 48.343147 31 50 31C 51.656857 31 53 29.656855 53 28C 53 26.343145 51.656857 25 50 25C 48.343147 25 47 26.343145 47 28M 41.006001 27L 47.006001 27"></path></g></g></g><g id="g-root-tx__1lw58trx20umb-stroke" data-item-order="0" transform="translate(27, 564)"></g><g id="g-root-tx__13zv65rx2c5xh-stroke" data-item-order="0" transform="translate(327, 84)"></g><g id="g-root-tx__1d2dnu7x20ufe-stroke" data-item-order="0" transform="translate(687, 564)"></g><g id="g-root-2_mbpm9bx2gdfs-stroke" data-item-order="0" transform="translate(405, 642)"><g id="2_mbpm9bx2gdfs-stroke" fill="none" stroke-linecap="round" stroke-linejoin="round" stroke-miterlimit="4" stroke="#ffffff" stroke-width="2"><g><path d="M 31 31L 13 31C 11.895431 31 11 30.10457 11 29L 11 13C 11 11.895431 11.895431 11 13 11L 45 11C 46.104568 11 47 11.895431 47 13L 47 23M 11.008 18L 18.007999 11M 47.007999 18L 40.007999 11M 11.008 24L 18.007999 31M 33 17L 26.691999 17C 25.844688 17.007654 25.134691 17.642994 25.033333 18.484257C 24.931976 19.32552 25.470753 20.111315 26.292 20.32L 31.74 21.68C 32.561249 21.888685 33.100021 22.67448 32.998665 23.515743C 32.897308 24.357006 32.187309 24.992346 31.34 25L 25 25M 29.007999 17L 29.007999 15M 29.007999 27L 29.007999 25M 39.007999 41L 41.007999 41M 45.007999 41L 47.007999 41M 51.007999 41L 53.007999 41M 39.007999 45L 41.007999 45M 45.007999 45L 47.007999 45M 51.007999 45L 53.007999 45M 39.007999 49L 41.007999 49M 45.007999 49L 47.007999 49M 51.007999 49L 53.007999 49M 39.007999 53L 41.007999 53M 45.007999 53L 47.007999 53M 51.007999 53L 53.007999 53M 39.007999 27L 53.007999 27C 53.007999 27 57.007999 27 57.007999 31L 57.007999 53C 57.007999 53 57.007999 57 53.007999 57L 39.007999 57C 39.007999 57 35.007999 57 35.007999 53L 35.007999 31C 35.007999 31 35.007999 27 39.007999 27M 35.007999 37L 57.007999 37M 13.007999 35L 31.007999 35M 15.007999 39L 31.007999 39"></path></g></g></g><g id="g-root-tx__vb3ncfx20wsk-stroke" data-item-order="0" transform="translate(357, 738)"></g><g id="g-root-tx__4loq9bx20vm1-stroke" data-item-order="0" transform="translate(111, 252)"></g></g></g></svg>