<?xml version="1.0" encoding="utf-8" standalone="yes"?>
<!DOCTYPE svg PUBLIC "-//W3C//DTD SVG 1.1//EN" "http://www.w3.org/Graphics/SVG/1.1/DTD/svg11.dtd">
<svg width="902" height="509" viewBox="0 0 902 509" style="fill:none;stroke:none;fill-rule:evenodd;clip-rule:evenodd;stroke-linecap:round;stroke-linejoin:round;stroke-miterlimit:1.5;" version="1.1" xmlns="http://www.w3.org/2000/svg" xmlns:xlink="http://www.w3.org/1999/xlink"><style class="text-font-style fontImports" data-font-family="Roboto">@import url('https://fonts.googleapis.com/css2?family=Roboto:wght@400;700&amp;display=block');</style><g id="items" style="isolation: isolate"><g id="blend" style="mix-blend-mode: normal"><g id="g-root-3.cu_sy_1hdtkp017lk0lh-fill" data-item-order="-54426" transform="translate(404.999755859375, 218.125)"></g><g id="g-root-2.cu_sy_18i6kg417lk1e6-fill" data-item-order="-54422" transform="translate(499, 160.125)"></g><g id="g-root-1.cu_sy_v6q22s17lk2z3-fill" data-item-order="-54418" transform="translate(267, 160.125)"></g><g id="g-root-tx__hz0qv817m0w06-fill" data-item-order="0" transform="translate(303, 46.125)"><g id="tx__hz0qv817m0w06-fill" stroke="none" fill="#484848"><g><text style="font: bold 20px Roboto, sans-serif; white-space: pre;" font-weight="bold" font-size="20px" font-family="Roboto, sans-serif"><tspan x="17.11" y="33.5" dominant-baseline="ideographic">리액트에서 어떤 상태 관리 훅을 </tspan><tspan x="73.99" y="57.5" dominant-baseline="ideographic">사용해야 합니까?</tspan></text></g></g></g><g id="g-root-face_qrj11g17lk0lk-fill" data-item-order="0" transform="translate(399, 118.125)"></g><g id="g-root-2_dfge8417lr284-fill" data-item-order="0" transform="translate(279, 172.125)"></g><g id="g-root-tx_usestate_v63xms17lr30r-fill" data-item-order="0" transform="translate(171, 178.125)"><g id="tx_usestate_v63xms17lr30r-fill" stroke="none" fill="#3cc583"><g><text style="font: bold 20px Roboto, sans-serif; white-space: pre;" font-weight="bold" font-size="20px" font-family="Roboto, sans-serif"><tspan x="12.35" y="33.5" dominant-baseline="ideographic">useState</tspan></text></g></g></g><g id="g-root-puzz_m7yxvo17lv9c2-fill" data-item-order="0" transform="translate(555, 172.125)"></g><g id="g-root-tx_usereduc_v7z9qc17ltwxy-fill" data-item-order="0" transform="translate(615, 178.125)"><g id="tx_usereduc_v7z9qc17ltwxy-fill" stroke="none" fill="#4e88e7"><g><text style="font: bold 20px Roboto, sans-serif; white-space: pre;" font-weight="bold" font-size="20px" font-family="Roboto, sans-serif"><tspan x="12" y="33.5" dominant-baseline="ideographic">useReducer</tspan></text></g></g></g><g id="g-root-tx__2qxok17lr1mw-fill" data-item-order="0" transform="translate(3, 214.125)"><g id="tx__2qxok17lr1mw-fill" stroke="none" fill="#484848"><g><text style="font: 20px Roboto, sans-serif; white-space: pre;" font-size="20px" font-family="Roboto, sans-serif"><tspan x="20.21" y="33.5" dominant-baseline="ideographic">간단한 상태 변수를 관리하고자 </tspan><tspan x="123.7" y="57.5" dominant-baseline="ideographic">할 때 적합합니다.</tspan></text></g></g></g><g id="g-root-tx__18hkcuc17ltwcp-fill" data-item-order="0" transform="translate(615, 214.125)"><g id="tx__18hkcuc17ltwcp-fill" stroke="none" fill="#484848"><g><text style="font: 20px Roboto, sans-serif; white-space: pre;" font-size="20px" font-family="Roboto, sans-serif"><tspan x="12" y="33.5" dominant-baseline="ideographic">복잡한 상태 로직이나 여러 하위 </tspan><tspan x="12" y="57.5" dominant-baseline="ideographic">값이 있는 경우에 이상적입니다.</tspan></text></g></g></g><g id="g-root-sear_1lqivpg17lpmo5-fill" data-item-order="0" transform="translate(417, 274.125)"></g><g id="g-root-tx_useref_8v0k17lpog4-fill" data-item-order="0" transform="translate(399, 334.125)"><g id="tx_useref_8v0k17lpog4-fill" stroke="none" fill="#de8431"><g><text style="font: bold 20px Roboto, sans-serif; white-space: pre;" font-weight="bold" font-size="20px" font-family="Roboto, sans-serif"><tspan x="14.47" y="33.5" dominant-baseline="ideographic">useRef</tspan></text></g></g></g><g id="g-root-tx_dom_dbpddw17lpmv7-fill" data-item-order="0" transform="translate(303, 370.125)"><g id="tx_dom_dbpddw17lpmv7-fill" stroke="none" fill="#484848"><g><text style="font: 20px Roboto, sans-serif; white-space: pre;" font-size="20px" font-family="Roboto, sans-serif"><tspan x="14.75" y="33.5" dominant-baseline="ideographic">DOM 요소에 직접 접근하거나 렌</tspan><tspan x="23.32" y="57.5" dominant-baseline="ideographic">더링 간에 값을 유지해야 할 때 </tspan><tspan x="96.11" y="81.5" dominant-baseline="ideographic">유용합니다.</tspan></text></g></g></g><g id="g-root-3.cu_sy_1hdtkp017lk0lh-stroke" data-item-order="-54426" transform="translate(404.999755859375, 218.125)"><g id="3.cu_sy_1hdtkp017lk0lh-stroke" fill="none" stroke-linecap="round" stroke-linejoin="round" stroke-miterlimit="4" stroke="#484848" stroke-width="2"><g><path d="M 28.2735 57.6985C 27.1024 57.2473 25.8301 57 24.5 57C 18.701 57 14 61.701 14 67.5C 14 68.4121 14.1163 69.297 14.3349 70.1407C 11.6359 73.3079 10 77.4575 10 82C 10 87.6905 12.5673 92.7643 16.5755 96.0628C 16.2026 97.1397 16 98.2962 16 99.5C 16 105.299 20.701 110 26.5 110C 27.2901 110 28.0599 109.9127 28.8001 109.7473C 31.3536 112.3652 34.9788 114 39 114C 43.5014 114 47.5067 111.9514 50.0677 108.7683C 51.6517 110.1577 53.7275 111 56 111C 60.9706 111 65 106.9706 65 102C 65 101.1394 64.8792 100.3069 64.6536 99.5188C 67.9818 95.6447 70 90.5635 70 85C 70 80.6626 68.7733 76.6183 66.6556 73.2107C 66.8812 72.1763 67 71.102 67 70C 67 61.7157 60.2843 55 52 55C 50.2108 55 48.4947 55.3133 46.9037 55.8879C 44.5425 54.6823 41.8533 54 39 54C 34.9329 54 31.1993 55.3862 28.2735 57.6985Z"></path></g></g><g id="3.cu_sy_1hdtkp017lk0lh-stroke" fill="none" stroke-linecap="round" stroke-linejoin="round" stroke-miterlimit="4" stroke="#484848" stroke-width="2"><g><path d="M 32.000275 36C 32.000275 40.418278 35.581997 44 40.000275 44C 44.418553 44 48.000275 40.418278 48.000275 36C 48.000275 31.581722 44.418553 28 40.000275 28C 35.581997 28 32.000275 31.581722 32.000275 36M 36.000366 14C 36.000366 11.790863 37.791229 10 40.000366 10C 42.209503 10 44.000366 11.790863 44.000366 14C 44.000366 16.209137 42.209503 18 40.000366 18C 37.791229 18 36.000366 16.209137 36.000366 14"></path></g></g></g><g id="g-root-2.cu_sy_18i6kg417lk1e6-stroke" data-item-order="-54422" transform="translate(499, 160.125)"><g id="2.cu_sy_18i6kg417lk1e6-stroke" fill="none" stroke-linecap="round" stroke-linejoin="round" stroke-miterlimit="4" stroke="#484848" stroke-width="2"><g><path d="M 83 70C 87.9502 70 92.5185 68.4023 96.1944 65.7057C 97.7818 66.5326 99.5863 67 101.5 67C 107.8513 67 113 61.8513 113 55.5C 113 52.5141 111.8621 49.794 109.9962 47.7498C 112.4346 45.827 114 42.8463 114 39.5C 114 37.0802 113.1815 34.8516 111.8062 33.076C 111.9338 32.2366 112 31.3763 112 30.5C 112 21.3873 104.8366 14 96 14C 95.0095 14 94.04 14.0928 93.0993 14.2705C 90.0114 11.6132 85.9496 10 81.5 10C 76.9328 10 72.7743 11.6996 69.658 14.4832C 68.6613 14.1693 67.6004 14 66.5 14C 60.701 14 56 18.701 56 24.5C 56 27.0722 56.9249 29.4283 58.4602 31.2541C 56.9145 33.4174 56 36.0976 56 39C 56 41.3016 56.5751 43.4636 57.5841 45.3388C 55.3594 47.7456 54 50.9641 54 54.5C 54 61.9558 60.0442 68 67.5 68C 69.1219 68 70.677 67.714 72.1175 67.1897C 75.3267 68.9782 79.0413 70 83 70Z"></path></g></g><g id="2.cu_sy_18i6kg417lk1e6-stroke" fill="none" stroke-linecap="round" stroke-linejoin="round" stroke-miterlimit="4" stroke="#484848" stroke-width="2"><g><path d="M 28 22C 28 26.418278 31.581722 30 36 30C 40.418278 30 44 26.418278 44 22C 44 17.581722 40.418278 14 36 14C 31.581722 14 28 17.581722 28 22M 10 16C 10 13.790863 11.790863 12 14 12C 16.209167 12 18 13.790863 18 16C 18 18.209137 16.209167 20 14 20C 11.790863 20 10 18.209137 10 16"></path></g></g></g><g id="g-root-1.cu_sy_v6q22s17lk2z3-stroke" data-item-order="-54418" transform="translate(267, 160.125)"><g id="1.cu_sy_v6q22s17lk2z3-stroke" fill="none" stroke-linecap="round" stroke-linejoin="round" stroke-miterlimit="4" stroke="#484848" stroke-width="2"><g><path d="M 20.598 19.0005C 20.5653 19.0002 20.5327 19 20.5 19C 14.701 19 10 23.701 10 29.5C 10 32.5738 11.3208 35.3392 13.4259 37.2594C 13.1475 38.4594 13 39.7119 13 41C 13 41.7449 13.0493 42.4779 13.1448 43.1957C 11.7875 45.3013 11 47.8087 11 50.5C 11 57.9558 17.0442 64 24.5 64C 24.8465 64 25.19 63.9869 25.5299 63.9613C 29.172 67.6819 34.3084 70 40 70C 45.6415 70 50.7374 67.7226 54.3734 64.0594C 55.6214 64.6621 57.0212 65 58.5 65C 63.7467 65 68 60.7467 68 55.5C 68 52.6285 66.726 50.0545 64.7124 48.3125C 67.9476 45.4694 70 41.2324 70 36.5C 70 32.4248 68.4781 28.717 65.9895 25.9503C 65.9965 25.801 66 25.6509 66 25.5C 66 20.2533 61.7467 16 56.5 16C 55.9205 16 55.3531 16.0519 54.8022 16.1513C 50.6815 12.3382 45.1199 10 39 10C 31.475 10 24.7941 13.5352 20.598 19.0005Z"></path></g></g><g id="1.cu_sy_v6q22s17lk2z3-stroke" fill="none" stroke-linecap="round" stroke-linejoin="round" stroke-miterlimit="4" stroke="#484848" stroke-width="2"><g><path d="M 80 22C 80 26.418278 83.581722 30 88 30C 92.418278 30 96 26.418278 96 22C 96 17.581722 92.418278 14 88 14C 83.581722 14 80 17.581722 80 22M 106 16C 106 13.790863 107.790863 12 110 12C 112.209137 12 114 13.790863 114 16C 114 18.209137 112.209137 20 110 20C 107.790863 20 106 18.209137 106 16"></path></g></g></g><g id="g-root-tx__hz0qv817m0w06-stroke" data-item-order="0" transform="translate(303, 46.125)"></g><g id="g-root-face_qrj11g17lk0lk-stroke" data-item-order="0" transform="translate(399, 118.125)"><g id="face_qrj11g17lk0lk-stroke" fill="none" stroke-linecap="round" stroke-linejoin="round" stroke-miterlimit="4" stroke="#808080" stroke-width="2"><g><path d="M 46.599998 39.681999C 43.599998 36.681999 37.599998 35.181999 34.599998 38.181999M 16.9 45.681999C 16.6 44.482002 16.6 43.281998 16.6 41.781998C 16.6 25.581999 29.799999 12.382 46 12.382C 62.199997 12.382 75.399994 25.581999 75.399994 41.781998C 75.399994 52.582001 69.699997 61.882004 61 66.981995M 40.449997 77.800003C 46.449997 75.399994 45.324997 70.111 44.125 65.311005L 53.677002 61.612C 55.891281 60.755096 57.049278 58.316589 56.314003 56.059002L 56.313999 56.058998C 55.93375 54.891376 55.08989 53.931606 53.980541 53.405022C 52.871193 52.878433 51.594067 52.831413 50.449001 53.275002L 32.875 60.084999C 31.375 60.685001 29.575001 59.485001 29.575001 57.985001L 29.458 55.144001C 29.410076 53.986492 28.88414 52.900726 28.005583 52.145561C 27.127028 51.390404 25.974579 51.03352 24.823002 51.160004L 24.823 51.16C 22.704519 51.393932 21.100885 53.183647 21.1 55.315002L 21.1 67.584999C 21.1 75.385002 28.299999 81.084999 35.800003 79.284996C 35.800003 79.284996 38.949997 78.399994 40.449997 77.800003ZM 31.825001 27.681999C 31.20368 27.681999 30.700001 27.178322 30.700001 26.556999C 30.700001 25.93568 31.20368 25.431999 31.825001 25.431999M 31.825001 27.681999C 32.44632 27.681999 32.950001 27.178322 32.950001 26.556999C 32.950001 25.93568 32.44632 25.431999 31.825001 25.431999M 47.800003 27.681999C 47.17868 27.681999 46.675003 27.178322 46.675003 26.556999C 46.675003 25.93568 47.17868 25.431999 47.800003 25.431999M 47.800003 27.681999C 48.421322 27.681999 48.925003 27.178322 48.925003 26.556999C 48.925003 25.93568 48.421322 25.431999 47.800003 25.431999"></path></g></g></g><g id="g-root-2_dfge8417lr284-stroke" data-item-order="0" transform="translate(279, 172.125)"><g id="2_dfge8417lr284-stroke" fill="none" stroke-linecap="round" stroke-linejoin="round" stroke-miterlimit="4" stroke="#3cc583" stroke-width="2"><g><path d="M 35.125 44.875L 20.875 44.875C 18.389725 44.875 16.375 42.860352 16.375 40.375L 16.375 15.625C 16.375 13.139725 18.389725 11.125 20.875 11.125L 35.125 11.125C 37.610352 11.125 39.625 13.139725 39.625 15.625L 39.625 40.375C 39.625 42.860352 37.610352 44.875 35.125 44.875ZM 21.247076 38.5C 21.247076 39.328449 21.91864 40 22.747074 40L 33.247002 40C 34.075451 40 34.746998 39.328449 34.746998 38.5L 34.746998 31C 34.746998 30.171549 34.075451 29.5 33.247002 29.5L 22.747074 29.5C 21.91864 29.5 21.247076 30.171549 21.247076 31L 21.247076 38.5Z"></path></g></g></g><g id="g-root-tx_usestate_v63xms17lr30r-stroke" data-item-order="0" transform="translate(171, 178.125)"></g><g id="g-root-puzz_m7yxvo17lv9c2-stroke" data-item-order="0" transform="translate(555, 172.125)"><g id="puzz_m7yxvo17lv9c2-stroke" fill="none" stroke-linecap="round" stroke-linejoin="round" stroke-miterlimit="4" stroke="#4e88e7" stroke-width="2"><g><path d="M 40.735001 28C 40.735001 27.880001 40.735001 27.744999 40.735001 27.625C 40.735001 25.76104 39.223961 24.25 37.360001 24.25C 35.49604 24.25 33.985001 25.76104 33.985001 27.625C 33.985001 27.744999 33.985001 27.880001 33.985001 28L 29.875 28L 29.875 32.5L 30.25 32.5C 32.11396 32.5 33.625 34.01104 33.625 35.875C 33.625 37.73896 32.11396 39.25 30.25 39.25L 29.875 39.25L 29.875 43.75L 43.75 43.75C 44.578426 43.75 45.25 43.078426 45.25 42.25L 45.25 28ZM 30.25 32.5L 29.875 32.5L 29.875 28L 26.110001 28C 26.110001 28.119999 26.110001 28.255001 26.110001 28.375C 26.110001 30.23896 24.598961 31.75 22.735001 31.75C 20.871038 31.75 19.360001 30.23896 19.360001 28.375C 19.360001 28.255001 19.360001 28.119999 19.360001 28L 14.5 28L 14.5 32.5L 14.125 32.5C 12.261039 32.5 10.75 34.01104 10.75 35.875C 10.75 37.73896 12.261039 39.25 14.125 39.25L 14.5 39.25L 14.5 42.25C 14.5 43.078426 15.171573 43.75 16 43.75L 29.875 43.75L 29.875 39.25L 30.25 39.25C 32.11396 39.25 33.625 37.73896 33.625 35.875C 33.625 34.01104 32.11396 32.5 30.25 32.5ZM 29.875 23.5L 29.5 23.5C 27.63604 23.5 26.125 21.988962 26.125 20.125C 26.125 18.26104 27.63604 16.75 29.5 16.75L 29.875 16.75L 29.875 12.25L 16 12.25C 15.171573 12.25 14.5 12.921573 14.5 13.75L 14.5 16.75L 14.875 16.75C 16.73896 16.75 18.25 18.26104 18.25 20.125C 18.25 21.988962 16.73896 23.5 14.875 23.5L 14.5 23.5L 14.5 28L 19.389999 28C 19.389999 28.119999 19.389999 28.255001 19.389999 28.375C 19.389999 30.23896 20.901039 31.75 22.764999 31.75C 24.628962 31.75 26.139999 30.23896 26.139999 28.375C 26.139999 28.255001 26.139999 28.119999 26.139999 28L 29.905001 28ZM 40.735001 12.25C 40.735001 12.37 40.735001 12.505 40.735001 12.625C 40.735001 14.488961 39.223961 16 37.360001 16C 35.49604 16 33.985001 14.488961 33.985001 12.625C 33.985001 12.505 33.985001 12.37 33.985001 12.25L 29.875 12.25L 29.875 16.75L 29.5 16.75C 27.63604 16.75 26.125 18.26104 26.125 20.125C 26.125 21.988962 27.63604 23.5 29.5 23.5L 29.875 23.5L 29.875 28L 34 28C 34 27.880001 34 27.744999 34 27.625C 34 25.76104 35.51104 24.25 37.375 24.25C 39.23896 24.25 40.75 25.76104 40.75 27.625C 40.75 27.744999 40.75 27.880001 40.75 28L 45.25 28L 45.25 13.75C 45.25 12.921573 44.578426 12.25 43.75 12.25Z"></path></g></g></g><g id="g-root-tx_usereduc_v7z9qc17ltwxy-stroke" data-item-order="0" transform="translate(615, 178.125)"></g><g id="g-root-tx__2qxok17lr1mw-stroke" data-item-order="0" transform="translate(3, 214.125)"></g><g id="g-root-tx__18hkcuc17ltwcp-stroke" data-item-order="0" transform="translate(615, 214.125)"></g><g id="g-root-sear_1lqivpg17lpmo5-stroke" data-item-order="0" transform="translate(417, 274.125)"><g id="sear_1lqivpg17lpmo5-stroke" fill="none" stroke-linecap="round" stroke-linejoin="round" stroke-miterlimit="4" stroke="#de8431" stroke-width="2"><g><path d="M 11.285714 25.222857C 11.284246 32.921165 17.524548 39.162659 25.222857 39.162659C 32.921165 39.162659 39.161465 32.921165 39.16 25.222857C 39.161465 17.524548 32.921165 11.283056 25.222857 11.283056C 17.524548 11.283056 11.284246 17.524548 11.285714 25.222857M 44.714287 44.714287L 35.071426 35.071426"></path></g></g></g><g id="g-root-tx_useref_8v0k17lpog4-stroke" data-item-order="0" transform="translate(399, 334.125)"></g><g id="g-root-tx_dom_dbpddw17lpmv7-stroke" data-item-order="0" transform="translate(303, 370.125)"></g></g></g></svg>