<?xml version="1.0" encoding="utf-8" standalone="yes"?>
<!DOCTYPE svg PUBLIC "-//W3C//DTD SVG 1.1//EN" "http://www.w3.org/Graphics/SVG/1.1/DTD/svg11.dtd">
<svg width="602" height="506" viewBox="0 0 602 506" style="fill:none;stroke:none;fill-rule:evenodd;clip-rule:evenodd;stroke-linecap:round;stroke-linejoin:round;stroke-miterlimit:1.5;" version="1.1" xmlns="http://www.w3.org/2000/svg" xmlns:xlink="http://www.w3.org/1999/xlink"><style class="text-font-style fontImports" data-font-family="Roboto">@import url('https://fonts.googleapis.com/css2?family=Roboto:wght@400;700&amp;display=block');</style><g id="items" style="isolation: isolate"><g id="blend" style="mix-blend-mode: normal"><g id="g-root-3.g-3_fr_18hkmhg17bj11i-fill" data-item-order="-211958" transform="translate(334, 218.156005859375)"><g id="3.g-3_fr_18hkmhg17bj11i-fill" stroke="none" fill="#f4ffdc"><g><path d="M 48.4524 95.7121L 49.2257 95.3683C 49.0787 95.2941 48.9291 95.2231 48.777 95.1555L 16.9744 81.0138C 10.4395 86.6192 8.0527 96.0492 11.7303 104.3195L 44.9423 179.008C 49.4303 189.101 61.2504 193.645 71.3432 189.157L 223.534 120.479C 224.725 119.942 225.851 119.25 226.738 118.292C 232.007 112.601 233.69 104.1031 230.339 96.5677L 197.127 21.8788C 192.639 11.7859 180.819 7.2423 170.727 11.7303L 49.2392 65.7522L 75.3521 77.3639C 77.531 78.3327 79.4513 79.6434 81.0779 81.2045L 166.136 43.3818C 171.182 41.1378 177.092 43.4097 179.336 48.4561L 198.69 91.9805C 200.934 97.0269 198.662 102.9369 193.616 105.1809L 75.9326 157.511C 70.8862 159.755 64.9761 157.483 62.7321 152.437L 43.3781 108.9126C 41.1341 103.8662 43.4059 97.9561 48.4524 95.7121Z"></path></g></g></g><g id="g-root-2.g-2_fr_141r4d017bj1ts-fill" data-item-order="-211954" transform="translate(189.1610107421875, 218)"><g id="2.g-2_fr_141r4d017bj1ts-fill" stroke="none" fill="#e3fff2"><g><path d="M 21.8788 122.969C 11.7859 118.481 7.2423 106.6605 11.7303 96.5677L 34.0916 46.2804C 34.4231 47.0362 34.7429 47.764 35.0509 48.4568L 48.8909 79.581L 43.3781 91.9785C 41.1341 97.0249 43.4059 102.9349 48.4523 105.1789L 166.136 157.509C 170.668 159.525 175.898 157.897 178.541 153.888L 189.781 179.165C 190.7 181.231 191.926 183.064 193.381 184.635C 187.716 190.619 178.685 192.696 170.727 189.157L 21.8788 122.969ZM 208.284 153.92L 230.339 104.3195C 234.827 94.2266 230.284 82.4065 220.191 77.9185L 71.3432 11.7303C 63.4798 8.2337 54.5678 10.2193 48.8919 16.0404C 50.5015 17.6909 51.8508 19.6498 52.8423 21.8795L 63.8237 46.5751C 66.5481 42.8789 71.564 41.4373 75.9326 43.3799L 161.511 81.4343C 161.611 81.3453 161.712 81.2572 161.813 81.1701L 193.616 95.3117C 193.768 95.3794 193.918 95.4503 194.065 95.5245C 199.1 97.7737 200.932 103.8694 198.69 108.9106L 193.418 120.766L 207.571 152.593C 207.778 153.06 208.017 153.502 208.284 153.92Z"></path></g></g></g><g id="g-root-1.g-1_fr_v6444417bj2mi-fill" data-item-order="-211950" transform="translate(45.39599609375, 218.554931640625)"><g id="1.g-1_fr_v6444417bj2mi-fill" stroke="none" fill="#e8f9ff"><g><path d="M 11.7303 104.3195C 7.2423 94.2266 11.7859 82.4065 21.8788 77.9186L 170.727 11.7303C 180.819 7.2423 192.639 11.7859 197.127 21.8788L 230.339 96.5677C 233.973 104.7383 231.687 114.041 225.33 119.669L 193.182 105.3738L 193.616 105.1809C 198.662 102.9369 200.934 97.0269 198.69 91.9805L 179.336 48.4561C 177.092 43.4097 171.182 41.1378 166.136 43.3818L 48.4524 95.7121C 43.4059 97.9561 41.1341 103.8662 43.3781 108.9126L 62.7321 152.437C 64.9761 157.483 70.8862 159.755 75.9326 157.511L 161.03 119.671C 162.525 120.993 164.244 122.112 166.164 122.966L 193.181 134.979L 71.3432 189.157C 61.2504 193.645 49.4303 189.101 44.9423 179.008L 11.7303 104.3195Z"></path></g></g></g><g id="g-root-tx__hva2tw17bj11o-fill" data-item-order="0" transform="translate(225, 39)"><g id="tx__hva2tw17bj11o-fill" stroke="none" fill="#484848"><g><text style="font: bold 20px Roboto, sans-serif; white-space: pre;" font-weight="bold" font-size="20px" font-family="Roboto, sans-serif"><tspan x="12.96" y="33.5" dominant-baseline="ideographic">보안 프레임워크</tspan></text></g></g></g><g id="g-root-tx__402c417bj3et-fill" data-item-order="0" transform="translate(51, 87)"><g id="tx__402c417bj3et-fill" stroke="none" fill="#1eabda"><g><text style="font: bold 20px Roboto, sans-serif; white-space: pre;" font-weight="bold" font-size="20px" font-family="Roboto, sans-serif"><tspan x="13.01" y="33.5" dominant-baseline="ideographic">Spring Security</tspan></text></g></g></g><g id="g-root-tx_jwt_18itkno17bj37r-fill" data-item-order="0" transform="translate(219, 87)"><g id="tx_jwt_18itkno17bj37r-fill" stroke="none" fill="#3cc583"><g><text style="font: bold 20px Roboto, sans-serif; white-space: pre;" font-weight="bold" font-size="20px" font-family="Roboto, sans-serif"><tspan x="61.39" y="33.5" dominant-baseline="ideographic">JWT</tspan></text></g></g></g><g id="g-root-tx_oauth2_qs619017bj2f5-fill" data-item-order="0" transform="translate(387, 87)"><g id="tx_oauth2_qs619017bj2f5-fill" stroke="none" fill="#92bd39"><g><text style="font: bold 20px Roboto, sans-serif; white-space: pre;" font-weight="bold" font-size="20px" font-family="Roboto, sans-serif"><tspan x="19.5" y="33.5" dominant-baseline="ideographic">OAuth2 Client</tspan></text></g></g></g><g id="g-root-tx__1qa3l5g17bj0um-fill" data-item-order="0" transform="translate(51, 123)"><g id="tx__1qa3l5g17bj0um-fill" stroke="none" fill="#484848"><g><text style="font: 15px Roboto, sans-serif; white-space: pre;" font-size="15px" font-family="Roboto, sans-serif"><tspan x="16.17" y="27.5" dominant-baseline="ideographic">인증 및 권한 부여를 위</tspan><tspan x="19.89" y="45.5" dominant-baseline="ideographic">한 강력한 프레임워크</tspan></text></g></g></g><g id="g-root-tx_json_143mjmc17bj0u8-fill" data-item-order="0" transform="translate(219, 123)"><g id="tx_json_143mjmc17bj0u8-fill" stroke="none" fill="#484848"><g><text style="font: 15px Roboto, sans-serif; white-space: pre;" font-size="15px" font-family="Roboto, sans-serif"><tspan x="18.03" y="27.5" dominant-baseline="ideographic">안전한 정보 전송을 위</tspan><tspan x="31.37" y="45.5" dominant-baseline="ideographic">한 JSON 웹 토큰</tspan></text></g></g></g><g id="g-root-tx__dhbzys17bj0ua-fill" data-item-order="0" transform="translate(387, 123)"><g id="tx__dhbzys17bj0ua-fill" stroke="none" fill="#484848"><g><text style="font: 15px Roboto, sans-serif; white-space: pre;" font-size="15px" font-family="Roboto, sans-serif"><tspan x="19.89" y="27.5" dominant-baseline="ideographic">리소스에 대한 안전한 </tspan><tspan x="13.4" y="45.5" dominant-baseline="ideographic">액세스를 위한 프로토콜</tspan></text></g></g></g><g id="g-root-3.g-3_fr_18hkmhg17bj11i-stroke" data-item-order="-211958" transform="translate(334, 218.156005859375)"><g id="3.g-3_fr_18hkmhg17bj11i-stroke" fill="none" stroke-linecap="round" stroke-linejoin="round" stroke-miterlimit="4" stroke="#92bd39" stroke-width="2"><g><path d="M 48.4524 95.7121L 49.2257 95.3683C 49.0787 95.2941 48.9291 95.2231 48.777 95.1555L 16.9744 81.0138C 10.4395 86.6192 8.0527 96.0492 11.7303 104.3195L 44.9423 179.0084C 49.4303 189.1012 61.2504 193.6449 71.3432 189.1569L 223.5344 120.4792C 224.7245 119.9422 225.8507 119.2501 226.7377 118.292C 232.0066 112.6013 233.6902 104.1031 230.3394 96.5677L 197.1275 21.8788C 192.6395 11.7859 180.8194 7.2423 170.7266 11.7303L 49.2392 65.7522L 75.3521 77.3639C 77.531 78.3327 79.4513 79.6434 81.0779 81.2045L 166.1356 43.3818C 171.182 41.1378 177.0921 43.4097 179.3361 48.4561L 198.6901 91.9805C 200.9341 97.0269 198.6622 102.9369 193.6158 105.1809L 75.9326 157.5112C 70.8862 159.7552 64.9761 157.4834 62.7321 152.437L 43.3781 108.9126C 41.1341 103.8662 43.4059 97.9561 48.4524 95.7121Z"></path></g></g></g><g id="g-root-2.g-2_fr_141r4d017bj1ts-stroke" data-item-order="-211954" transform="translate(189.1610107421875, 218)"><g id="2.g-2_fr_141r4d017bj1ts-stroke" fill="none" stroke-linecap="round" stroke-linejoin="round" stroke-miterlimit="4" stroke="#3cc583" stroke-width="2"><g><path d="M 21.8788 122.9686C 11.7859 118.4806 7.2423 106.6605 11.7303 96.5677L 34.0916 46.2804C 34.4231 47.0362 34.7429 47.764 35.0509 48.4568L 48.8909 79.581L 43.3781 91.9785C 41.1341 97.0249 43.4059 102.9349 48.4523 105.1789L 166.1356 157.5092C 170.6682 159.5248 175.8976 157.8972 178.5414 153.8882L 189.7811 179.1646C 190.6998 181.2306 191.9257 183.0641 193.3811 184.6351C 187.7164 190.6193 178.6845 192.6955 170.7265 189.1569L 21.8788 122.9686ZM 208.2836 153.92L 230.3394 104.3195C 234.8274 94.2266 230.2838 82.4065 220.191 77.9185L 71.3432 11.7303C 63.4798 8.2337 54.5678 10.2193 48.8919 16.0404C 50.5015 17.6909 51.8508 19.6498 52.8423 21.8795L 63.8237 46.5751C 66.5481 42.8789 71.564 41.4373 75.9326 43.3799L 161.5115 81.4343C 161.6111 81.3453 161.7117 81.2572 161.8133 81.1701L 193.6158 95.3117C 193.7679 95.3794 193.9175 95.4503 194.0645 95.5245C 199.1 97.7737 200.9318 103.8694 198.6901 108.9106L 193.4184 120.7659L 207.571 152.5932C 207.7784 153.0596 208.0171 153.5023 208.2836 153.92Z"></path></g></g></g><g id="g-root-1.g-1_fr_v6444417bj2mi-stroke" data-item-order="-211950" transform="translate(45.39599609375, 218.554931640625)"><g id="1.g-1_fr_v6444417bj2mi-stroke" fill="none" stroke-linecap="round" stroke-linejoin="round" stroke-miterlimit="4" stroke="#1eabda" stroke-width="2"><g><path d="M 11.7303 104.3195C 7.2423 94.2266 11.7859 82.4065 21.8788 77.9186L 170.7266 11.7303C 180.8194 7.2423 192.6395 11.7859 197.1275 21.8788L 230.3394 96.5677C 233.9727 104.7383 231.6869 114.0409 225.3298 119.669L 193.182 105.3738L 193.6158 105.1809C 198.6622 102.9369 200.9341 97.0269 198.6901 91.9805L 179.3361 48.4561C 177.0921 43.4097 171.182 41.1378 166.1356 43.3818L 48.4524 95.7121C 43.4059 97.9561 41.1341 103.8662 43.3781 108.9126L 62.7321 152.437C 64.9761 157.4834 70.8862 159.7552 75.9326 157.5112L 161.0303 119.6707C 162.5248 120.993 164.2442 122.1122 166.1644 122.9661L 193.1805 134.9794L 71.3432 189.1569C 61.2504 193.6449 49.4303 189.1012 44.9423 179.0084L 11.7303 104.3195Z"></path></g></g></g><g id="g-root-tx__hva2tw17bj11o-stroke" data-item-order="0" transform="translate(225, 39)"></g><g id="g-root-tx__402c417bj3et-stroke" data-item-order="0" transform="translate(51, 87)"></g><g id="g-root-tx_jwt_18itkno17bj37r-stroke" data-item-order="0" transform="translate(219, 87)"></g><g id="g-root-tx_oauth2_qs619017bj2f5-stroke" data-item-order="0" transform="translate(387, 87)"></g><g id="g-root-tx__1qa3l5g17bj0um-stroke" data-item-order="0" transform="translate(51, 123)"></g><g id="g-root-tx_json_143mjmc17bj0u8-stroke" data-item-order="0" transform="translate(219, 123)"></g><g id="g-root-tx__dhbzys17bj0ua-stroke" data-item-order="0" transform="translate(387, 123)"></g></g></g></svg>