<?xml version="1.0" encoding="utf-8" standalone="yes"?>
<!DOCTYPE svg PUBLIC "-//W3C//DTD SVG 1.1//EN" "http://www.w3.org/Graphics/SVG/1.1/DTD/svg11.dtd">
<svg width="1022" height="831" viewBox="0 0 1022 831" style="fill:none;stroke:none;fill-rule:evenodd;clip-rule:evenodd;stroke-linecap:round;stroke-linejoin:round;stroke-miterlimit:1.5;" version="1.1" xmlns="http://www.w3.org/2000/svg" xmlns:xlink="http://www.w3.org/1999/xlink"><style class="text-font-style fontImports" data-font-family="Roboto">@import url('https://fonts.googleapis.com/css2?family=Roboto:wght@400;700&amp;display=block');</style><g id="items" style="isolation: isolate"><g id="blend" style="mix-blend-mode: normal"><g id="g-root-3.cu_sy_13yme5y18zxgqt-fill" data-item-order="-641658" transform="translate(15, 483)"><g id="3.cu_sy_13yme5y18zxgqt-fill" stroke="none" fill="#4e88e7"><g><path d="M 250 130.148L 526.045 298.148L 526.045 169.371L 303.8673 34.1437L 250 130.148ZM 526.045 298.148L 802.06 130.148L 748.208 34.1484L 526.045 169.371L 526.045 298.148ZM 526.045 121.074L 342.7321 10L 303.8673 34.1437L 526.045 169.371L 748.208 34.1484L 708.534 10L 526.045 121.074ZM 34 34L 303.805 34L 249.942 130L 34 130L 10 82L 34 34Z"></path></g></g></g><g id="g-root-2.cu_sy_qn5vsm18zxibq-fill" data-item-order="-641654" transform="translate(329.0087890625, 350.953125)"><g id="2.cu_sy_qn5vsm18zxibq-fill" stroke="none" fill="#3cc583"><g><path d="M 211.977 252.973L 394.466 141.898L 413.938 130.046L 360.086 34.0543L 211.977 124.203L 211.977 252.973ZM 28.6641 141.898L 211.977 252.973L 211.977 124.203L 63.1985 34.0543L 10 130.046L 28.6641 141.898ZM 211.977 124.203L 360.086 34.0543L 320.572 10L 211.977 76.0977L 102.8916 10L 63.1985 34.0543L 211.977 124.203ZM 360.080078 34.046875L 643.991078 34.046875L 667.991078 82.046875L 643.991078 130.046875L 413.936478 130.046875L 360.080078 34.046875Z"></path></g></g></g><g id="g-root-2.cu_sy_1ly0xg6199u96y-fill" data-item-order="-641650" transform="translate(159, 218.85546875)"><g id="2.cu_sy_1ly0xg6199u96y-fill" stroke="none" fill="#de8431"><g><path d="M 381.985594 79.2188L 307.926594 34.1445L 254.058594 130.14L 272.899994 142.098L 381.985594 208.195L 381.985594 79.2188ZM 381.985594 208.195L 490.579594 142.098L 509.976594 130.14L 456.039594 34.1482L 381.985594 79.2188L 381.985594 208.195ZM 416.371594 10L 381.985594 30.9297L 347.443494 10L 307.926594 34.1445L 381.985594 79.2188L 456.039594 34.1482L 416.371594 10ZM 34 34.144531L 307.936 34.144531L 254.059 130.144531L 34 130.144531L 10 82.144531L 34 34.144531Z"></path></g></g></g><g id="g-root-1.cu_sy_hs5cmu18zxfyn-fill" data-item-order="-641646" transform="translate(477.1318359375, 111)"><g id="1.cu_sy_hs5cmu18zxfyn-fill" stroke="none" fill="#92bd39"><g><path d="M 63.8534 138.785L 98.2397 117.855L 117.712 106.0035L 63.8534 10L 63.8534 138.785ZM 29.3117 117.855L 63.8534 138.785L 63.8534 10L 10 106.0035L 29.3117 117.855ZM 63.826172 10L 339.868172 10L 363.868172 58L 339.868172 106L 117.694772 106L 63.826172 10Z"></path></g></g></g><g id="g-root-tx_serverse_1q87t4m18zxhxq-fill" data-item-order="0" transform="translate(465, 27)"><g id="tx_serverse_1q87t4m18zxhxq-fill" stroke="none" fill="#484848"><g><text style="font: bold 25px Roboto, sans-serif; white-space: pre;" font-weight="bold" font-size="25px" font-family="Roboto, sans-serif"><tspan x="15.72" y="42.5" dominant-baseline="ideographic">웹 서버 구성</tspan></text></g></g></g><g id="g-root-tx_certbot_4ik9iu18zxgjx-fill" data-item-order="0" transform="translate(591, 123)"><g id="tx_certbot_4ik9iu18zxgjx-fill" stroke="none" fill="#ffffff"><g><text style="font: bold 20px Roboto, sans-serif; white-space: pre;" font-weight="bold" font-size="20px" font-family="Roboto, sans-serif"><tspan x="12" y="33.5" dominant-baseline="ideographic">Certbot</tspan></text></g></g></g><g id="g-root-tx_tooltoau_140htfa18zxfr6-fill" data-item-order="0" transform="translate(591, 159)"><g id="tx_tooltoau_140htfa18zxfr6-fill" stroke="none" fill="#ffffff"><g><text style="font: 15px Roboto, sans-serif; white-space: pre;" font-size="15px" font-family="Roboto, sans-serif"><tspan x="12" y="27.5" dominant-baseline="ideographic">Tool to automate SSL </tspan><tspan x="12" y="45.5" dominant-baseline="ideographic">certificate installation</tspan></text></g></g></g><g id="g-root-tx_neweleme_zkonyu199vo5g-fill" data-item-order="0" transform="translate(327, 255)"><g id="tx_neweleme_zkonyu199vo5g-fill" stroke="none" fill="#ffffff"><g><text style="font: 20px Roboto, sans-serif; white-space: pre;" font-size="20px" font-family="Roboto, sans-serif"><tspan x="19.44" y="33.5" dominant-baseline="ideographic">My-Sql</tspan></text></g></g></g><g id="g-root-tx_neweleme_1q6z7me199vo5f-fill" data-item-order="0" transform="translate(183, 291)"><g id="tx_neweleme_1q6z7me199vo5f-fill" stroke="none" fill="#ffffff"><g><text style="font: 15px Roboto, sans-serif; white-space: pre;" font-size="15px" font-family="Roboto, sans-serif"><tspan x="14.15" y="27.5" dominant-baseline="ideographic">DataBase Management System</tspan></text></g></g></g><g id="g-root-tx_nginxser_de79rq18zxfr8-fill" data-item-order="0" transform="translate(747, 387)"><g id="tx_nginxser_de79rq18zxfr8-fill" stroke="none" fill="#ffffff"><g><text style="font: bold 20px Roboto, sans-serif; white-space: pre;" font-weight="bold" font-size="20px" font-family="Roboto, sans-serif"><tspan x="12" y="33.5" dominant-baseline="ideographic">Nginx</tspan></text></g></g></g><g id="g-root-tx_highperf_1umsd2u18zxfr5-fill" data-item-order="0" transform="translate(747, 423)"><g id="tx_highperf_1umsd2u18zxfr5-fill" stroke="none" fill="#ffffff"><g><text style="font: 15px Roboto, sans-serif; white-space: pre;" font-size="15px" font-family="Roboto, sans-serif"><tspan x="12" y="27.5" dominant-baseline="ideographic">High-performance web server </tspan><tspan x="12" y="45.5" dominant-baseline="ideographic">and reverse proxy</tspan></text></g></g></g><g id="g-root-tx_ubuntuse_qp1b1y18zxhc3-fill" data-item-order="0" transform="translate(111, 519)"><g id="tx_ubuntuse_qp1b1y18zxhc3-fill" stroke="none" fill="#ffffff"><g><text style="font: bold 20px Roboto, sans-serif; white-space: pre;" font-weight="bold" font-size="20px" font-family="Roboto, sans-serif"><tspan x="23.47" y="33.5" dominant-baseline="ideographic">Ubuntu Server</tspan></text></g></g></g><g id="g-root-tx_opensour_dcbuie18zxgqw-fill" data-item-order="0" transform="translate(99, 555)"><g id="tx_opensour_dcbuie18zxgqw-fill" stroke="none" fill="#ffffff"><g><text style="font: 15px Roboto, sans-serif; white-space: pre;" font-size="15px" font-family="Roboto, sans-serif"><tspan x="12.7" y="27.5" dominant-baseline="ideographic">Open-source operating </tspan><tspan x="40.25" y="45.5" dominant-baseline="ideographic">system for servers</tspan></text></g></g></g><g id="g-root-3.cu_sy_13yme5y18zxgqt-stroke" data-item-order="-641658" transform="translate(15, 483)"><g id="3.cu_sy_13yme5y18zxgqt-stroke" fill="none" stroke-linecap="round" stroke-linejoin="round" stroke-miterlimit="4" stroke="#ffffff" stroke-width="2"><g><path d="M 250 130.1484L 526.0448 298.1484L 526.0448 169.3711L 303.8673 34.1437L 250 130.1484ZM 526.0448 298.1484L 802.0596 130.1484L 748.2081 34.1484L 526.0448 169.3711L 526.0448 298.1484ZM 526.0448 121.0742L 342.7321 10L 303.8673 34.1437L 526.0448 169.3711L 748.2081 34.1484L 708.5335 10L 526.0448 121.0742ZM 34 34L 303.8047 34L 249.9416 130L 34 130L 10 82L 34 34Z"></path></g></g></g><g id="g-root-2.cu_sy_qn5vsm18zxibq-stroke" data-item-order="-641654" transform="translate(329.0087890625, 350.953125)"><g id="2.cu_sy_qn5vsm18zxibq-stroke" fill="none" stroke-linecap="round" stroke-linejoin="round" stroke-miterlimit="4" stroke="#ffffff" stroke-width="2"><g><path d="M 211.9768 252.9727L 413.9383 130.0461L 360.0863 34.0543L 211.9768 124.2031L 211.9768 252.9727ZM 28.6641 141.8984L 211.9768 252.9727L 211.9768 124.2031L 63.1985 34.0543L 10 130.0461L 28.6641 141.8984ZM 211.9768 124.2031L 360.0863 34.0543L 320.5716 10L 211.9768 76.0977L 102.8916 10L 63.1985 34.0543L 211.9768 124.2031ZM 360.080078 34.046875L 643.991178 34.046875L 667.991178 82.046875L 643.991178 130.046875L 413.936478 130.046875L 360.080078 34.046875Z"></path></g></g></g><g id="g-root-2.cu_sy_1ly0xg6199u96y-stroke" data-item-order="-641650" transform="translate(159, 218.85546875)"><g id="2.cu_sy_1ly0xg6199u96y-stroke" fill="none" stroke-linecap="round" stroke-linejoin="round" stroke-miterlimit="4" stroke="#ffffff" stroke-width="2"><g><path d="M 381.985194 79.2188L 307.926594 34.1445L 254.058594 130.1399L 272.899994 142.0977L 381.985194 208.1953L 381.985194 79.2188ZM 381.985194 208.1953L 490.579994 142.0977L 509.976894 130.1399L 456.039994 34.1482L 381.985194 79.2188L 381.985194 208.1953ZM 416.371494 10L 381.985194 30.9297L 347.443494 10L 307.926594 34.1445L 381.985194 79.2188L 456.039994 34.1482L 416.371494 10ZM 34 34.144531L 307.9355 34.144531L 254.0586 130.144531L 34 130.144531L 10 82.144531L 34 34.144531Z"></path></g></g></g><g id="g-root-1.cu_sy_hs5cmu18zxfyn-stroke" data-item-order="-641646" transform="translate(477.1318359375, 111)"><g id="1.cu_sy_hs5cmu18zxfyn-stroke" fill="none" stroke-linecap="round" stroke-linejoin="round" stroke-miterlimit="4" stroke="#ffffff" stroke-width="2"><g><path d="M 63.8534 138.7852L 117.7119 106.0035L 63.8534 10L 63.8534 138.7852ZM 29.3117 117.8555L 63.8534 138.7852L 63.8534 10L 10 106.0035L 29.3117 117.8555ZM 63.826172 10L 339.868272 10L 363.868272 58L 339.868272 106L 117.694772 106L 63.826172 10Z"></path></g></g></g><g id="g-root-tx_serverse_1q87t4m18zxhxq-stroke" data-item-order="0" transform="translate(465, 27)"></g><g id="g-root-tx_certbot_4ik9iu18zxgjx-stroke" data-item-order="0" transform="translate(591, 123)"></g><g id="g-root-tx_tooltoau_140htfa18zxfr6-stroke" data-item-order="0" transform="translate(591, 159)"></g><g id="g-root-tx_neweleme_zkonyu199vo5g-stroke" data-item-order="0" transform="translate(327, 255)"></g><g id="g-root-tx_neweleme_1q6z7me199vo5f-stroke" data-item-order="0" transform="translate(183, 291)"></g><g id="g-root-tx_nginxser_de79rq18zxfr8-stroke" data-item-order="0" transform="translate(747, 387)"></g><g id="g-root-tx_highperf_1umsd2u18zxfr5-stroke" data-item-order="0" transform="translate(747, 423)"></g><g id="g-root-tx_ubuntuse_qp1b1y18zxhc3-stroke" data-item-order="0" transform="translate(111, 519)"></g><g id="g-root-tx_opensour_dcbuie18zxgqw-stroke" data-item-order="0" transform="translate(99, 555)"></g></g></g></svg>