<?xml version="1.0" encoding="utf-8" standalone="yes"?>
<!DOCTYPE svg PUBLIC "-//W3C//DTD SVG 1.1//EN" "http://www.w3.org/Graphics/SVG/1.1/DTD/svg11.dtd">
<svg width="620" height="362" viewBox="0 0 620 362" style="fill:none;stroke:none;fill-rule:evenodd;clip-rule:evenodd;stroke-linecap:round;stroke-linejoin:round;stroke-miterlimit:1.5;" version="1.1" xmlns="http://www.w3.org/2000/svg" xmlns:xlink="http://www.w3.org/1999/xlink"><style class="text-font-style fontImports" data-font-family="Roboto">@import url('https://fonts.googleapis.com/css2?family=Roboto:wght@400;700&amp;display=block');</style><g id="items" style="isolation: isolate"><g id="blend" style="mix-blend-mode: normal"><g id="g-root-2.cr-2_cr_18it4r913zwdtv-fill" data-item-order="-46650" transform="translate(404.99993896484375, 99)"><g id="2.cr-2_cr_18it4r913zwdtv-fill" stroke="none" fill="#3cc583"><g><path d="M 10 64C 10 93.823377 34.176624 118 64 118C 93.823377 118 118 93.823377 118 64C 118 34.176624 93.823377 10 64 10C 34.176624 10 10 34.176624 10 64"></path></g></g></g><g id="g-root-1.cr-1_cr_znsllh13zwbgs-fill" data-item-order="-46646" transform="translate(80.99996948242188, 99)"><g id="1.cr-1_cr_znsllh13zwbgs-fill" stroke="none" fill="#4e88e7"><g><path d="M 10 64C 10 93.823377 34.176624 118 64 118C 93.823377 118 118 93.823377 118 64C 118 34.176624 93.823377 10 64 10C 34.176624 10 10 34.176624 10 64"></path></g></g></g><g id="g-root-serv_v9uiqd13zwb9d-fill" data-item-order="-5184" transform="translate(99, 117)"><g id="serv_v9uiqd13zwb9d-fill" stroke="none" fill="#484848"><g><path d="M 81.589005 12.01C 81.122864 10.896524 80.033112 10.172384 78.826004 10.174L 70.071999 10.174C 68.857491 10.173043 67.76223 10.90444 67.297722 12.026609C 66.833221 13.148779 67.091125 14.4403 67.950996 15.298L 70.204002 17.551001L 66.489998 21.264999C 65.317314 22.437145 65.317093 24.338078 66.48951 25.510494C 67.661919 26.682911 69.562851 26.68269 70.735001 25.51L 74.448997 21.796L 76.701996 24.049C 77.559982 24.906723 78.850113 25.163265 79.970963 24.699034C 81.09182 24.234802 81.822739 23.141188 81.822998 21.927999L 81.822998 13.174C 81.823647 12.774254 81.74408 12.378441 81.588997 12.01ZM 13.174 10.174C 11.517146 10.174 10.174 11.517146 10.174 13.174L 10.174 21.927999C 10.173043 23.142506 10.90444 24.23777 12.026609 24.702276C 13.148779 25.16678 14.4403 24.908873 15.298 24.049L 17.551001 21.796L 21.264999 25.51C 22.437145 26.68269 24.338078 26.682911 25.510494 25.510494C 26.682911 24.338078 26.68269 22.437145 25.51 21.264999L 21.796 17.551001L 24.049 15.298C 24.908873 14.4403 25.16678 13.148779 24.702276 12.026609C 24.23777 10.90444 23.142506 10.173043 21.927999 10.174L 13.174 10.174ZM 12.028 67.300003C 13.149333 66.835548 14.440043 67.092499 15.298 67.950996L 17.551001 70.207001L 21.264999 66.489998C 22.437145 65.317314 24.338078 65.317093 25.510494 66.48951C 26.682911 67.661919 26.68269 69.562851 25.51 70.735001L 21.796 74.448997L 24.049 76.705002C 24.906723 77.562981 25.163265 78.853111 24.699034 79.973961C 24.234802 81.094818 23.141188 81.825745 21.927999 81.825996L 13.174 81.825996C 12.377372 81.829201 11.612446 81.51416 11.049141 80.950859C 10.485835 80.38755 10.170794 79.622627 10.174 78.825996L 10.174 70.071999C 10.174197 68.857986 10.906051 67.763756 12.028 67.300003ZM 79.972 67.300003C 81.092773 67.764687 81.823303 68.858719 81.822998 70.071999L 81.822998 78.825996C 81.826004 79.943741 81.2043 80.969505 80.212006 81.484001C 79.784462 81.708427 79.308868 81.825783 78.826004 81.826004L 70.071999 81.825996C 68.85881 81.825745 67.765198 81.094818 67.300964 79.973961C 66.836731 78.853111 67.093277 77.562981 67.950996 76.705002L 70.207001 74.448997L 66.489998 70.735001C 65.317314 69.562851 65.317093 67.661919 66.48951 66.48951C 67.661919 65.317093 69.562851 65.317314 70.735001 66.489998L 74.448997 70.207001L 76.701996 67.950996C 77.559952 67.092499 78.850662 66.835548 79.972 67.300003ZM 64.591003 31.987C 65.45472 30.57439 67.299576 30.12862 68.712997 30.991001C 74.577995 34.572998 78.850006 39.886002 78.850006 46.150002C 78.850006 53.917 72.694 59.797005 65.100998 63.279999C 63.59409 63.970901 61.812405 63.309406 61.121498 61.802498C 60.430588 60.295586 61.092091 58.513908 62.598999 57.822998C 69.405998 54.702999 72.850006 50.383003 72.850006 46.150002C 72.850006 42.813999 70.522003 39.130001 65.586998 36.109001C 64.174393 35.245277 63.728622 33.400429 64.591003 31.987ZM 26.650002 35.845001C 27.609547 35.324341 28.21051 34.323524 28.21913 33.231857C 28.227749 32.140186 27.642662 31.130009 26.691458 30.594259C 25.740253 30.058512 24.573101 30.081776 23.643999 30.655001C 17.527 34.197998 12.85 39.505001 12.85 46.150002C 12.85 53.917 19.006001 59.797005 26.598999 63.279999C 28.105907 63.970901 29.887592 63.309406 30.578499 61.802498C 31.269407 60.295586 30.607908 58.513908 29.100998 57.822998C 22.294001 54.702999 18.85 50.383003 18.85 46.150002C 18.85 42.598 21.375999 38.902 26.653 35.845001ZM 46 40.831001C 52.672001 40.831001 58.077995 38.611 58.077995 35.868999C 58.077995 33.130001 52.672001 30.91 46 30.91C 39.327999 30.91 33.922001 33.130001 33.922001 35.868999C 33.922001 38.611 39.327999 40.831001 46 40.831001ZM 56.250999 43.540001C 53.401001 44.709999 49.774002 45.331001 46 45.331001C 42.225998 45.331001 38.598999 44.709999 35.749001 43.540001C 35.008583 43.239433 34.29332 42.880295 33.610001 42.466003L 33.610001 47.686001C 33.706032 47.93145 33.860497 48.149765 34.060001 48.321999C 34.521999 48.771999 35.311001 49.281998 36.472 49.756001C 38.787998 50.701 42.151001 51.324997 46 51.324997C 49.848999 51.324997 53.212002 50.701 55.528 49.756001C 56.688999 49.281998 57.478001 48.771999 57.939999 48.321999C 58.139503 48.149765 58.293968 47.93145 58.390003 47.686001L 58.389999 42.466C 57.699997 42.891998 56.971001 43.245998 56.250999 43.540001ZM 33.610001 53.397999L 33.610001 55.342003C 33.610001 56.493999 34.171001 57.453999 34.915001 58.18C 35.650002 58.899998 36.634003 59.470001 37.729 59.917C 39.918999 60.811001 42.844002 61.314999 46 61.314999C 49.155998 61.314999 52.077999 60.811001 54.271 59.917C 55.365997 59.473 56.349998 58.899998 57.084999 58.18C 57.828999 57.453999 58.389999 56.496998 58.389999 55.342003L 58.389999 53.395C 58.009033 53.586121 57.620735 53.762253 57.225998 53.922997C 54.237999 55.140999 50.265999 55.824997 46 55.824997C 41.730999 55.824997 37.762001 55.140999 34.774002 53.923C 34.379333 53.763176 33.991039 53.588043 33.610001 53.397999Z"></path></g></g></g><g id="g-root-squa_zmjnf9140203r-fill" data-item-order="-5184" transform="translate(423, 117)"><g id="squa_zmjnf9140203r-fill" stroke="none" fill="#484848"><g><path d="M 17.049999 12.556C 14.564719 12.556 12.55 14.570719 12.55 17.056L 12.55 32.506001C 12.55 34.99128 14.564719 37.006001 17.050001 37.006001L 32.5 37.006001C 34.985283 37.006001 37 34.99128 37 32.506001L 37 27.778L 56.613998 27.778C 60.817436 27.778 64.225006 31.185562 64.225006 35.389C 64.225006 39.592438 60.817436 43 56.613998 43L 35.386002 43C 27.867979 42.998768 21.772762 49.092979 21.772762 56.611C 21.772762 64.129021 27.867979 70.223236 35.386002 70.222L 55 70.222L 55 74.949997C 55 77.435287 57.014721 79.450005 59.5 79.450005L 74.949997 79.449997C 77.435287 79.450005 79.450005 77.435287 79.450005 74.950005L 79.449997 59.5C 79.450005 57.014721 77.435287 55 74.950005 55L 59.5 55C 57.014721 55 55 57.014721 55 59.5L 55 64.222L 35.386002 64.222C 31.18256 64.222 27.775002 60.814438 27.775002 56.611C 27.775002 52.407562 31.18256 49 35.386002 49L 56.613998 49C 64.132027 49.001236 70.227242 42.907021 70.227242 35.389C 70.227242 27.870979 64.132027 21.776766 56.613998 21.778L 37 21.778L 37 17.056C 37 14.570719 34.985283 12.556 32.5 12.556L 17.049999 12.556Z"></path></g></g></g><g id="g-root-tx_spring_1uuwmdx13zuygz-fill" data-item-order="0" transform="translate(201, 39)"><g id="tx_spring_1uuwmdx13zuygz-fill" stroke="none" fill="#484848"><g><text style="font: bold 20px Roboto, sans-serif; white-space: pre;" font-weight="bold" font-size="20px" font-family="Roboto, sans-serif"><tspan x="17.01" y="33.5" dominant-baseline="ideographic">데이터베이스 상호작용</tspan></text></g></g></g><g id="g-root-ligh_qoetzp1407mdp-fill" data-item-order="0" transform="translate(261, 117)"></g><g id="g-root-tx_springjp_18kok0l13zwcu8-fill" data-item-order="0" transform="translate(81, 219)"><g id="tx_springjp_18kok0l13zwcu8-fill" stroke="none" fill="#4e88e7"><g><text style="font: bold 20px Roboto, sans-serif; white-space: pre;" font-weight="bold" font-size="20px" font-family="Roboto, sans-serif"><tspan x="14.16" y="33.5" dominant-baseline="ideographic">Spring JPA</tspan></text></g></g></g><g id="g-root-tx_springda_91i1xx13zwbgu-fill" data-item-order="0" transform="translate(375, 219)"><g id="tx_springda_91i1xx13zwbgu-fill" stroke="none" fill="#3cc583"><g><text style="font: bold 20px Roboto, sans-serif; white-space: pre;" font-weight="bold" font-size="20px" font-family="Roboto, sans-serif"><tspan x="14.02" y="33.5" dominant-baseline="ideographic">Spring Data JDBC</tspan></text></g></g></g><g id="g-root-tx_orm_1qbc3f913zwdmv-fill" data-item-order="0" transform="translate(39, 255)"><g id="tx_orm_1qbc3f913zwdmv-fill" stroke="none" fill="#3a4455"><g><text style="font: 20px Roboto, sans-serif; white-space: pre;" font-size="20px" font-family="Roboto, sans-serif"><tspan x="24.88" y="33.5" dominant-baseline="ideographic">ORM을 통한 복잡한 </tspan><tspan x="14.54" y="57.5" dominant-baseline="ideographic">데이터베이스 작업 관리</tspan></text></g></g></g><g id="g-root-tx_jdbc_mcc38513zwd1p-fill" data-item-order="0" transform="translate(387, 255)"><g id="tx_jdbc_mcc38513zwd1p-fill" stroke="none" fill="#374840"><g><text style="font: 20px Roboto, sans-serif; white-space: pre;" font-size="20px" font-family="Roboto, sans-serif"><tspan x="34.92" y="33.5" dominant-baseline="ideographic">JDBC 기반 </tspan><tspan x="16.49" y="57.5" dominant-baseline="ideographic">데이터 접근 제공</tspan></text></g></g></g><g id="g-root-2.cr-2_cr_18it4r913zwdtv-stroke" data-item-order="-46650" transform="translate(404.99993896484375, 99)"><g id="2.cr-2_cr_18it4r913zwdtv-stroke" fill="none" stroke-linecap="round" stroke-linejoin="round" stroke-miterlimit="4" stroke="#ffffff" stroke-width="2"><g><path d="M 10 64C 10 93.823377 34.176624 118 64 118C 93.823377 118 118 93.823377 118 64C 118 34.176624 93.823377 10 64 10C 34.176624 10 10 34.176624 10 64"></path></g></g></g><g id="g-root-1.cr-1_cr_znsllh13zwbgs-stroke" data-item-order="-46646" transform="translate(80.99996948242188, 99)"><g id="1.cr-1_cr_znsllh13zwbgs-stroke" fill="none" stroke-linecap="round" stroke-linejoin="round" stroke-miterlimit="4" stroke="#ffffff" stroke-width="2"><g><path d="M 10 64C 10 93.823377 34.176624 118 64 118C 93.823377 118 118 93.823377 118 64C 118 34.176624 93.823377 10 64 10C 34.176624 10 10 34.176624 10 64"></path></g></g></g><g id="g-root-serv_v9uiqd13zwb9d-stroke" data-item-order="-5184" transform="translate(99, 117)"></g><g id="g-root-squa_zmjnf9140203r-stroke" data-item-order="-5184" transform="translate(423, 117)"></g><g id="g-root-tx_spring_1uuwmdx13zuygz-stroke" data-item-order="0" transform="translate(201, 39)"></g><g id="g-root-ligh_qoetzp1407mdp-stroke" data-item-order="0" transform="translate(261, 117)"><g id="ligh_qoetzp1407mdp-stroke" fill="none" stroke-linecap="round" stroke-linejoin="round" stroke-miterlimit="4" stroke="#484848" stroke-width="2"><g><path d="M 43.7155 60.25L 41.78965 75.448456C 41.6017 76.932404 43.444153 77.732651 44.395 76.57795C 47.01955 73.3909 50.811699 68.769402 54.856899 63.833954M 69.831848 45.546398C 71.379852 43.654751 72.706451 42.033249 73.705299 40.812103C 74.506447 39.832748 73.809097 38.36335 72.543854 38.36335L 69.158348 38.36335M 25.079649 52.911999L 19.49548 52.911999C 18.223511 52.911999 17.52829 51.428951 18.342926 50.452148L 22.779266 45.132549M 35.112999 30.346449C 39.87685 24.636566 44.504349 19.091724 47.564949 15.428576C 48.525852 14.278646 50.384201 15.095304 50.190849 16.581249L 48.589302 28.888599M 40.897453 54.801849L 46.692249 35.308601C 46.978149 34.346951 46.257702 33.3811 45.254501 33.3811L 42.439301 33.3811C 41.771049 33.3811 41.18335 33.823151 40.9981 34.465149L 36.3946 50.412849C 36.289299 50.77795 35.77 50.772701 35.67205 50.405647L 31.4233 34.494099C 31.2481 33.8377 30.6535 33.3811 29.97415 33.3811L 26.994999 33.3811C 25.99645 33.3811 25.276749 34.338249 25.553949 35.297501L 31.17985 54.7687C 31.7362 56.694099 33.498852 58.019501 35.503002 58.019501L 36.584049 58.019501C 38.575451 58.019501 40.329998 56.710602 40.897453 54.801849ZM 55.995251 52.8979C 54.671501 52.8979 53.315948 52.649349 52.157799 52.296249C 51.212952 52.008099 50.137451 52.530552 49.935249 53.497299L 49.494553 55.60405C 49.356548 56.263451 49.675148 56.93755 50.312199 57.156551C 51.677353 57.6259 53.664398 58.020248 55.7164 58.020248C 62.197296 58.020248 65.500153 54.6562 65.500153 50.398453C 65.500153 47.324951 63.797348 44.9491 59.738503 43.285149C 56.776901 42.0355 55.727348 41.490551 55.727348 40.328049C 55.727348 39.259899 56.758598 38.467899 58.703651 38.467899C 59.83075 38.467899 60.802898 38.636799 61.608551 38.862099C 62.52655 39.118752 63.545498 38.638149 63.765404 37.710701L 64.243744 35.694248C 64.408752 34.998253 64.061646 34.273598 63.381096 34.053402C 62.162048 33.658901 60.618248 33.381851 58.743996 33.381851C 52.776852 33.381851 49.470402 36.687851 49.470402 40.843899C 49.470402 43.873749 51.5695 46.227848 55.602547 47.924351C 58.15675 48.945248 59.221001 49.66465 59.221001 50.874397C 59.221001 52.084152 58.112801 52.8979 55.995251 52.8979Z"></path></g></g></g><g id="g-root-tx_springjp_18kok0l13zwcu8-stroke" data-item-order="0" transform="translate(81, 219)"></g><g id="g-root-tx_springda_91i1xx13zwbgu-stroke" data-item-order="0" transform="translate(375, 219)"></g><g id="g-root-tx_orm_1qbc3f913zwdmv-stroke" data-item-order="0" transform="translate(39, 255)"></g><g id="g-root-tx_jdbc_mcc38513zwd1p-stroke" data-item-order="0" transform="translate(387, 255)"></g></g></g></svg>