<?xml version="1.0" encoding="utf-8" standalone="yes"?>
<!DOCTYPE svg PUBLIC "-//W3C//DTD SVG 1.1//EN" "http://www.w3.org/Graphics/SVG/1.1/DTD/svg11.dtd">
<svg width="422" height="527" viewBox="0 0 422 527" style="fill:none;stroke:none;fill-rule:evenodd;clip-rule:evenodd;stroke-linecap:round;stroke-linejoin:round;stroke-miterlimit:1.5;" version="1.1" xmlns="http://www.w3.org/2000/svg" xmlns:xlink="http://www.w3.org/1999/xlink"><style class="text-font-style fontImports" data-font-family="Roboto">@import url('https://fonts.googleapis.com/css2?family=Roboto:wght@400;700&amp;display=block');</style><g id="items" style="isolation: isolate"><g id="blend" style="mix-blend-mode: normal"><g id="g-root-0.g-0_fr_4osnrk13pvbb9-fill" data-item-order="-161543" transform="translate(27.130859375, 236)"></g><g id="g-root-1.g-1_fr_1uu9phs13pvbwv-fill" data-item-order="-161532" transform="translate(66.13101196289062, 112.5)"><g id="1.g-1_fr_1uu9phs13pvbwv-fill" stroke="none" fill="#4e88e7"><g><path d="M 100 55C 100 66.244 94.5 77.5875 89 86L 55.816 132.848C 55.4175 133.411 54.5825 133.411 54.184 132.848L 21 86C 14.5 77 10 66.7284 10 55C 10 30.1472 30.1472 10 55 10C 79.8528 10 100 30.1472 100 55ZM 55 91C 74.8822 91 91 74.8822 91 55C 91 35.1177 74.8822 19 55 19C 35.1177 19 19 35.1177 19 55C 19 74.8822 35.1177 91 55 91Z"></path></g></g><g id="1.g-1_fr_1uu9phs13pvbwv-fill" stroke="none" fill="#4e88e7"><g><path d="M 55 187C 61.6274 187 67 181.6274 67 175C 67 168.3726 61.6274 163 55 163C 48.3726 163 43 168.3726 43 175C 43 181.6274 48.3726 187 55 187ZM 55 181C 58.3137 181 61 178.3137 61 175C 61 171.6863 58.3137 169 55 169C 51.6863 169 49 171.6863 49 175C 49 178.3137 51.6863 181 55 181Z"></path></g></g></g><g id="g-root-2.g-2_fr_1lymp8w13pvdhe-fill" data-item-order="-161528" transform="translate(246.1309814453125, 265.5)"><g id="2.g-2_fr_1lymp8w13pvdhe-fill" stroke="none" fill="#3cc583"><g><path d="M 100 142.000369C 100 130.756469 94.5 119.412869 89 111.000369L 55.816 64.152469C 55.4175 63.589769 54.5825 63.589769 54.184 64.152469L 21 111.000369C 14.5 120.000369 10 130.271969 10 142.000369C 10 166.853469 30.1472 187.000469 55 187.000469C 79.8528 187.000469 100 166.853469 100 142.000369ZM 55 106.000369C 74.8822 106.000369 91 122.118169 91 142.000369C 91 161.882669 74.8822 178.000469 55 178.000469C 35.1177 178.000469 19 161.882669 19 142.000369C 19 122.118169 35.1177 106.000369 55 106.000369Z"></path></g></g><g id="2.g-2_fr_1lymp8w13pvdhe-fill" stroke="none" fill="#3cc583"><g><path d="M 55 34C 61.6274 34 67 28.6274 67 22C 67 15.3726 61.6274 10 55 10C 48.3726 10 43 15.3726 43 22C 43 28.6274 48.3726 34 55 34ZM 55 28C 58.3137 28 61 25.3137 61 22C 61 18.6863 58.3137 16 55 16C 51.6863 16 49 18.6863 49 22C 49 25.3137 51.6863 28 55 28Z"></path></g></g></g><g id="g-root-tx__18nsnyo13pvbwl-fill" data-item-order="0" transform="translate(141, 49.5)"><g id="tx__18nsnyo13pvbwl-fill" stroke="none" fill="#484848"><g><text style="font: bold 20px Roboto, sans-serif; white-space: pre;" font-weight="bold" font-size="20px" font-family="Roboto, sans-serif"><tspan x="13.13" y="33.5" dominant-baseline="ideographic">호주 어학 연수</tspan></text></g></g></g><g id="g-root-grad_4njplc13q3t3b-fill" data-item-order="0" transform="translate(87.1309814453125, 133.5)"></g><g id="g-root-tx_20184_4marf413q3qx7-fill" data-item-order="0" transform="translate(207, 133.5)"><g id="tx_20184_4marf413q3qx7-fill" stroke="none" fill="#3cc583"><g><text style="font: bold 20px Roboto, sans-serif; white-space: pre;" font-weight="bold" font-size="20px" font-family="Roboto, sans-serif"><tspan x="45.52" y="33.5" dominant-baseline="ideographic">2018년 4월</tspan></text></g></g></g><g id="g-root-tx__1lw4swg13q3t38-fill" data-item-order="0" transform="translate(207, 169.5)"><g id="tx__1lw4swg13q3t38-fill" stroke="none" fill="#374840"><g><text style="font: 15px Roboto, sans-serif; white-space: pre;" font-size="15px" font-family="Roboto, sans-serif"><tspan x="51.35" y="30.5" dominant-baseline="ideographic">어학 연수 완료</tspan></text></g></g></g><g id="g-root-tx_20173_zpnrdc13q3sb1-fill" data-item-order="0" transform="translate(27, 361.5)"><g id="tx_20173_zpnrdc13q3sb1-fill" stroke="none" fill="#4e88e7"><g><text style="font: bold 20px Roboto, sans-serif; white-space: pre;" font-weight="bold" font-size="20px" font-family="Roboto, sans-serif"><tspan x="45.52" y="33.5" dominant-baseline="ideographic">2017년 3월</tspan></text></g></g></g><g id="g-root-resu_vcc5lc13pvdhi-fill" data-item-order="0" transform="translate(267.1309814453125, 373.5)"></g><g id="g-root-tx__metq3413q3qq6-fill" data-item-order="0" transform="translate(27, 397.5)"><g id="tx__metq3413q3qq6-fill" stroke="none" fill="#3a4455"><g><text style="font: 15px Roboto, sans-serif; white-space: pre;" font-size="15px" font-family="Roboto, sans-serif"><tspan x="17.05" y="30.5" dominant-baseline="ideographic">호주에서의 어학 연수 시작</tspan></text></g></g></g><g id="g-root-0.g-0_fr_4osnrk13pvbb9-stroke" data-item-order="-161543" transform="translate(27.130859375, 236)"><g id="0.g-0_fr_4osnrk13pvbb9-stroke" fill="none" stroke-linecap="round" stroke-linejoin="round" stroke-miterlimit="4" stroke="#484848" stroke-width="2"><g><path d="M 106 51L 262 51M 285.869141 51.5L 357.869141 51.5M 274 63.5L 274 93M 10 51L 82 51M 94 10L 94 39.5"></path></g></g></g><g id="g-root-1.g-1_fr_1uu9phs13pvbwv-stroke" data-item-order="-161532" transform="translate(66.13101196289062, 112.5)"><g id="1.g-1_fr_1uu9phs13pvbwv-stroke" fill="none" stroke-linecap="round" stroke-linejoin="round" stroke-miterlimit="4" stroke="#ffffff" stroke-width="2"><g><path d="M 100 55C 100 66.244 94.5 77.5875 89 86L 55.816 132.848C 55.4175 133.4106 54.5825 133.4106 54.184 132.848L 21 86C 14.5 77 10 66.7284 10 55C 10 30.1472 30.1472 10 55 10C 79.8528 10 100 30.1472 100 55ZM 55 91C 74.8822 91 91 74.8822 91 55C 91 35.1177 74.8822 19 55 19C 35.1177 19 19 35.1177 19 55C 19 74.8822 35.1177 91 55 91Z"></path></g></g><g id="1.g-1_fr_1uu9phs13pvbwv-stroke" fill="none" stroke-linecap="round" stroke-linejoin="round" stroke-miterlimit="4" stroke="#ffffff" stroke-width="2"><g><path d="M 55 187C 61.6274 187 67 181.6274 67 175C 67 168.3726 61.6274 163 55 163C 48.3726 163 43 168.3726 43 175C 43 181.6274 48.3726 187 55 187ZM 55 181C 58.3137 181 61 178.3137 61 175C 61 171.6863 58.3137 169 55 169C 51.6863 169 49 171.6863 49 175C 49 178.3137 51.6863 181 55 181Z"></path></g></g></g><g id="g-root-2.g-2_fr_1lymp8w13pvdhe-stroke" data-item-order="-161528" transform="translate(246.1309814453125, 265.5)"><g id="2.g-2_fr_1lymp8w13pvdhe-stroke" fill="none" stroke-linecap="round" stroke-linejoin="round" stroke-miterlimit="4" stroke="#ffffff" stroke-width="2"><g><path d="M 100 142.000369C 100 130.756469 94.5 119.412869 89 111.000369L 55.816 64.152469C 55.4175 63.589769 54.5825 63.589769 54.184 64.152469L 21 111.000369C 14.5 120.000369 10 130.271969 10 142.000369C 10 166.853269 30.1472 187.000369 55 187.000369C 79.8528 187.000369 100 166.853269 100 142.000369ZM 55 106.000369C 74.8822 106.000369 91 122.118169 91 142.000369C 91 161.882669 74.8822 178.000369 55 178.000369C 35.1177 178.000369 19 161.882669 19 142.000369C 19 122.118169 35.1177 106.000369 55 106.000369Z"></path></g></g><g id="2.g-2_fr_1lymp8w13pvdhe-stroke" fill="none" stroke-linecap="round" stroke-linejoin="round" stroke-miterlimit="4" stroke="#ffffff" stroke-width="2"><g><path d="M 55 34C 61.6274 34 67 28.6274 67 22C 67 15.3726 61.6274 10 55 10C 48.3726 10 43 15.3726 43 22C 43 28.6274 48.3726 34 55 34ZM 55 28C 58.3137 28 61 25.3137 61 22C 61 18.6863 58.3137 16 55 16C 51.6863 16 49 18.6863 49 22C 49 25.3137 51.6863 28 55 28Z"></path></g></g></g><g id="g-root-tx__18nsnyo13pvbwl-stroke" data-item-order="0" transform="translate(141, 49.5)"></g><g id="g-root-grad_4njplc13q3t3b-stroke" data-item-order="0" transform="translate(87.1309814453125, 133.5)"><g id="grad_4njplc13q3t3b-stroke" fill="none" stroke-linecap="round" stroke-linejoin="round" stroke-miterlimit="4" stroke="#4e88e7" stroke-width="2"><g><path d="M 31.299601 53.299999L 18.899521 53.299999C 15.89952 53.299999 13.4995 50.900002 13.4995 47.900002L 13.4995 16.89996C 13.4995 13.89996 15.89952 11.499969 18.899521 11.499969L 33.499599 11.499969C 36.899597 11.499969 39.499599 14.09996 39.499599 17.49996L 39.499599 27.89996M 13.49952 44.299999L 31.299601 44.299999M 45.500401 44.5C 42.186798 44.5 39.500401 41.813801 39.500401 38.5C 39.500401 35.186199 42.186798 32.5 45.500401 32.5C 48.814201 32.5 51.500401 35.186199 51.500401 38.5C 51.500401 41.813801 48.814201 44.5 45.500401 44.5ZM 36.500401 56.5C 36.500401 51.5 40.500401 47.5 45.500401 47.5C 50.500401 47.5 54.500401 51.5 54.500401 56.5M 10 10M 21.499519 32.5L 25.183281 21.448681C 25.372139 20.882141 25.902321 20.5 26.499519 20.5L 26.499519 20.5C 27.096701 20.5 27.6269 20.882141 27.815741 21.448681L 31.499599 32.5M 22.83284 28.5L 30.166201 28.5"></path></g></g></g><g id="g-root-tx_20184_4marf413q3qx7-stroke" data-item-order="0" transform="translate(207, 133.5)"></g><g id="g-root-tx__1lw4swg13q3t38-stroke" data-item-order="0" transform="translate(207, 169.5)"></g><g id="g-root-tx_20173_zpnrdc13q3sb1-stroke" data-item-order="0" transform="translate(27, 361.5)"></g><g id="g-root-resu_vcc5lc13pvdhi-stroke" data-item-order="0" transform="translate(267.1309814453125, 373.5)"><g id="resu_vcc5lc13pvdhi-stroke" fill="none" stroke-linecap="round" stroke-linejoin="round" stroke-miterlimit="4" stroke="#3cc583" stroke-width="2"><g><path d="M 25.52799 43.173977L 11.999999 43.173977L 11.999999 21.493994L 21.575993 11.917998L 36.259983 11.917998L 36.259983 19.749994M 17.231995 35.471985L 23.487991 35.471985M 17.231995 29.717987L 24.849991 29.717987M 50.499973 38.471981C 50.500946 42.146461 47.522461 45.125736 43.847977 45.125736C 40.173492 45.125736 37.195007 42.146461 37.19598 38.471981M 55.911968 56.035969C 54.289749 50.815308 49.466839 47.251568 43.999977 47.233978L 43.849976 47.233978C 38.364559 47.252399 33.529911 50.839474 31.921986 56.083973M 43.757977 23.073992L 30.629986 28.915987L 43.809978 34.653984L 55.999969 29.021986L 43.757977 23.073992ZM 32.037987 29.941986L 32.037987 36.359982M 11.999999 21.493994L 21.575993 21.493994L 21.575993 11.917998M 37.19598 32.163986L 37.19598 38.471981L 50.499973 38.471981L 50.499973 32.163986"></path></g></g></g><g id="g-root-tx__metq3413q3qq6-stroke" data-item-order="0" transform="translate(27, 397.5)"></g></g></g></svg>