<?xml version="1.0" encoding="utf-8" standalone="yes"?>
<!DOCTYPE svg PUBLIC "-//W3C//DTD SVG 1.1//EN" "http://www.w3.org/Graphics/SVG/1.1/DTD/svg11.dtd">
<svg width="812" height="812" viewBox="0 0 812 812" style="fill:none;stroke:none;fill-rule:evenodd;clip-rule:evenodd;stroke-linecap:round;stroke-linejoin:round;stroke-miterlimit:1.5;" version="1.1" xmlns="http://www.w3.org/2000/svg" xmlns:xlink="http://www.w3.org/1999/xlink"><style class="text-font-style fontImports" data-font-family="Roboto">@import url('https://fonts.googleapis.com/css2?family=Roboto:wght@400;700&amp;display=block');</style><g id="items" style="isolation: isolate"><g id="blend" style="mix-blend-mode: normal"><g id="g-root-0.cu_Subtract_sy_v2znfl10o5erz-fill" data-item-order="-280790" transform="translate(341, 549.599609375)"><g id="0.cu_Subtract_sy_v2znfl10o5erz-fill" stroke="none" fill="#666666"><g><path d="M 58 10.1851L 58 158.4C 58 169.43 49.03 178.4 38 178.4C 26.97 178.4 18 169.43 18 158.4C 18 156.19 16.21 154.4 14 154.4C 11.79 154.4 10 156.19 10 158.4C 10 173.84 22.56 186.4 38 186.4C 53.44 186.4 66 173.84 66 158.4L 66 10.1851C 64.6858 10.0655 63.3497 10 62 10C 60.6502 10 59.3142 10.0655 58 10.1851Z"></path></g></g></g><g id="g-root-0.Vector_sy_qn65b510o5fk8-fill" data-item-order="-280787" transform="translate(213, 378)"></g><g id="g-root-5.cu_Vector_sy_m7cn6p10o5gch-fill" data-item-order="-280784" transform="translate(393, 414)"><g id="5.cu_Vector_sy_m7cn6p10o5gch-fill" stroke="none" fill="#de8431"><g><path d="M 96.4 154C 96.4 154 109.92 145.6 125.2 145.6C 140.48 145.6 154 154 154 154C 154 74.47 90.33 10 10 10C 10 10 96.4 36.09 96.4 154Z"></path></g></g></g><g id="g-root-5.Ellipse_sy_dbpmxt10o5h56-fill" data-item-order="-280782" transform="translate(569, 566)"><g id="5.Ellipse_sy_dbpmxt10o5h56-fill" stroke="none" fill="#de8431"><g><path d="M 10 14C 10 16.209139 11.790861 18 14 18C 16.209139 18 18 16.209139 18 14C 18 11.790861 16.209139 10 14 10C 11.790861 10 10 11.790861 10 14"></path></g></g></g><g id="g-root-5.cu_Vector_1_sy_vlnl10o5fkb-fill" data-item-order="-280780" transform="translate(585, 522)"><g id="5.cu_Vector_1_sy_vlnl10o5fkb-fill" stroke="none" fill="#de8431"><g><path d="M 70 106C 96.51 106 118 84.51 118 58C 118 31.49 96.51 10 70 10C 46.19 10 26.43 27.34 22.66 50.09L 10 58L 22.66 65.91C 26.43 88.65 46.19 106 70 106ZM 34 58C 34 38.12 50.12 22 70 22C 89.88 22 106 38.12 106 58C 106 77.88 89.88 94 70 94C 50.12 94 34 77.88 34 58Z"></path></g></g></g><g id="g-root-4.cu_Vector_sy_1um65i910o5g5g-fill" data-item-order="-280776" transform="translate(393, 414)"><g id="4.cu_Vector_sy_1um65i910o5g5g-fill" stroke="none" fill="#e0cb15"><g><path d="M 38.8 154C 38.8 154 52.32 145.6 67.6 145.6C 82.88 145.6 96.4 154 96.4 154C 96.4 36.09 10 10 10 10C 10 10 38.8 36.09 38.8 154Z"></path></g></g></g><g id="g-root-4.Ellipse_sy_1lqj59d10o5gy5-fill" data-item-order="-280774" transform="translate(528, 439)"><g id="4.Ellipse_sy_1lqj59d10o5gy5-fill" stroke="none" fill="#e0cb15"><g><path d="M 10 14C 10 16.209139 11.790861 18 14 18C 16.209139 18 18 16.209139 18 14C 18 11.790861 16.209139 10 14 10C 11.790861 10 10 11.790861 10 14"></path></g></g></g><g id="g-root-4.cu_Vector_1_sy_18fp3z510o5fda-fill" data-item-order="-280772" transform="translate(537, 342)"><g id="4.cu_Vector_1_sy_18fp3z510o5fda-fill" stroke="none" fill="#e0cb15"><g><path d="M 91.9333 91.9425C 110.683 73.1925 110.683 42.8025 91.9333 24.0625C 73.1933 5.3125 42.8033 5.3125 24.0533 24.0625C 7.2133 40.9025 5.5133 67.1325 18.9233 85.8825L 15.5633 100.4325L 30.1133 97.0725C 48.8633 110.482 75.0933 108.7825 91.9333 91.9425ZM 32.5433 83.4625C 18.4833 69.4025 18.4833 46.6125 32.5433 32.5525C 46.6033 18.4925 69.3933 18.4925 83.4533 32.5525C 97.5133 46.6125 97.5133 69.4025 83.4533 83.4625C 69.3933 97.5225 46.6033 97.5225 32.5433 83.4625Z"></path></g></g></g><g id="g-root-3.cu_Vector_sy_13zvlup10o5g5j-fill" data-item-order="-280768" transform="translate(364.199951171875, 414)"><g id="3.cu_Vector_sy_13zvlup10o5g5j-fill" stroke="none" fill="#92bd39"><g><path d="M 10 154C 10 36.09 38.8 10 38.8 10C 38.8 10 67.6 36.09 67.6 154C 67.6 154 54.08 145.6 38.8 145.6C 23.52 145.6 10 154 10 154Z"></path></g></g></g><g id="g-root-3.Ellipse_sy_qp1kkh10o5eko-fill" data-item-order="-280766" transform="translate(389, 374)"><g id="3.Ellipse_sy_qp1kkh10o5eko-fill" stroke="none" fill="#92bd39"><g><path d="M 10 14C 10 16.209139 11.790861 18 14 18C 16.209139 18 18 16.209139 18 14C 18 11.790861 16.209139 10 14 10C 11.790861 10 10 11.790861 10 14"></path></g></g></g><g id="g-root-3.cu_Vector_1_sy_8xrk2p10o5gxt-fill" data-item-order="-280764" transform="translate(345, 258)"><g id="3.cu_Vector_1_sy_8xrk2p10o5gxt-fill" stroke="none" fill="#92bd39"><g><path d="M 106 58C 106 31.49 84.51 10 58 10C 31.49 10 10 31.49 10 58C 10 81.81 27.34 101.57 50.09 105.34L 58 118L 65.91 105.34C 88.65 101.57 106 81.81 106 58ZM 58 94C 38.12 94 22 77.88 22 58C 22 38.12 38.12 22 58 22C 77.88 22 94 38.12 94 58C 94 77.88 77.88 94 58 94Z"></path></g></g></g><g id="g-root-2.cu_Vector_sy_1uo1krl10o5f5u-fill" data-item-order="-280760" transform="translate(306.60009765625, 414)"><g id="2.cu_Vector_sy_1uo1krl10o5f5u-fill" stroke="none" fill="#3cc583"><g><path d="M 67.6 154C 67.6 154 54.08 145.6 38.8 145.6C 23.52 145.6 10 154 10 154C 10 36.09 96.4 10 96.4 10C 96.4 10 67.6 36.09 67.6 154Z"></path></g></g></g><g id="g-root-2.Ellipse_sy_1hcl2e910o5gqr-fill" data-item-order="-280758" transform="translate(250, 439)"><g id="2.Ellipse_sy_1hcl2e910o5gqr-fill" stroke="none" fill="#3cc583"><g><path d="M 10 14C 10 16.209139 11.790861 18 14 18C 16.209139 18 18 16.209139 18 14C 18 11.790861 16.209139 10 14 10C 11.790861 10 10 11.790861 10 14"></path></g></g></g><g id="g-root-2.cu_Vector_1_sy_18hkj8h10o5edo-fill" data-item-order="-280756" transform="translate(153, 342)"><g id="2.cu_Vector_1_sy_18hkj8h10o5edo-fill" stroke="none" fill="#3cc583"><g><path d="M 85.8825 97.0725L 100.4325 100.4325L 97.0725 85.8825C 110.482 67.1325 108.7825 40.9025 91.9425 24.0625C 73.1925 5.3125 42.8025 5.3125 24.0625 24.0625C 5.3125 42.8125 5.3125 73.2025 24.0625 91.9425C 40.9025 108.7825 67.1325 110.482 85.8825 97.0725ZM 32.5425 83.4625C 18.4825 69.4025 18.4825 46.6125 32.5425 32.5525C 46.6025 18.4925 69.3925 18.4925 83.4525 32.5525C 97.5125 46.6125 97.5125 69.4025 83.4525 83.4625C 69.3925 97.5225 46.6025 97.5225 32.5425 83.4625Z"></path></g></g></g><g id="g-root-1.cu_Vector_sy_141r14110o5f5x-fill" data-item-order="-280752" transform="translate(249, 414)"><g id="1.cu_Vector_sy_141r14110o5f5x-fill" stroke="none" fill="#1eabda"><g><path d="M 67.6 154C 67.6 154 54.08 145.6 38.8 145.6C 23.52 145.6 10 154 10 154C 10 74.47 73.67 10 154 10C 154 10 67.6 36.09 67.6 154Z"></path></g></g></g><g id="g-root-1.Ellipse_sy_v640v510o5fym-fill" data-item-order="-280750" transform="translate(209, 566)"><g id="1.Ellipse_sy_v640v510o5fym-fill" stroke="none" fill="#1eabda"><g><path d="M 10 14C 10 16.209139 11.790861 18 14 18C 16.209139 18 18 16.209139 18 14C 18 11.790861 16.209139 10 14 10C 11.790861 10 10 11.790861 10 14"></path></g></g></g><g id="g-root-1.cu_Vector_1_sy_hv9zkx10o5edr-fill" data-item-order="-280748" transform="translate(93, 522)"><g id="1.cu_Vector_1_sy_hv9zkx10o5edr-fill" stroke="none" fill="#1eabda"><g><path d="M 105.34 65.91L 118 58L 105.34 50.09C 101.57 27.34 81.81 10 58 10C 31.49 10 10 31.49 10 58C 10 84.51 31.49 106 58 106C 81.81 106 101.57 88.66 105.34 65.91ZM 58 94C 38.12 94 22 77.88 22 58C 22 38.12 38.12 22 58 22C 77.88 22 94 38.12 94 58C 94 77.88 77.88 94 58 94Z"></path></g></g></g><g id="g-root-2_8vwb4x10och6r-fill" data-item-order="0" transform="translate(177, 366)"></g><g id="g-root-1_hunotd10ob2ml-fill" data-item-order="0" transform="translate(369, 282)"></g><g id="g-root-tx_windowsl_hwixr510o5gjv-fill" data-item-order="0" transform="translate(561, 258)"><g id="tx_windowsl_hwixr510o5gjv-fill" stroke="none" fill="#46432d"><g><text style="font: 15px Roboto, sans-serif; white-space: pre;" font-size="15px" font-family="Roboto, sans-serif"><tspan x="41.16" y="30.5" dominant-baseline="ideographic">Windows 및 </tspan><tspan x="17.2" y="48.5" dominant-baseline="ideographic">Linux(CentOS) 서버 </tspan><tspan x="67.16" y="66.5" dominant-baseline="ideographic">관리</tspan></text></g></g></g><g id="g-root-mult_1hbyrmp10nyfb7-fill" data-item-order="0" transform="translate(561, 366)"></g><g id="g-root-tx__1lxed7l10o5g5e-fill" data-item-order="0" transform="translate(33, 402)"><g id="tx__1lxed7l10o5g5e-fill" stroke="none" fill="#32444a"><g><text style="font: bold 20px Roboto, sans-serif; white-space: pre;" font-weight="bold" font-size="20px" font-family="Roboto, sans-serif"><tspan x="17.56" y="33.5" dominant-baseline="ideographic">웹 개발</tspan></text></g></g></g><g id="g-root-tx__dfghgh10o5f60-fill" data-item-order="0" transform="translate(267, 42)"><g id="tx__dfghgh10o5f60-fill" stroke="none" fill="#484848"><g><text style="font: bold 20px Roboto, sans-serif; white-space: pre;" font-weight="bold" font-size="20px" font-family="Roboto, sans-serif"><tspan x="28.41" y="45.5" dominant-baseline="ideographic">날씨 웹 개발 및 시스템 관리</tspan></text></g></g></g><g id="g-root-tx__zp1wf510o5gcv-fill" data-item-order="0" transform="translate(99, 258)"><g id="tx__zp1wf510o5gcv-fill" stroke="none" fill="#374840"><g><text style="font: 15px Roboto, sans-serif; white-space: pre;" font-size="15px" font-family="Roboto, sans-serif"><tspan x="14.86" y="30.5" dominant-baseline="ideographic">시스템 성능 보장</tspan></text></g></g></g><g id="g-root-tx__18ithep10o5gju-fill" data-item-order="0" transform="translate(663, 402)"><g id="tx__18ithep10o5gju-fill" stroke="none" fill="#4c4034"><g><text style="font: bold 20px Roboto, sans-serif; white-space: pre;" font-weight="bold" font-size="20px" font-family="Roboto, sans-serif"><tspan x="12.1" y="33.5" dominant-baseline="ideographic">데이터베이스</tspan></text></g></g></g><g id="g-root-tx__4mxun510o5h55-fill" data-item-order="0" transform="translate(3, 438)"><g id="tx__4mxun510o5h55-fill" stroke="none" fill="#32444a"><g><text style="font: 15px Roboto, sans-serif; white-space: pre;" font-size="15px" font-family="Roboto, sans-serif"><tspan x="12.03" y="27.5" dominant-baseline="ideographic">날씨 웹 애플리케이션 </tspan><tspan x="37.97" y="45.5" dominant-baseline="ideographic">구축 및 개선</tspan></text></g></g></g><g id="g-root-tx__4lowgx10o5ez0-fill" data-item-order="0" transform="translate(591, 222)"><g id="tx__4lowgx10o5ez0-fill" stroke="none" fill="#46432d"><g><text style="font: bold 20px Roboto, sans-serif; white-space: pre;" font-weight="bold" font-size="20px" font-family="Roboto, sans-serif"><tspan x="14.91" y="33.5" dominant-baseline="ideographic">운영 서버</tspan></text></g></g></g><g id="g-root-tx_mssqlmys_1upaixt10o5hc1-fill" data-item-order="0" transform="translate(645, 438)"><g id="tx_mssqlmys_1upaixt10o5hc1-fill" stroke="none" fill="#4c4034"><g><text style="font: 15px Roboto, sans-serif; white-space: pre;" font-size="15px" font-family="Roboto, sans-serif"><tspan x="16.71" y="27.5" dominant-baseline="ideographic">MS-SQL 및 MY-SQL </tspan><tspan x="26.37" y="45.5" dominant-baseline="ideographic">데이터베이스 관리</tspan></text></g></g></g><g id="g-root-tx__qu1d9d10o5erk-fill" data-item-order="0" transform="translate(81, 222)"><g id="tx__qu1d9d10o5erk-fill" stroke="none" fill="#374840"><g><text style="font: bold 20px Roboto, sans-serif; white-space: pre;" font-weight="bold" font-size="20px" font-family="Roboto, sans-serif"><tspan x="16.47" y="33.5" dominant-baseline="ideographic">시스템 유지 관리</tspan></text></g></g></g><g id="g-root-1_18mklep10nzu2o-fill" data-item-order="0" transform="translate(117, 546)"></g><g id="g-root-tx__18kowo110o5fk6-fill" data-item-order="0" transform="translate(351, 138)"><g id="tx__18kowo110o5fk6-fill" stroke="none" fill="#424736"><g><text style="font: bold 20px Roboto, sans-serif; white-space: pre;" font-weight="bold" font-size="20px" font-family="Roboto, sans-serif"><tspan x="14.91" y="33.5" dominant-baseline="ideographic">개발 언어</tspan></text></g></g></g><g id="g-root-data_vb3tk110o5g5f-fill" data-item-order="0" transform="translate(621, 546)"></g><g id="g-root-tx_aspnetmv_1qbcg2p10o5gct-fill" data-item-order="0" transform="translate(333, 174)"><g id="tx_aspnetmv_1qbcg2p10o5gct-fill" stroke="none" fill="#424736"><g><text style="font: 15px Roboto, sans-serif; white-space: pre;" font-size="15px" font-family="Roboto, sans-serif"><tspan x="12.89" y="27.5" dominant-baseline="ideographic">ASP.NET MVC 및 </tspan><tspan x="39.22" y="45.5" dominant-baseline="ideographic">ASP 사용</tspan></text></g></g></g><g id="g-root-0.cu_Subtract_sy_v2znfl10o5erz-stroke" data-item-order="-280790" transform="translate(341, 549.599609375)"><g id="0.cu_Subtract_sy_v2znfl10o5erz-stroke" fill="none" stroke-linecap="round" stroke-linejoin="round" stroke-miterlimit="4" stroke="#ffffff" stroke-width="2"><g><path d="M 58 10.1851L 58 158.4C 58 169.43 49.03 178.4 38 178.4C 26.97 178.4 18 169.43 18 158.4C 18 156.19 16.21 154.4 14 154.4C 11.79 154.4 10 156.19 10 158.4C 10 173.84 22.56 186.4 38 186.4C 53.44 186.4 66 173.84 66 158.4L 66 10.1851C 64.6858 10.0655 63.3497 10 62 10C 60.6502 10 59.3142 10.0655 58 10.1851Z"></path></g></g></g><g id="g-root-0.Vector_sy_qn65b510o5fk8-stroke" data-item-order="-280787" transform="translate(213, 378)"><g id="0.Vector_sy_qn65b510o5fk8-stroke" fill="none" stroke-linecap="round" stroke-linejoin="round" stroke-miterlimit="4" stroke="#484848" stroke-width="2"><g><path d="M 10 202C 10 88 87.28 10 190 10C 292.72 10 370 88 370 202"></path></g></g></g><g id="g-root-5.cu_Vector_sy_m7cn6p10o5gch-stroke" data-item-order="-280784" transform="translate(393, 414)"><g id="5.cu_Vector_sy_m7cn6p10o5gch-stroke" fill="none" stroke-linecap="round" stroke-linejoin="round" stroke-miterlimit="4" stroke="#ffffff" stroke-width="2"><g><path d="M 96.4 154C 96.4 154 109.92 145.6 125.2 145.6C 140.48 145.6 154 154 154 154C 154 74.47 90.33 10 10 10C 10 10 96.4 36.09 96.4 154Z"></path></g></g></g><g id="g-root-5.Ellipse_sy_dbpmxt10o5h56-stroke" data-item-order="-280782" transform="translate(569, 566)"><g id="5.Ellipse_sy_dbpmxt10o5h56-stroke" fill="none" stroke-linecap="round" stroke-linejoin="round" stroke-miterlimit="4" stroke="#ffffff" stroke-width="2"><g><path d="M 10 14C 10 16.209139 11.790861 18 14 18C 16.209139 18 18 16.209139 18 14C 18 11.790861 16.209139 10 14 10C 11.790861 10 10 11.790861 10 14"></path></g></g></g><g id="g-root-5.cu_Vector_1_sy_vlnl10o5fkb-stroke" data-item-order="-280780" transform="translate(585, 522)"><g id="5.cu_Vector_1_sy_vlnl10o5fkb-stroke" fill="none" stroke-linecap="round" stroke-linejoin="round" stroke-miterlimit="4" stroke="#ffffff" stroke-width="2"><g><path d="M 70 106C 96.51 106 118 84.51 118 58C 118 31.49 96.51 10 70 10C 46.19 10 26.43 27.34 22.66 50.09L 10 58L 22.66 65.91C 26.43 88.65 46.19 106 70 106ZM 34 58C 34 38.12 50.12 22 70 22C 89.88 22 106 38.12 106 58C 106 77.88 89.88 94 70 94C 50.12 94 34 77.88 34 58Z"></path></g></g></g><g id="g-root-4.cu_Vector_sy_1um65i910o5g5g-stroke" data-item-order="-280776" transform="translate(393, 414)"><g id="4.cu_Vector_sy_1um65i910o5g5g-stroke" fill="none" stroke-linecap="round" stroke-linejoin="round" stroke-miterlimit="4" stroke="#ffffff" stroke-width="2"><g><path d="M 38.8 154C 38.8 154 52.32 145.6 67.6 145.6C 82.88 145.6 96.4 154 96.4 154C 96.4 36.09 10 10 10 10C 10 10 38.8 36.09 38.8 154Z"></path></g></g></g><g id="g-root-4.Ellipse_sy_1lqj59d10o5gy5-stroke" data-item-order="-280774" transform="translate(528, 439)"><g id="4.Ellipse_sy_1lqj59d10o5gy5-stroke" fill="none" stroke-linecap="round" stroke-linejoin="round" stroke-miterlimit="4" stroke="#ffffff" stroke-width="2"><g><path d="M 10 14C 10 16.209139 11.790861 18 14 18C 16.209139 18 18 16.209139 18 14C 18 11.790861 16.209139 10 14 10C 11.790861 10 10 11.790861 10 14"></path></g></g></g><g id="g-root-4.cu_Vector_1_sy_18fp3z510o5fda-stroke" data-item-order="-280772" transform="translate(537, 342)"><g id="4.cu_Vector_1_sy_18fp3z510o5fda-stroke" fill="none" stroke-linecap="round" stroke-linejoin="round" stroke-miterlimit="4" stroke="#ffffff" stroke-width="2"><g><path d="M 91.9333 91.9425C 110.6833 73.1925 110.6833 42.8025 91.9333 24.0625C 73.1933 5.3125 42.8033 5.3125 24.0533 24.0625C 7.2133 40.9025 5.5133 67.1325 18.9233 85.8825L 15.5633 100.4325L 30.1133 97.0725C 48.8633 110.4825 75.0933 108.7825 91.9333 91.9425ZM 32.5433 83.4625C 18.4833 69.4025 18.4833 46.6125 32.5433 32.5525C 46.6033 18.4925 69.3933 18.4925 83.4533 32.5525C 97.5133 46.6125 97.5133 69.4025 83.4533 83.4625C 69.3933 97.5225 46.6033 97.5225 32.5433 83.4625Z"></path></g></g></g><g id="g-root-3.cu_Vector_sy_13zvlup10o5g5j-stroke" data-item-order="-280768" transform="translate(364.199951171875, 414)"><g id="3.cu_Vector_sy_13zvlup10o5g5j-stroke" fill="none" stroke-linecap="round" stroke-linejoin="round" stroke-miterlimit="4" stroke="#ffffff" stroke-width="2"><g><path d="M 10 154C 10 36.09 38.8 10 38.8 10C 38.8 10 67.6 36.09 67.6 154C 67.6 154 54.08 145.6 38.8 145.6C 23.52 145.6 10 154 10 154Z"></path></g></g></g><g id="g-root-3.Ellipse_sy_qp1kkh10o5eko-stroke" data-item-order="-280766" transform="translate(389, 374)"><g id="3.Ellipse_sy_qp1kkh10o5eko-stroke" fill="none" stroke-linecap="round" stroke-linejoin="round" stroke-miterlimit="4" stroke="#ffffff" stroke-width="2"><g><path d="M 10 14C 10 16.209139 11.790861 18 14 18C 16.209139 18 18 16.209139 18 14C 18 11.790861 16.209139 10 14 10C 11.790861 10 10 11.790861 10 14"></path></g></g></g><g id="g-root-3.cu_Vector_1_sy_8xrk2p10o5gxt-stroke" data-item-order="-280764" transform="translate(345, 258)"><g id="3.cu_Vector_1_sy_8xrk2p10o5gxt-stroke" fill="none" stroke-linecap="round" stroke-linejoin="round" stroke-miterlimit="4" stroke="#ffffff" stroke-width="2"><g><path d="M 106 58C 106 31.49 84.51 10 58 10C 31.49 10 10 31.49 10 58C 10 81.81 27.34 101.57 50.09 105.34L 58 118L 65.91 105.34C 88.65 101.57 106 81.81 106 58ZM 58 94C 38.12 94 22 77.88 22 58C 22 38.12 38.12 22 58 22C 77.88 22 94 38.12 94 58C 94 77.88 77.88 94 58 94Z"></path></g></g></g><g id="g-root-2.cu_Vector_sy_1uo1krl10o5f5u-stroke" data-item-order="-280760" transform="translate(306.60009765625, 414)"><g id="2.cu_Vector_sy_1uo1krl10o5f5u-stroke" fill="none" stroke-linecap="round" stroke-linejoin="round" stroke-miterlimit="4" stroke="#ffffff" stroke-width="2"><g><path d="M 67.6 154C 67.6 154 54.08 145.6 38.8 145.6C 23.52 145.6 10 154 10 154C 10 36.09 96.4 10 96.4 10C 96.4 10 67.6 36.09 67.6 154Z"></path></g></g></g><g id="g-root-2.Ellipse_sy_1hcl2e910o5gqr-stroke" data-item-order="-280758" transform="translate(250, 439)"><g id="2.Ellipse_sy_1hcl2e910o5gqr-stroke" fill="none" stroke-linecap="round" stroke-linejoin="round" stroke-miterlimit="4" stroke="#ffffff" stroke-width="2"><g><path d="M 10 14C 10 16.209139 11.790861 18 14 18C 16.209139 18 18 16.209139 18 14C 18 11.790861 16.209139 10 14 10C 11.790861 10 10 11.790861 10 14"></path></g></g></g><g id="g-root-2.cu_Vector_1_sy_18hkj8h10o5edo-stroke" data-item-order="-280756" transform="translate(153, 342)"><g id="2.cu_Vector_1_sy_18hkj8h10o5edo-stroke" fill="none" stroke-linecap="round" stroke-linejoin="round" stroke-miterlimit="4" stroke="#ffffff" stroke-width="2"><g><path d="M 85.8825 97.0725L 100.4325 100.4325L 97.0725 85.8825C 110.4825 67.1325 108.7825 40.9025 91.9425 24.0625C 73.1925 5.3125 42.8025 5.3125 24.0625 24.0625C 5.3125 42.8125 5.3125 73.2025 24.0625 91.9425C 40.9025 108.7825 67.1325 110.4825 85.8825 97.0725ZM 32.5425 83.4625C 18.4825 69.4025 18.4825 46.6125 32.5425 32.5525C 46.6025 18.4925 69.3925 18.4925 83.4525 32.5525C 97.5125 46.6125 97.5125 69.4025 83.4525 83.4625C 69.3925 97.5225 46.6025 97.5225 32.5425 83.4625Z"></path></g></g></g><g id="g-root-1.cu_Vector_sy_141r14110o5f5x-stroke" data-item-order="-280752" transform="translate(249, 414)"><g id="1.cu_Vector_sy_141r14110o5f5x-stroke" fill="none" stroke-linecap="round" stroke-linejoin="round" stroke-miterlimit="4" stroke="#ffffff" stroke-width="2"><g><path d="M 67.6 154C 67.6 154 54.08 145.6 38.8 145.6C 23.52 145.6 10 154 10 154C 10 74.47 73.67 10 154 10C 154 10 67.6 36.09 67.6 154Z"></path></g></g></g><g id="g-root-1.Ellipse_sy_v640v510o5fym-stroke" data-item-order="-280750" transform="translate(209, 566)"><g id="1.Ellipse_sy_v640v510o5fym-stroke" fill="none" stroke-linecap="round" stroke-linejoin="round" stroke-miterlimit="4" stroke="#ffffff" stroke-width="2"><g><path d="M 10 14C 10 16.209139 11.790861 18 14 18C 16.209139 18 18 16.209139 18 14C 18 11.790861 16.209139 10 14 10C 11.790861 10 10 11.790861 10 14"></path></g></g></g><g id="g-root-1.cu_Vector_1_sy_hv9zkx10o5edr-stroke" data-item-order="-280748" transform="translate(93, 522)"><g id="1.cu_Vector_1_sy_hv9zkx10o5edr-stroke" fill="none" stroke-linecap="round" stroke-linejoin="round" stroke-miterlimit="4" stroke="#ffffff" stroke-width="2"><g><path d="M 105.34 65.91L 118 58L 105.34 50.09C 101.57 27.34 81.81 10 58 10C 31.49 10 10 31.49 10 58C 10 84.51 31.49 106 58 106C 81.81 106 101.57 88.66 105.34 65.91ZM 58 94C 38.12 94 22 77.88 22 58C 22 38.12 38.12 22 58 22C 77.88 22 94 38.12 94 58C 94 77.88 77.88 94 58 94Z"></path></g></g></g><g id="g-root-2_8vwb4x10och6r-stroke" data-item-order="0" transform="translate(177, 366)"><g id="2_8vwb4x10och6r-stroke" fill="none" stroke-linecap="round" stroke-linejoin="round" stroke-miterlimit="4" stroke="#3cc583" stroke-width="2"><g><path d="M 11 44.236C 11 47.199562 13.40244 49.602001 16.366001 49.602001C 19.329559 49.602001 21.732 47.199562 21.732 44.236C 21.732 41.272442 19.329559 38.870003 16.366001 38.870003C 13.40244 38.870003 11 41.272442 11 44.236M 24.83 56.722C 23.733578 54.15427 21.530436 52.223373 18.841097 51.47316C 16.151758 50.722946 13.267247 51.234596 11 52.863998M 46.268002 44.236C 46.268002 47.199562 48.670441 49.602001 51.634003 49.602001C 54.597561 49.602001 57.000004 47.199562 57.000004 44.236C 57.000004 41.272442 54.597561 38.870003 51.634003 38.870003C 48.670441 38.870003 46.268002 41.272442 46.268002 44.236M 43.169998 56.722C 44.266418 54.15427 46.469563 52.223373 49.158901 51.47316C 51.84824 50.722946 54.73275 51.234596 56.999996 52.863998M 27.1 42.702C 27.099024 46.513454 30.188545 49.603767 34 49.603767C 37.811455 49.603767 40.900978 46.513454 40.900002 42.702C 40.900978 38.890545 37.811455 35.800232 34 35.800232C 30.188545 35.800232 27.099024 38.890545 27.1 42.702M 43.169998 56.722C 40.820126 54.140408 37.490913 52.668919 34 52.668919C 30.509081 52.668919 27.179871 54.140408 24.829998 56.721996M 30.934 25.077999C 30.934 26.771305 32.306694 28.144001 34 28.144001C 35.693306 28.144001 37.066002 26.771305 37.066002 25.077999C 37.066002 23.384695 35.693306 22.012001 34 22.012001C 32.306694 22.012001 30.934 23.384695 30.934 25.077999M 28.091999 32.577999L 25.08 33.276001C 23.909945 33.537689 22.705814 33.007095 22.109383 31.967009C 21.512949 30.926922 21.663177 29.619677 22.48 28.742001L 24.582001 26.469999C 25.309984 25.684002 25.309984 24.469999 24.582001 23.684L 22.476 21.414C 21.660423 20.53574 21.510864 19.229115 22.106888 18.189278C 22.702915 17.149443 23.90597 16.618126 25.076 16.878L 28.087999 17.576C 29.13192 17.814625 30.181868 17.202154 30.488001 16.176001L 31.4 13.214C 31.745472 12.063965 32.804195 11.276545 34.004997 11.276545C 35.205803 11.276545 36.264526 12.063965 36.610001 13.214L 37.514 16.184C 37.820133 17.210155 38.870079 17.822624 39.914001 17.584L 42.914001 16.886C 44.084026 16.626125 45.287083 17.157444 45.88311 18.197277C 46.479134 19.237114 46.329575 20.543739 45.513996 21.421999L 43.416 23.684C 42.689945 24.470753 42.689945 25.683243 43.415997 26.469999L 45.523998 28.742001C 46.340824 29.619677 46.491055 30.926922 45.894619 31.967009C 45.298187 33.007095 44.094059 33.537689 42.924 33.276001L 39.924 32.577999M 28.6 38.400002C 31.986273 41.374069 36.396431 42.91465 40.898003 42.696003M 12.152 40.924C 14.800483 43.220455 18.232716 44.406799 21.734001 44.236M 47.417999 40.924C 50.066483 43.220455 53.498718 44.406799 57.000004 44.236"></path></g></g></g><g id="g-root-1_hunotd10ob2ml-stroke" data-item-order="0" transform="translate(369, 282)"><g id="1_hunotd10ob2ml-stroke" fill="none" stroke-linecap="round" stroke-linejoin="round" stroke-miterlimit="4" stroke="#92bd39" stroke-width="2"><g><path d="M 13 11.008L 55 11.008C 55 11.008 57 11.008 57 13.007999L 57 55.007999C 57 55.007999 57 57.007999 55 57.007999L 13 57.007999C 13 57.007999 11 57.007999 11 55.007999L 11 13.007999C 11 13.007999 11 11.008 13 11.008M 19 49L 19 37C 19 34.790863 20.790861 33 23 33C 25.209139 33 27 34.790863 27 37L 27 49M 19 41.007999L 27 41.007999M 39 33L 34.708 33C 32.988785 33.000622 31.495478 34.182915 31.100515 35.856148C 30.705553 37.529373 31.512537 39.254646 33.050003 40.024002L 36.950001 41.973999C 38.489807 42.742203 39.298763 44.46883 38.903542 46.143627C 38.508324 47.818424 37.012798 49.00124 35.292 49L 31 49M 51 37C 51 39.209137 49.209141 41 47 41L 43 41L 43 33L 47 33C 49.209141 33 51 34.790863 51 37ZM 43 49.007999L 43 41.007999"></path></g></g></g><g id="g-root-tx_windowsl_hwixr510o5gjv-stroke" data-item-order="0" transform="translate(561, 258)"></g><g id="g-root-mult_1hbyrmp10nyfb7-stroke" data-item-order="0" transform="translate(561, 366)"><g id="mult_1hbyrmp10nyfb7-stroke" fill="none" stroke-linecap="round" stroke-linejoin="round" stroke-miterlimit="4" stroke="#e0cb15" stroke-width="2"><g><path d="M 52.908001 13.875999L 23.279999 13.875999C 21.557652 13.875999 20.161104 15.271652 20.16 16.993999L 20.16 42.723999C 20.16 44.445999 21.556 45.844002 23.279999 45.844002L 52.908001 45.844002C 54.631126 45.844002 56.028 44.447128 56.028 42.723999L 56.028 16.993999C 56.028 15.270872 54.631126 13.874 52.908001 13.874001ZM 47.84 49.256001C 47.84 50.97913 46.443127 52.375999 44.720001 52.375999L 15.092 52.375999C 13.368872 52.375999 11.972 50.97913 11.972 49.256001L 11.972 23.526001C 11.972 21.804001 13.37 20.406 15.092 20.406L 16.546 20.406M 20.16 21.672001L 56.026001 21.672001M 11.974 28.204L 15.032 28.204M 34.973999 18.164C 34.75861 18.164 34.584 17.989391 34.584 17.774C 34.584 17.558609 34.75861 17.383999 34.973999 17.383999M 34.973999 18.164C 35.189392 18.164 35.363998 17.989391 35.363998 17.774C 35.363998 17.558609 35.189392 17.383999 34.973999 17.383999M 30.296 18.164C 30.080608 18.164 29.906 17.989391 29.906 17.774C 29.906 17.558609 30.080608 17.383999 30.296 17.383999M 30.296 18.164C 30.511391 18.164 30.686001 17.989391 30.686001 17.774C 30.686001 17.558609 30.511391 17.383999 30.296 17.383999M 25.619999 18.164C 25.40461 18.164 25.23 17.989391 25.23 17.774C 25.23 17.558609 25.40461 17.383999 25.619999 17.383999M 25.619999 18.164C 25.835392 18.164 26.01 17.989391 26.01 17.774C 26.01 17.558609 25.835392 17.383999 25.619999 17.383999M 38.094002 30.096001L 38.094002 33.809998M 46.216 39.251999C 46.492001 39.666 46.354 40.082001 46.216 40.498001C 45.938 40.912003 45.523998 41.049999 45.108002 41.049999L 31.128 41.049999C 30.712 41.049999 30.296 40.774002 30.02 40.498001C 29.743664 40.128628 29.743664 39.621368 30.019999 39.251999L 37.080002 25.962C 37.18874 25.715611 37.385612 25.518738 37.632 25.41C 38.323997 25.132 39.015999 25.27 39.431999 25.962L 46.216 39.251999ZM 38.094002 37.403999C 37.922791 37.403999 37.784 37.265209 37.784 37.094002C 37.784 36.922791 37.922791 36.784 38.094002 36.784M 38.094002 37.403999C 38.265209 37.403999 38.403999 37.265209 38.403999 37.094002C 38.403999 36.922791 38.265209 36.784 38.094002 36.784"></path></g></g></g><g id="g-root-tx__1lxed7l10o5g5e-stroke" data-item-order="0" transform="translate(33, 402)"></g><g id="g-root-tx__dfghgh10o5f60-stroke" data-item-order="0" transform="translate(267, 42)"></g><g id="g-root-tx__zp1wf510o5gcv-stroke" data-item-order="0" transform="translate(99, 258)"></g><g id="g-root-tx__18ithep10o5gju-stroke" data-item-order="0" transform="translate(663, 402)"></g><g id="g-root-tx__4mxun510o5h55-stroke" data-item-order="0" transform="translate(3, 438)"></g><g id="g-root-tx__4lowgx10o5ez0-stroke" data-item-order="0" transform="translate(591, 222)"></g><g id="g-root-tx_mssqlmys_1upaixt10o5hc1-stroke" data-item-order="0" transform="translate(645, 438)"></g><g id="g-root-tx__qu1d9d10o5erk-stroke" data-item-order="0" transform="translate(81, 222)"></g><g id="g-root-1_18mklep10nzu2o-stroke" data-item-order="0" transform="translate(117, 546)"><g id="1_18mklep10nzu2o-stroke" fill="none" stroke-linecap="round" stroke-linejoin="round" stroke-miterlimit="4" stroke="#1eabda" stroke-width="2"><g><path d="M 15 12L 53 12C 53 12 57 12 57 16L 57 52C 57 52 57 56 53 56L 15 56C 15 56 11 56 11 52L 11 16C 11 16 11 12 15 12M 11 22L 57 22M 18 16.5C 18.276142 16.5 18.5 16.723858 18.5 17C 18.5 17.276142 18.276142 17.5 18 17.5C 17.723858 17.5 17.5 17.276142 17.5 17C 17.5 16.723858 17.723858 16.5 18 16.5M 24 16.5C 24.276142 16.5 24.5 16.723858 24.5 17C 24.5 17.276142 24.276142 17.5 24 17.5C 23.723858 17.5 23.5 17.276142 23.5 17C 23.5 16.723858 23.723858 16.5 24 16.5M 30 16.5C 30.276142 16.5 30.5 16.723858 30.5 17C 30.5 17.276142 30.276142 17.5 30 17.5C 29.723858 17.5 29.5 17.276142 29.5 17C 29.5 16.723858 29.723858 16.5 30 16.5M 48 23L 48 55.146M 18.018 28.087999L 40 28.087999L 40 37L 18.018 37ZM 18.018 43L 27.063999 43M 18.018 49L 27.063999 49M 32 42.891998L 40 42.891998L 40 49.019997L 32 49.019997Z"></path></g></g></g><g id="g-root-tx__18kowo110o5fk6-stroke" data-item-order="0" transform="translate(351, 138)"></g><g id="g-root-data_vb3tk110o5g5f-stroke" data-item-order="0" transform="translate(621, 546)"><g id="data_vb3tk110o5g5f-stroke" fill="none" stroke-linecap="round" stroke-linejoin="round" stroke-miterlimit="4" stroke="#de8431" stroke-width="2"><g><path d="M 11.714286 20.285715C 11.714287 25.019585 21.69194 28.857143 34 28.857143C 46.308064 28.857143 56.285713 25.019585 56.285713 20.285715C 56.285713 15.551846 46.308064 11.714286 34 11.714286C 21.69194 11.714286 11.714287 15.551846 11.714287 20.285715M 11.714286 20.285715L 11.714286 47.714287C 11.714286 52.445717 21.691429 56.285713 34 56.285713C 46.308571 56.285713 56.285713 52.445717 56.285713 47.714287L 56.285713 20.285715M 56.285713 34C 56.285713 38.73143 46.308571 42.57143 34 42.57143C 21.691429 42.57143 11.714286 38.73143 11.714286 34"></path></g></g></g><g id="g-root-tx_aspnetmv_1qbcg2p10o5gct-stroke" data-item-order="0" transform="translate(333, 174)"></g></g></g></svg>