<?xml version="1.0" encoding="utf-8" standalone="yes"?>
<!DOCTYPE svg PUBLIC "-//W3C//DTD SVG 1.1//EN" "http://www.w3.org/Graphics/SVG/1.1/DTD/svg11.dtd">
<svg width="818" height="461" viewBox="0 0 818 461" style="fill:none;stroke:none;fill-rule:evenodd;clip-rule:evenodd;stroke-linecap:round;stroke-linejoin:round;stroke-miterlimit:1.5;" version="1.1" xmlns="http://www.w3.org/2000/svg" xmlns:xlink="http://www.w3.org/1999/xlink"><style class="text-font-style fontImports" data-font-family="Roboto">@import url('https://fonts.googleapis.com/css2?family=Roboto:wght@400;700&amp;display=block');</style><g id="items" style="isolation: isolate"><g id="blend" style="mix-blend-mode: normal"><g id="g-root-1.bubble-1_fr_143md8h12lpzif-fill" data-item-order="-294614" transform="translate(15, 106.5)"><g id="1.bubble-1_fr_143md8h12lpzif-fill" stroke="none" fill="#e0cb15"><g><path d="M 202 58L 10 58C 10.000001 51.3726 10 46 10 46L 202 46.000011L 202 58ZM 202 238L 202 58L 10 58.000019L 10.000004 238L 202 238ZM 202 250L 202 238L 10 238L 10 250L 106 286L 202 250ZM 292 10.000019L 190 10L 10 46L 202 46L 292 10.000019Z"></path></g></g></g><g id="g-root-2.bubble-2_fr_qssby912lpxxl-fill" data-item-order="-294586" transform="translate(207, 106.5)"><g id="2.bubble-2_fr_qssby912lpxxl-fill" stroke="none" fill="#92bd39"><g><path d="M 202 58L 10 58C 10.000001 51.3726 10 46 10 46L 202 46.000011L 202 58ZM 202 238L 202 58L 10 58.000019L 10.000004 238L 202 238ZM 202 274L 202 238L 10 238L 10 274L 106 310L 202 274ZM 202 10.000019L 100 10L 10 46L 202 46L 202 10.000019Z"></path></g></g></g><g id="g-root-3.bubble-3_fr_dhbtkx12lpzij-fill" data-item-order="-294558" transform="translate(399, 106.5)"><g id="3.bubble-3_fr_dhbtkx12lpzij-fill" stroke="none" fill="#3cc583"><g><path d="M 202 58L 10 58C 10.000001 51.3726 10 46 10 46L 202 46.000011L 202 58ZM 202 238L 202 58L 10 58.000019L 10.000004 238L 202 238ZM 202 274L 202 238L 10 238L 10 274L 106 310L 202 274ZM 112 10.000019L 10.000046 10L 10 46L 202 46L 112 10.000019Z"></path></g></g></g><g id="g-root-4.bubble-4_fr_924sjl12lpx51-fill" data-item-order="-294530" transform="translate(501, 106.5)"><g id="4.bubble-4_fr_924sjl12lpx51-fill" stroke="none" fill="#1eabda"><g><path d="M 292 58L 100 58C 100.000001 51.3726 100 46 100 46L 292 46.000011L 292 58ZM 292 238L 292 58L 100 58.000019L 100.000004 238L 292 238ZM 292 250L 292 238L 100 238L 100 250L 196 286L 292 250ZM 112 10.000019L 10 10L 100 46L 292 46L 112 10.000019Z"></path></g></g></g><g id="g-root-tx__1ursc5d12lpyiv-fill" data-item-order="0" transform="translate(327, 46.5)"><g id="tx__1ursc5d12lpyiv-fill" stroke="none" fill="#484848"><g><text style="font: 20px Roboto, sans-serif; white-space: pre;" font-size="20px" font-family="Roboto, sans-serif"><tspan x="14.01" y="33.5" dominant-baseline="ideographic">파일 공유 웹 관리</tspan></text></g></g></g><g id="g-root-code_1hgyav512lpwy0-fill" data-item-order="0" transform="translate(81, 166.5)"></g><g id="g-root-scri_18gy8ht12lu5u1-fill" data-item-order="0" transform="translate(273, 166.5)"></g><g id="g-root-shar_4my0zl12lu5fu-fill" data-item-order="0" transform="translate(465, 166.5)"></g><g id="g-root-2_8wis8x12m5fdb-fill" data-item-order="0" transform="translate(657, 166.5)"></g><g id="g-root-tx__18f2t8h12lu6tl-fill" data-item-order="0" transform="translate(75, 238.5)"><g id="tx__18f2t8h12lu6tl-fill" stroke="none" fill="#ffffff"><g><text style="font: bold 20px Roboto, sans-serif; white-space: pre;" font-weight="bold" font-size="20px" font-family="Roboto, sans-serif"><tspan x="17.56" y="33.5" dominant-baseline="ideographic">주 언어</tspan></text></g></g></g><g id="g-root-tx__4l2lq912lu6fd-fill" data-item-order="0" transform="translate(261, 238.5)"><g id="tx__4l2lq912lu6fd-fill" stroke="none" fill="#ffffff"><g><text style="font: bold 20px Roboto, sans-serif; white-space: pre;" font-weight="bold" font-size="20px" font-family="Roboto, sans-serif"><tspan x="14.91" y="33.5" dominant-baseline="ideographic">보조 언어</tspan></text></g></g></g><g id="g-root-tx__dl2xkx12m3ym8-fill" data-item-order="0" transform="translate(453, 238.5)"><g id="tx__dl2xkx12m3ym8-fill" stroke="none" fill="#ffffff"><g><text style="font: bold 20px Roboto, sans-serif; white-space: pre;" font-weight="bold" font-size="20px" font-family="Roboto, sans-serif"><tspan x="14.91" y="33.5" dominant-baseline="ideographic">운영 서버</tspan></text></g></g></g><g id="g-root-tx__qvwyv512m6sjt-fill" data-item-order="0" transform="translate(633, 238.5)"><g id="tx__qvwyv512m6sjt-fill" stroke="none" fill="#ffffff"><g><text style="font: bold 20px Roboto, sans-serif; white-space: pre;" font-weight="bold" font-size="20px" font-family="Roboto, sans-serif"><tspan x="12.1" y="33.5" dominant-baseline="ideographic">데이터베이스</tspan></text></g></g></g><g id="g-root-tx__qof9tt12lu60z-fill" data-item-order="0" transform="translate(57, 274.5)"><g id="tx__qof9tt12lu60z-fill" stroke="none" fill="#ffffff"><g><text style="font: 15px Roboto, sans-serif; white-space: pre;" font-size="15px" font-family="Roboto, sans-serif"><tspan x="13.76" y="30.5" dominant-baseline="ideographic">ASP.NET MVC, </tspan><tspan x="13.86" y="48.5" dominant-baseline="ideographic">Jquery, Jquery </tspan><tspan x="39.48" y="66.5" dominant-baseline="ideographic">Mobile</tspan></text></g></g></g><g id="g-root-tx__1lvj4ap12lu5fn-fill" data-item-order="0" transform="translate(231, 274.5)"><g id="tx__1lvj4ap12lu5fn-fill" stroke="none" fill="#ffffff"><g><text style="font: 15px Roboto, sans-serif; white-space: pre;" font-size="15px" font-family="Roboto, sans-serif"><tspan x="12.45" y="30.5" dominant-baseline="ideographic">노후화된 시스템 지원을 </tspan><tspan x="16.84" y="48.5" dominant-baseline="ideographic">위한 asp, php 프로그</tspan><tspan x="53.24" y="66.5" dominant-baseline="ideographic">래밍 언어</tspan></text></g></g></g><g id="g-root-tx__1qf3gxt12m40sq-fill" data-item-order="0" transform="translate(423, 274.5)"><g id="tx__1qf3gxt12m40sq-fill" stroke="none" fill="#ffffff"><g><text style="font: 15px Roboto, sans-serif; white-space: pre;" font-size="15px" font-family="Roboto, sans-serif"><tspan x="13.63" y="30.5" dominant-baseline="ideographic">애플리케이션 호스팅에 </tspan><tspan x="25.79" y="48.5" dominant-baseline="ideographic">사용되는 Window </tspan><tspan x="44.39" y="66.5" dominant-baseline="ideographic">Server 서버</tspan></text></g></g></g><g id="g-root-tx__9mf7l12m6sjv-fill" data-item-order="0" transform="translate(615, 274.5)"><g id="tx__9mf7l12m6sjv-fill" stroke="none" fill="#ffffff"><g><text style="font: 15px Roboto, sans-serif; white-space: pre;" font-size="15px" font-family="Roboto, sans-serif"><tspan x="12.45" y="30.5" dominant-baseline="ideographic">데이터 저장에 사용되는 </tspan><tspan x="14.79" y="48.5" dominant-baseline="ideographic">MsSql, MySql 데이터</tspan><tspan x="61.58" y="66.5" dominant-baseline="ideographic">베이스</tspan></text></g></g></g><g id="g-root-1.bubble-1_fr_143md8h12lpzif-stroke" data-item-order="-294614" transform="translate(15, 106.5)"><g id="1.bubble-1_fr_143md8h12lpzif-stroke" fill="none" stroke-linecap="round" stroke-linejoin="round" stroke-miterlimit="4" stroke="#ffffff" stroke-width="2"><g><path d="M 202 58L 202 46L 10.0001 46L 10 58M 202 46L 292 10L 190 10L 10 46M 202 237.999756L 202 58M 10 237.999756L 10 58M 202 238L 202 250L 106 286L 10 250L 10 238"></path></g></g></g><g id="g-root-2.bubble-2_fr_qssby912lpxxl-stroke" data-item-order="-294586" transform="translate(207, 106.5)"><g id="2.bubble-2_fr_qssby912lpxxl-stroke" fill="none" stroke-linecap="round" stroke-linejoin="round" stroke-miterlimit="4" stroke="#ffffff" stroke-width="2"><g><path d="M 202 58L 202 46L 10.0001 46L 10 58M 202 46L 202 10L 100 10L 10 46M 202 237.999756L 202 58M 10 237.999756L 10 58M 202 238L 202 274L 106 310L 10 274L 10 238"></path></g></g></g><g id="g-root-3.bubble-3_fr_dhbtkx12lpzij-stroke" data-item-order="-294558" transform="translate(399, 106.5)"><g id="3.bubble-3_fr_dhbtkx12lpzij-stroke" fill="none" stroke-linecap="round" stroke-linejoin="round" stroke-miterlimit="4" stroke="#ffffff" stroke-width="2"><g><path d="M 202 58L 202 46L 10.0001 46L 10 58M 202 46L 112 10L 10 10L 10 46M 202 237.999756L 202 58M 10 237.999756L 10 58M 202 238L 202 274L 106 310L 10 274L 10 238"></path></g></g></g><g id="g-root-4.bubble-4_fr_924sjl12lpx51-stroke" data-item-order="-294530" transform="translate(501, 106.5)"><g id="4.bubble-4_fr_924sjl12lpx51-stroke" fill="none" stroke-linecap="round" stroke-linejoin="round" stroke-miterlimit="4" stroke="#ffffff" stroke-width="2"><g><path d="M 292 58L 292 46L 100.0001 46L 100 58M 292 46L 112 10L 10 10L 100 46M 292 237.999756L 292 58M 100 237.999756L 100 58M 292 238L 292 250L 196 286L 100 250L 100 238"></path></g></g></g><g id="g-root-tx__1ursc5d12lpyiv-stroke" data-item-order="0" transform="translate(327, 46.5)"></g><g id="g-root-code_1hgyav512lpwy0-stroke" data-item-order="0" transform="translate(81, 166.5)"><g id="code_1hgyav512lpwy0-stroke" fill="none" stroke-linecap="round" stroke-linejoin="round" stroke-miterlimit="4" stroke="#ffffff" stroke-width="2"><g><path d="M 32.87505 20.218775L 32.87505 14.468775C 32.87505 12.968775 33.87505 11.968765 35.375 11.968765L 59.375 11.968765C 59.875 11.968765 60.625 12.218765 60.875 12.468765L 66.875 17.468775C 67.375 17.968775 67.875 18.718775 67.875 19.468775L 67.875 50.71875C 67.875 52.21875 66.875 53.21875 65.375 53.21875L 46.625 53.21875M 10 10M 42.875 22.468725L 39.125 26.218725L 42.875 29.968725M 10 10M 57.875 22.468725L 61.625 26.218725L 57.875 29.968725M 10 10M 47.875 31.2188L 52.875 19.9688M 43.875 68.03125C 41.625 61.53125 35.375 56.78125 28.12495 56.78125C 20.87495 56.78125 14.37495 61.53125 12.12494 68.03125M 27.875 34.281227L 27.875 26.781225M 14.12475 41.53125L 41.624752 41.53125M 17.62475 44.28125C 17.87475 49.78125 22.37475 54.28125 27.87475 54.28125C 33.624748 54.28125 38.124748 49.78125 38.124748 44.03125L 38.124748 39.53125C 38.124748 33.781227 33.624748 29.281225 27.87475 29.281225C 22.37475 29.281225 17.87475 33.781227 17.62475 39.28125L 17.62475 44.28125Z"></path></g></g></g><g id="g-root-scri_18gy8ht12lu5u1-stroke" data-item-order="0" transform="translate(273, 166.5)"><g id="scri_18gy8ht12lu5u1-stroke" fill="none" stroke-linecap="round" stroke-linejoin="round" stroke-miterlimit="4" stroke="#ffffff" stroke-width="2"><g><path d="M 13.75 11.25L 66.25 11.25C 66.25 11.25 68.75 11.25 68.75 13.75L 68.75 66.25C 68.75 66.25 68.75 68.75 66.25 68.75L 13.75 68.75C 13.75 68.75 11.25 68.75 11.25 66.25L 11.25 13.75C 11.25 13.75 11.25 11.25 13.75 11.25M 48.75 55C 48.75 58.451782 51.548218 61.25 55 61.25C 58.451782 61.25 61.25 58.451782 61.25 55C 61.25 51.550003 58.75 50 55 48.75C 51.25 47.5 48.75 45.950001 48.75 42.5C 48.75 39.048222 51.548218 36.25 55 36.25C 58.451782 36.25 61.25 39.048222 61.25 42.5M 27.5 36.25L 42.5 36.25M 35 36.25L 35 61.25"></path></g></g></g><g id="g-root-shar_4my0zl12lu5fu-stroke" data-item-order="0" transform="translate(465, 166.5)"><g id="shar_4my0zl12lu5fu-stroke" fill="none" stroke-linecap="round" stroke-linejoin="round" stroke-miterlimit="4" stroke="#ffffff" stroke-width="2"><g><path d="M 30 16.252501C 30 19.013924 34.477154 21.252501 40 21.252501C 45.522846 21.252501 50 19.013924 50 16.252501C 50 13.491076 45.522846 11.2525 40 11.2525C 34.477154 11.2525 30 13.491076 30 16.252501ZM 30 23.75C 30 26.5 34.477501 28.75 40 28.75C 45.522499 28.75 50 26.5 50 23.75M 50 16.25L 50 31.25C 50 34 45.522499 36.25 40 36.25C 34.477501 36.25 30 34 30 31.25L 30 16.25M 18.75 68.752502L 31.25 68.752502M 25 63.752499L 25 68.752502M 12.5 58.752499L 37.5 58.752499M 33.75 46.25C 35.821068 46.25 37.5 47.928932 37.5 50L 37.5 59.780003C 37.56023 61.911617 35.881588 63.688736 33.749996 63.749996L 16.25 63.75C 14.120022 63.68737 12.442568 61.912628 12.5 59.782501L 12.5 50C 12.5 47.928932 14.178932 46.25 16.25 46.25ZM 48.75 68.752502L 61.25 68.752502M 55 63.752499L 55 68.752502M 42.5 58.752499L 67.5 58.752499M 63.75 46.25C 65.821068 46.25 67.5 47.928932 67.5 50L 67.5 59.780003C 67.560226 61.911617 65.881584 63.688736 63.749996 63.749996L 46.25 63.75C 44.120022 63.68737 42.44257 61.912628 42.500004 59.782501L 42.5 50C 42.5 47.928932 44.178932 46.25 46.25 46.25ZM 55 26.252501L 62.5 26.252501L 62.5 38.752502M 25 26.252501L 17.5 26.252501L 17.5 38.752502"></path></g></g></g><g id="g-root-2_8wis8x12m5fdb-stroke" data-item-order="0" transform="translate(657, 166.5)"><g id="2_8wis8x12m5fdb-stroke" fill="none" stroke-linecap="round" stroke-linejoin="round" stroke-miterlimit="4" stroke="#ffffff" stroke-width="2"><g><path d="M 21.875 36.250252C 27.39785 36.250252 31.875 34.45945 31.875 32.250298C 31.875 30.041176 27.39785 28.250299 21.875 28.250299C 16.35215 28.250299 11.875 30.041176 11.875 32.250298C 11.875 34.45945 16.35215 36.250252 21.875 36.250252ZM 11.875 32.249924L 11.875 48.25C 11.875 50.5 16.375 52.25 21.875 52.25C 27.375 52.25 31.875 50.5 31.875 48.25L 31.875 32.249924M 61.503502 18.43325C 65.038254 18.43325 67.903503 16.881176 67.903503 14.9666C 67.903503 13.052 65.038254 11.49992 61.503502 11.49992C 57.968998 11.49992 55.1035 13.052 55.1035 14.9666C 55.1035 16.881176 57.968998 18.43325 61.503502 18.43325ZM 55.1035 14.966725L 55.1035 24.033375C 55.1035 25.900051 58.036999 27.50005 61.503502 27.50005C 64.970253 27.50005 67.903503 25.900051 67.903503 24.033375L 67.903503 14.966725M 61.503502 39.200253C 65.038254 39.200253 67.903503 37.648003 67.903503 35.733498C 67.903503 33.818924 65.038254 32.26685 61.503502 32.26685C 57.968998 32.26685 55.1035 33.818924 55.1035 35.733498C 55.1035 37.648003 57.968998 39.200253 61.503502 39.200253ZM 55.1035 35.733749L 55.1035 44.800251C 55.1035 46.667 58.036999 48.266998 61.503502 48.266998C 64.970253 48.266998 67.903503 46.667 67.903503 44.800251L 67.903503 35.733749M 61.503502 59.43325C 65.038254 59.43325 67.903503 57.881248 67.903503 55.966499C 67.903503 54.052002 65.038254 52.5 61.503502 52.5C 57.968998 52.5 55.1035 54.052002 55.1035 55.966499C 55.1035 57.881248 57.968998 59.43325 61.503502 59.43325ZM 55.1035 55.966751L 55.1035 65.033501C 55.1035 66.900002 58.036999 68.5 61.503502 68.5C 64.970253 68.5 67.903503 66.900002 67.903503 65.033501L 67.903503 55.966751M 49.114498 19.25L 44.114498 19.25L 44.114498 60.75L 49.114498 60.75M 49.114498 40L 37.864498 40M 11.875 40.327751C 11.875 42.442249 16.199326 44.172001 21.87505 44.172001C 27.550751 44.172001 31.875074 42.442249 31.875074 40.327751"></path></g></g></g><g id="g-root-tx__18f2t8h12lu6tl-stroke" data-item-order="0" transform="translate(75, 238.5)"></g><g id="g-root-tx__4l2lq912lu6fd-stroke" data-item-order="0" transform="translate(261, 238.5)"></g><g id="g-root-tx__dl2xkx12m3ym8-stroke" data-item-order="0" transform="translate(453, 238.5)"></g><g id="g-root-tx__qvwyv512m6sjt-stroke" data-item-order="0" transform="translate(633, 238.5)"></g><g id="g-root-tx__qof9tt12lu60z-stroke" data-item-order="0" transform="translate(57, 274.5)"></g><g id="g-root-tx__1lvj4ap12lu5fn-stroke" data-item-order="0" transform="translate(231, 274.5)"></g><g id="g-root-tx__1qf3gxt12m40sq-stroke" data-item-order="0" transform="translate(423, 274.5)"></g><g id="g-root-tx__9mf7l12m6sjv-stroke" data-item-order="0" transform="translate(615, 274.5)"></g></g></g></svg>