<?xml version="1.0" encoding="utf-8" standalone="yes"?>
<!DOCTYPE svg PUBLIC "-//W3C//DTD SVG 1.1//EN" "http://www.w3.org/Graphics/SVG/1.1/DTD/svg11.dtd">
<svg width="578" height="362" viewBox="0 0 578 362" style="fill:none;stroke:none;fill-rule:evenodd;clip-rule:evenodd;stroke-linecap:round;stroke-linejoin:round;stroke-miterlimit:1.5;" version="1.1" xmlns="http://www.w3.org/2000/svg" xmlns:xlink="http://www.w3.org/1999/xlink"><style class="text-font-style fontImports" data-font-family="Roboto">@import url('https://fonts.googleapis.com/css2?family=Roboto:wght@400;700&amp;display=block');</style><g id="items" style="isolation: isolate"><g id="blend" style="mix-blend-mode: normal"><g id="g-root-1.g-1_fr_htf9np14jn4sk-fill" data-item-order="-152054" transform="translate(42.27398681640625, 123)"><g id="1.g-1_fr_htf9np14jn4sk-fill" stroke="none" fill="#1eabda"><g><path d="M 95.1143 94L 24.121 94C 20.0674 91.2119 16.8542 87.9141 14.4812 84.1067C 11.4937 79.0044 10 72.72 10 65.2533C 10 55.4222 13.2173 47.0844 19.6519 40.24C 26.2014 33.3956 35.2213 29.1644 46.7116 27.5467L 46.7116 14.6667C 46.7116 13.2978 47.1138 12.1778 47.9181 11.3067C 48.7224 10.4356 49.7565 10 51.0205 10L 63.2577 10C 64.4067 10 65.3834 10.4356 66.1877 11.3067C 66.992 12.1778 67.3942 13.2978 67.3942 14.6667L 67.3942 27.92C 75.3225 29.2889 81.9295 31.9022 87.215 35.76C 92.6155 39.4933 96.6945 43.7867 99.4522 48.64C 102.3248 53.3689 103.8185 57.9733 103.9334 62.4533C 103.9334 63.4489 103.5887 64.3822 102.8993 65.2533C 102.2099 66 101.3481 66.3733 100.314 66.3733L 80.8379 66.3733C 79.8037 66.3733 78.4326 66.2461 77.5134 65.7483C 76.5942 65.2506 75.6831 64.0732 75.4949 63.0133C 74.9203 59.7778 72.9095 56.9778 69.4625 54.6133C 66.0154 52.1244 61.649 50.88 56.3635 50.88C 50.7332 50.88 46.252 52 42.9198 54.24C 39.5876 56.48 37.9215 59.9022 37.9215 64.5067C 37.9215 67.4933 38.7833 70.0444 40.5068 72.16C 42.2304 74.1511 45.0455 75.9556 48.9522 77.5733C 52.8589 79.0667 58.1445 80.7467 64.8089 82.6133C 74.9204 84.8533 83.136 87.5289 89.4556 90.64C 91.527 91.6597 93.4132 92.7797 95.1143 94Z"></path></g></g></g><g id="g-root-2.g-2_fr_8xs9et14jn5la-fill" data-item-order="-152050" transform="translate(39, 207)"><g id="2.g-2_fr_8xs9et14jn5la-fill" stroke="none" fill="#3cc583"><g><path d="M 51.1928 92.6933C 51.9972 93.5644 53.0313 94 54.2952 94L 66.5324 94C 67.6815 94 68.6581 93.5644 69.4625 92.6933C 70.2668 91.8222 70.6689 90.7022 70.6689 89.3333L 70.6689 76.4533C 78.8271 75.3333 85.8936 73.0933 91.8686 69.7333C 97.9585 66.3733 102.6695 61.9556 106.0017 56.48C 109.3339 50.88 111 44.4711 111 37.2533C 111 29.7867 109.5063 23.6267 106.5188 18.7733C 104.5877 15.4271 101.8778 12.5027 98.3891 10L 27.3958 10C 28.6418 10.857 29.9672 11.6659 31.372 12.4267C 37.347 15.5378 44.6433 18.0889 53.2611 20.08C 60.5 21.9467 66.2452 23.6889 70.4966 25.3067C 74.8629 26.9244 78.0228 28.7289 79.9761 30.72C 82.0444 32.7111 83.0785 35.3244 83.0785 38.56C 83.0785 43.04 81.1826 46.5867 77.3908 49.2C 73.7139 51.8133 68.1411 53.12 60.6724 53.12C 56.0762 53.12 52.227 52.4978 49.1246 51.2533C 46.0222 49.8844 43.5518 48.2045 41.7133 46.2133C 39.9898 44.2222 38.7258 42.1689 37.9215 40.0533C 37.4811 38.895 36.8777 38.2435 36.0734 37.6213C 35.2691 36.8746 33.7275 36.5067 32.2338 36.5067L 13.7918 36.5067C 12.7577 36.5067 11.8384 36.9422 11.0341 37.8133C 10.3447 38.56 10 39.4311 10 40.4267C 10.2298 46.0267 11.8384 51.3778 14.8259 56.48C 17.8134 61.5822 22.2372 65.9378 28.0973 69.5467C 33.9573 73.0311 41.2537 75.3333 49.9864 76.4533L 49.9864 89.3333C 49.9864 90.7022 50.3885 91.8222 51.1928 92.6933Z"></path></g></g></g><g id="g-root-1.text-1_fr_4il8dh14jn37s-fill" data-item-order="-152041" transform="translate(243, 111)"></g><g id="g-root-2.text-2_fr_1q88rz914jn4lm-fill" data-item-order="-152027" transform="translate(243, 207)"></g><g id="g-root-2_1qa478l14jn3lz-fill" data-item-order="-2304" transform="translate(183, 117)"><g id="2_1qa478l14jn3lz-fill" stroke="none" fill="#1eabda"><g><path d="M 15.5 10L 23.096001 10L 23.096001 23.695999L 10.1 23.695999C 10.066654 23.695568 10.033302 23.696236 10 23.698L 10 15.5C 10.006599 12.465172 12.465172 10.006599 15.5 10ZM 10 41.307999L 10 26.691999C 10.033281 26.694422 10.066632 26.695755 10.1 26.695999L 23.096001 26.695999L 23.096001 41.304001L 10.1 41.304001C 10.066 41.304001 10.034 41.304001 10 41.307999ZM 10 52.299999L 10 44.299999C 10.033279 44.302444 10.066631 44.303776 10.1 44.304001L 23.096001 44.304001L 23.096001 57.799999L 15.5 57.799999C 12.465172 57.7934 10.006599 55.334827 10 52.299999ZM 37.573997 57.799999L 26.094 57.799999L 26.094 44.304001L 32.422001 44.304001C 32.302002 45.057999 32.237999 45.832001 32.237999 46.618C 32.233612 50.960598 34.195427 55.071732 37.573997 57.799999ZM 58 26.691999L 58 37.826C 55.278957 34.298775 51.07481 32.234383 46.619999 32.237999C 45.619999 32.237999 44.646 32.337997 43.703999 32.534L 43.703999 26.694L 57.900002 26.694C 57.933346 26.694429 57.966698 26.693764 58 26.691999ZM 58 15.5L 58 23.700001C 57.966717 23.697578 57.933365 23.696243 57.899998 23.695999L 43.703999 23.695999L 43.703999 10L 52.5 10C 55.534828 10.006599 57.993401 12.465172 58 15.5ZM 26.096001 10L 40.704002 10L 40.704002 23.695999L 26.096001 23.695999L 26.096001 10ZM 40.704002 33.506001C 37.305134 35.044983 34.634361 37.840477 33.251999 41.306L 26.096001 41.306L 26.096001 26.694L 40.704002 26.694L 40.704002 33.503998ZM 46.619999 58C 52.90625 58.000988 58.002789 52.905251 58.002789 46.618999C 58.002789 40.332748 52.90625 35.237011 46.619999 35.237999C 40.335144 35.238987 35.240791 40.334145 35.240791 46.618999C 35.240791 52.903851 40.335144 57.999008 46.619999 57.999996ZM 48.716 41.419998C 48.287029 40.991562 47.642319 40.863487 47.082153 41.095428C 46.521992 41.32737 46.156536 41.873718 46.156002 42.48L 46.155998 45.119999L 41.447998 45.119999C 40.619576 45.120003 39.948002 45.791573 39.948002 46.620003C 39.948002 47.448429 40.619576 48.120003 41.448002 48.120003L 46.155998 48.119999L 46.155998 50.757999C 46.156536 51.364285 46.521992 51.910633 47.082153 52.142574C 47.642319 52.374519 48.287029 52.246441 48.716 51.818001L 52.848 47.686001L 52.908001 47.625999C 53.44735 47.033672 53.423527 46.121372 52.854 45.557999L 48.716 41.417999Z"></path></g></g></g><g id="g-root-mesh_dkfr8l14tlced-fill" data-item-order="-2304" transform="translate(183, 213)"><g id="mesh_dkfr8l14tlced-fill" stroke="none" fill="#3cc583"><g><path d="M 34 10.394C 32.661552 10.393831 31.381781 10.943412 30.460253 11.914099C 29.538725 12.884785 29.056335 14.191365 29.125999 15.528L 27.386 16.346001C 26.386364 16.816547 25.957455 18.008366 26.427999 19.007999C 26.898546 20.007635 28.090364 20.436546 29.09 19.966L 30.954 19.088001C 31.81801 19.780621 32.892647 20.157413 34 20.156C 35.125664 20.158016 36.217117 19.76922 37.087997 19.056L 38.868 19.944C 39.854424 20.427364 41.046074 20.024685 41.537109 19.042059C 42.028149 18.059433 41.634769 16.864681 40.655998 16.366001L 38.875999 15.478001C 38.879997 15.41 38.879997 15.342 38.879997 15.274C 38.879997 12.578851 36.695148 10.394 34 10.394ZM 29.174 27.431999C 28.20171 26.941727 27.015867 27.319378 26.506155 28.281622C 25.996445 29.243866 26.350193 30.437057 27.302 30.966L 29.122 31.93L 29.120001 32.080002C 29.118952 34.002319 30.246536 35.746162 32 36.534L 32 38.799999C 32 39.904572 32.895432 40.799999 34 40.799999C 35.104568 40.799999 36 39.904572 36 38.799999L 36 36.531998C 37.783604 35.731041 38.916969 33.942841 38.879997 31.987999L 40.742001 30.940001C 41.379883 30.597704 41.783005 29.937429 41.796005 29.213625C 41.80901 28.489822 41.429871 27.815491 40.804695 27.450504C 40.17952 27.085516 39.40591 27.086853 38.781998 27.454L 37.166 28.362C 36.283195 27.60918 35.160202 27.197014 34 27.200001C 32.857323 27.198109 31.750521 27.598909 30.874001 28.332001L 29.174 27.431999ZM 16.714001 35.264C 17.818569 35.264 18.714001 36.159431 18.714001 37.264L 18.714001 39.534C 20.554298 40.359413 21.697197 42.231922 21.59 44.245998L 22.473999 44.728001C 23.443558 45.257214 23.800644 46.47213 23.271633 47.441799C 22.742622 48.411469 21.527779 48.768806 20.557999 48.239998L 19.757999 47.801998C 18.279423 48.973885 16.257797 49.188492 14.566141 48.353142C 12.874487 47.517796 11.815898 45.782162 11.847518 43.895763C 11.879137 42.009365 12.995299 40.310184 14.714 39.531998L 14.714001 37.264C 14.714001 36.159431 15.60943 35.264 16.714001 35.264ZM 36 48.271999L 36 46.004002C 36 44.899429 35.104568 44.004002 34 44.004002C 32.895432 44.004002 32 44.899429 32 46.004002L 32 48.271999C 31.594341 48.454262 31.215502 48.691124 30.874001 48.975998L 29.174 48.076C 28.197561 47.559063 26.986938 47.931561 26.469999 48.908001C 25.95306 49.884441 26.325562 51.095062 27.302 51.612L 29.122 52.576L 29.120001 52.726002C 29.144854 55.42115 31.349852 57.585854 34.044998 57.561001C 36.74015 57.536148 38.904854 55.33115 38.880001 52.636002L 40.742001 51.588001C 41.680744 51.035587 42.004829 49.833549 41.471008 48.884109C 40.937187 47.934673 39.741768 47.586979 38.781998 48.102001L 37.166 49.009998C 36.814331 48.709373 36.421741 48.46022 36 48.27ZM 53.285999 37.264L 53.285999 39.534C 55.002609 40.30899 56.119999 42.002659 56.157051 43.885738C 56.194099 45.768814 55.144192 47.505123 53.459393 48.347038C 51.774597 49.18895 49.755703 48.986168 48.271999 47.826L 47.377998 48.271999C 46.738033 48.598064 45.972366 48.555927 45.372044 48.161606C 44.771721 47.767284 44.42894 47.081337 44.473995 46.364506C 44.519051 45.647675 44.945026 45.010048 45.59 44.694L 46.414001 44.282001C 46.289944 42.255371 47.43372 40.363678 49.285999 39.531998L 49.285999 37.264C 49.285999 36.159431 50.181431 35.264 51.285999 35.264C 52.390568 35.264 53.285999 36.159431 53.285999 37.264ZM 16.714001 19.132C 14.410641 19.129194 12.418952 20.737326 11.936364 22.989563C 11.453775 25.241802 12.61171 27.524805 14.714 28.466L 14.714001 30.736C 14.714001 31.84057 15.60943 32.736 16.714001 32.736C 17.818569 32.736 18.714001 31.84057 18.714001 30.736L 18.714001 28.466C 19.087284 28.298599 19.438034 28.084923 19.757999 27.83L 20.557999 28.266001C 21.527843 28.79537 22.7432 28.438156 23.272366 27.468201C 23.801533 26.498245 23.444065 25.282963 22.473999 24.754L 21.59 24.271999C 21.605095 23.97691 21.593716 23.681061 21.556 23.388L 22.473999 22.888C 23.444065 22.359035 23.801533 21.143755 23.272366 20.1738C 22.7432 19.203844 21.527843 18.84663 20.557999 19.375999L 19.458 19.976C 18.649191 19.42477 17.692787 19.130598 16.714001 19.132ZM 48.584 19.945999C 50.116322 18.93763 52.084686 18.87373 53.679184 19.78059C 55.273685 20.68745 56.224949 22.411875 56.141575 24.244324C 56.058197 26.076775 54.954266 27.707685 53.284 28.466L 53.284 30.733999C 53.284 31.83857 52.388569 32.734001 51.284 32.734001C 50.179432 32.734001 49.284 31.83857 49.284 30.733999L 49.284 28.466C 48.922966 28.303226 48.583126 28.097038 48.271999 27.852001L 47.377998 28.298C 46.397095 28.75112 45.233643 28.34322 44.750427 27.376787C 44.267212 26.410353 44.638962 25.234852 45.59 24.722L 46.414001 24.310001C 46.393497 23.989662 46.404884 23.668083 46.447998 23.349998L 45.588001 22.922001C 44.599674 22.427563 44.199177 21.225632 44.693394 20.237198C 45.187614 19.248764 46.389454 18.848001 47.377998 19.341999L 48.584 19.945999Z"></path></g></g></g><g id="g-root-tx_enhancin_1cxeqp114jn30s-fill" data-item-order="0" transform="translate(219, 39)"><g id="tx_enhancin_1cxeqp114jn30s-fill" stroke="none" fill="#484848"><g><text style="font: bold 20px Roboto, sans-serif; white-space: pre;" font-weight="bold" font-size="20px" font-family="Roboto, sans-serif"><tspan x="15.61" y="33.5" dominant-baseline="ideographic">웹 프레임워크</tspan></text></g></g></g><g id="g-root-tx_springmv_v64q7914jn5dx-fill" data-item-order="0" transform="translate(255, 111)"><g id="tx_springmv_v64q7914jn5dx-fill" stroke="none" fill="#1eabda"><g><text style="font: bold 20px Roboto, sans-serif; white-space: pre;" font-weight="bold" font-size="20px" font-family="Roboto, sans-serif"><tspan x="12" y="33.5" dominant-baseline="ideographic">Spring MVC</tspan></text></g></g></g><g id="g-root-tx_facilita_8znoo514jn4lq-fill" data-item-order="0" transform="translate(255, 147)"><g id="tx_facilita_8znoo514jn4lq-fill" stroke="none" fill="#32444a"><g><text style="font: 15px Roboto, sans-serif; white-space: pre;" font-size="15px" font-family="Roboto, sans-serif"><tspan x="12" y="27.5" dominant-baseline="ideographic">웹 애플리케이션을 구축하기 위한 강력한 </tspan><tspan x="12" y="45.5" dominant-baseline="ideographic">아키텍처를 제공</tspan></text></g></g></g><g id="g-root-tx_springre_1ut0ujp14tlce9-fill" data-item-order="0" transform="translate(255, 207)"><g id="tx_springre_1ut0ujp14tlce9-fill" stroke="none" fill="#3cc583"><g><text style="font: bold 20px Roboto, sans-serif; white-space: pre;" font-weight="bold" font-size="20px" font-family="Roboto, sans-serif"><tspan x="12" y="33.5" dominant-baseline="ideographic">Spring RESTful</tspan></text></g></g></g><g id="g-root-tx_provides_146qaw514tlceb-fill" data-item-order="0" transform="translate(255, 243)"><g id="tx_provides_146qaw514tlceb-fill" stroke="none" fill="#374840"><g><text style="font: 15px Roboto, sans-serif; white-space: pre;" font-size="15px" font-family="Roboto, sans-serif"><tspan x="12" y="30.5" dominant-baseline="ideographic">RESTful 웹 서비스를 지원하는 </tspan><tspan x="12" y="48.5" dominant-baseline="ideographic">애플리케이션을 구축하기 위한 프레임워</tspan><tspan x="12" y="66.5" dominant-baseline="ideographic">크를 제공</tspan></text></g></g></g><g id="g-root-1.g-1_fr_htf9np14jn4sk-stroke" data-item-order="-152054" transform="translate(42.27398681640625, 123)"><g id="1.g-1_fr_htf9np14jn4sk-stroke" fill="none" stroke-linecap="round" stroke-linejoin="round" stroke-miterlimit="4" stroke="#ffffff" stroke-width="2"><g><path d="M 95.1143 94L 24.121 94C 20.0674 91.2119 16.8542 87.9141 14.4812 84.1067C 11.4937 79.0044 10 72.72 10 65.2533C 10 55.4222 13.2173 47.0844 19.6519 40.24C 26.2014 33.3956 35.2213 29.1644 46.7116 27.5467L 46.7116 14.6667C 46.7116 13.2978 47.1138 12.1778 47.9181 11.3067C 48.7224 10.4356 49.7565 10 51.0205 10L 63.2577 10C 64.4067 10 65.3834 10.4356 66.1877 11.3067C 66.992 12.1778 67.3942 13.2978 67.3942 14.6667L 67.3942 27.92C 75.3225 29.2889 81.9295 31.9022 87.215 35.76C 92.6155 39.4933 96.6945 43.7867 99.4522 48.64C 102.3248 53.3689 103.8185 57.9733 103.9334 62.4533C 103.9334 63.4489 103.5887 64.3822 102.8993 65.2533C 102.2099 66 101.3481 66.3733 100.314 66.3733L 80.8379 66.3733C 79.8037 66.3733 78.4326 66.2461 77.5134 65.7483C 76.5942 65.2506 75.6831 64.0732 75.4949 63.0133C 74.9203 59.7778 72.9095 56.9778 69.4625 54.6133C 66.0154 52.1244 61.649 50.88 56.3635 50.88C 50.7332 50.88 46.252 52 42.9198 54.24C 39.5876 56.48 37.9215 59.9022 37.9215 64.5067C 37.9215 67.4933 38.7833 70.0444 40.5068 72.16C 42.2304 74.1511 45.0455 75.9556 48.9522 77.5733C 52.8589 79.0667 58.1445 80.7467 64.8089 82.6133C 74.9204 84.8533 83.136 87.5289 89.4556 90.64C 91.527 91.6597 93.4132 92.7797 95.1143 94Z"></path></g></g></g><g id="g-root-2.g-2_fr_8xs9et14jn5la-stroke" data-item-order="-152050" transform="translate(39, 207)"><g id="2.g-2_fr_8xs9et14jn5la-stroke" fill="none" stroke-linecap="round" stroke-linejoin="round" stroke-miterlimit="4" stroke="#ffffff" stroke-width="2"><g><path d="M 51.1928 92.6933C 51.9972 93.5644 53.0313 94 54.2952 94L 66.5324 94C 67.6815 94 68.6581 93.5644 69.4625 92.6933C 70.2668 91.8222 70.6689 90.7022 70.6689 89.3333L 70.6689 76.4533C 78.8271 75.3333 85.8936 73.0933 91.8686 69.7333C 97.9585 66.3733 102.6695 61.9556 106.0017 56.48C 109.3339 50.88 111 44.4711 111 37.2533C 111 29.7867 109.5063 23.6267 106.5188 18.7733C 104.5877 15.4271 101.8778 12.5027 98.3891 10L 27.3958 10C 28.6418 10.857 29.9672 11.6659 31.372 12.4267C 37.347 15.5378 44.6433 18.0889 53.2611 20.08C 60.5 21.9467 66.2452 23.6889 70.4966 25.3067C 74.8629 26.9244 78.0228 28.7289 79.9761 30.72C 82.0444 32.7111 83.0785 35.3244 83.0785 38.56C 83.0785 43.04 81.1826 46.5867 77.3908 49.2C 73.7139 51.8133 68.1411 53.12 60.6724 53.12C 56.0762 53.12 52.227 52.4978 49.1246 51.2533C 46.0222 49.8844 43.5518 48.2045 41.7133 46.2133C 39.9898 44.2222 38.7258 42.1689 37.9215 40.0533C 37.4811 38.895 36.8777 38.2435 36.0734 37.6213C 35.2691 36.8746 33.7275 36.5067 32.2338 36.5067L 13.7918 36.5067C 12.7577 36.5067 11.8384 36.9422 11.0341 37.8133C 10.3447 38.56 10 39.4311 10 40.4267C 10.2298 46.0267 11.8384 51.3778 14.8259 56.48C 17.8134 61.5822 22.2372 65.9378 28.0973 69.5467C 33.9573 73.0311 41.2537 75.3333 49.9864 76.4533L 49.9864 89.3333C 49.9864 90.7022 50.3885 91.8222 51.1928 92.6933Z"></path></g></g></g><g id="g-root-1.text-1_fr_4il8dh14jn37s-stroke" data-item-order="-152041" transform="translate(243, 111)"><g id="1.text-1_fr_4il8dh14jn37s-stroke" fill="none" stroke-linecap="round" stroke-linejoin="round" stroke-miterlimit="4" stroke="#1eabda" stroke-width="2"><g><path d="M 10 10L 10 82"></path></g></g></g><g id="g-root-2.text-2_fr_1q88rz914jn4lm-stroke" data-item-order="-152027" transform="translate(243, 207)"><g id="2.text-2_fr_1q88rz914jn4lm-stroke" fill="none" stroke-linecap="round" stroke-linejoin="round" stroke-miterlimit="4" stroke="#3cc583" stroke-width="2"><g><path d="M 10 10L 10 106"></path></g></g></g><g id="g-root-2_1qa478l14jn3lz-stroke" data-item-order="-2304" transform="translate(183, 117)"></g><g id="g-root-mesh_dkfr8l14tlced-stroke" data-item-order="-2304" transform="translate(183, 213)"></g><g id="g-root-tx_enhancin_1cxeqp114jn30s-stroke" data-item-order="0" transform="translate(219, 39)"></g><g id="g-root-tx_springmv_v64q7914jn5dx-stroke" data-item-order="0" transform="translate(255, 111)"></g><g id="g-root-tx_facilita_8znoo514jn4lq-stroke" data-item-order="0" transform="translate(255, 147)"></g><g id="g-root-tx_springre_1ut0ujp14tlce9-stroke" data-item-order="0" transform="translate(255, 207)"></g><g id="g-root-tx_provides_146qaw514tlceb-stroke" data-item-order="0" transform="translate(255, 243)"></g></g></g></svg>